<svg width="1000" height="849" viewBox="0 0 1000 849" fill="none" xmlns="http://www.w3.org/2000/svg">
<path d="M312.71 821.352C312.71 819.784 311.646 819 309.518 819H305.366V823.848H309.518C311.646 823.848 312.71 823.016 312.71 821.352ZM315.206 821.352C315.206 823.048 314.63 824.312 313.478 825.144C312.502 825.88 311.214 826.248 309.614 826.248H302.894V810.096H314.462V812.496H305.366V816.576H309.614C311.118 816.576 312.382 816.944 313.406 817.68C314.606 818.528 315.206 819.752 315.206 821.352ZM330.878 826.248H319.526V810.096H330.614V812.496H321.998V816.84H329.894V819.24H321.998V823.848H330.878V826.248ZM345.398 821.544C345.398 823.128 344.87 824.384 343.814 825.312C342.838 826.192 341.59 826.632 340.07 826.632C338.47 826.632 337.198 826.192 336.254 825.312C335.246 824.384 334.742 823.112 334.742 821.496V820.92H337.238C337.238 823.144 338.158 824.256 339.998 824.256C341.854 824.256 342.782 823.32 342.782 821.448C342.782 820.424 342.422 819.728 341.702 819.36C341.126 819.072 340.078 818.928 338.558 818.928V816.504H339.11C340.23 816.504 341.054 816.336 341.582 816C342.142 815.632 342.422 815.04 342.422 814.224C342.422 813.552 342.214 813.024 341.798 812.64C341.382 812.256 340.838 812.064 340.166 812.064C339.318 812.064 338.686 812.296 338.27 812.76C337.854 813.272 337.638 814.08 337.622 815.184H335.174C335.19 813.44 335.662 812.08 336.59 811.104C337.486 810.16 338.686 809.688 340.19 809.688C341.518 809.688 342.622 810.064 343.502 810.816C344.43 811.632 344.894 812.744 344.894 814.152C344.894 815.576 344.374 816.712 343.334 817.56C344.71 818.408 345.398 819.736 345.398 821.544ZM368.973 826.248H366.477V812.424H358.725V826.248H356.253V810.096H368.973V826.248ZM383.205 814.872C383.205 813.288 382.157 812.496 380.061 812.496H376.725V817.368H379.437C381.949 817.368 383.205 816.536 383.205 814.872ZM385.677 814.896C385.677 818.128 383.693 819.744 379.725 819.744H376.725V826.248H374.253V810.096H380.349C381.933 810.096 383.173 810.448 384.069 811.152C385.141 811.968 385.677 813.216 385.677 814.896ZM398.133 819.336L395.853 813.672L393.669 819.336H398.133ZM403.509 826.248H400.797L399.045 821.64H392.781L390.98 826.248H388.269L394.677 810.096H397.077L403.509 826.248ZM416.132 821.544C416.132 823.128 415.604 824.384 414.548 825.312C413.572 826.192 412.324 826.632 410.804 826.632C409.204 826.632 407.932 826.192 406.988 825.312C405.98 824.384 405.476 823.112 405.476 821.496V820.92H407.972C407.972 823.144 408.892 824.256 410.732 824.256C412.588 824.256 413.516 823.32 413.516 821.448C413.516 820.424 413.156 819.728 412.436 819.36C411.86 819.072 410.812 818.928 409.292 818.928V816.504H409.844C410.964 816.504 411.788 816.336 412.316 816C412.876 815.632 413.156 815.04 413.156 814.224C413.156 813.552 412.948 813.024 412.532 812.64C412.116 812.256 411.572 812.064 410.9 812.064C410.052 812.064 409.42 812.296 409.004 812.76C408.588 813.272 408.372 814.08 408.356 815.184H405.908C405.924 813.44 406.396 812.08 407.324 811.104C408.22 810.16 409.42 809.688 410.924 809.688C412.252 809.688 413.356 810.064 414.236 810.816C415.164 811.632 415.628 812.744 415.628 814.152C415.628 815.576 415.108 816.712 414.068 817.56C415.444 818.408 416.132 819.736 416.132 821.544ZM431.157 823.992V812.496H426.525C426.461 814.4 426.181 816.368 425.685 818.4C425.413 819.504 425.093 820.52 424.725 821.448C424.357 822.376 423.949 823.224 423.501 823.992H431.157ZM436.149 829.56H434.349C433.741 827.464 432.861 826.416 431.709 826.416H422.877C422.253 826.416 421.813 826.736 421.557 827.376C421.381 827.792 421.261 828.52 421.197 829.56H419.157L419.349 825.624C420.213 824.68 421.021 823.472 421.773 822C422.461 820.656 422.973 819.328 423.309 818.016C423.821 815.92 424.077 813.28 424.077 810.096H433.773V824.304C433.773 824.576 433.941 824.808 434.277 825C434.661 825.192 435.173 825.288 435.813 825.288L436.149 829.56ZM452.504 826.248H450.008V818.904H442.256V826.248H439.784V810.096H442.256V816.528H450.008V810.096H452.504V826.248ZM470.144 826.248H467.648V815.352L460.64 824.904V826.248H458.144V810.096H460.64V820.944L467.648 811.392V810.096H470.144V826.248ZM489.44 826.248H486.248L480.08 818.736L478.256 820.488V826.248H475.76V810.096H478.256V817.056L485.288 810.096H488.624L481.808 817.008L489.44 826.248ZM504.824 818.184C504.824 816.408 504.384 814.96 503.504 813.84C502.56 812.608 501.264 811.992 499.616 811.992C497.968 811.992 496.672 812.608 495.728 813.84C494.832 814.976 494.384 816.424 494.384 818.184C494.384 819.944 494.832 821.392 495.728 822.528C496.656 823.728 497.952 824.328 499.616 824.328C501.264 824.328 502.56 823.728 503.504 822.528C504.384 821.408 504.824 819.96 504.824 818.184ZM507.296 818.184C507.296 820.52 506.624 822.48 505.28 824.064C503.84 825.776 501.952 826.632 499.616 826.632C497.248 826.632 495.36 825.784 493.952 824.088C492.64 822.52 491.984 820.552 491.984 818.184C491.984 815.816 492.632 813.84 493.928 812.256C495.352 810.544 497.248 809.688 499.616 809.688C501.952 809.688 503.84 810.552 505.28 812.28C506.624 813.896 507.296 815.864 507.296 818.184ZM521.6 821.592C521.6 819.928 520.44 819.096 518.12 819.096H514.256V823.848H518.024C519.096 823.848 519.896 823.736 520.424 823.512C521.208 823.176 521.6 822.536 521.6 821.592ZM520.904 814.608C520.904 813.712 520.504 813.104 519.704 812.784C519.224 812.592 518.432 812.496 517.328 812.496H514.256V816.72H517.184C518.352 816.72 519.168 816.64 519.632 816.48C520.48 816.16 520.904 815.536 520.904 814.608ZM524.144 821.64C524.144 822.104 524.072 822.552 523.928 822.984C523.8 823.416 523.616 823.816 523.376 824.184C523.136 824.552 522.84 824.88 522.488 825.168C522.152 825.472 521.768 825.704 521.336 825.864C520.76 826.12 519.272 826.248 516.872 826.248H511.784V810.096H517.544C518.024 810.096 518.44 810.112 518.792 810.144C519.16 810.16 519.456 810.184 519.68 810.216C520.768 810.408 521.656 810.872 522.344 811.608C523.064 812.408 523.424 813.376 523.424 814.512C523.424 815.792 522.84 816.84 521.672 817.656C522.408 818.008 523 818.544 523.448 819.264C523.912 819.984 524.144 820.776 524.144 821.64ZM547.863 826.248H545.367V815.352L538.359 824.904V826.248H535.863V810.096H538.359V820.944L545.367 811.392V810.096H547.863V826.248ZM570.045 821.592C570.045 819.928 568.885 819.096 566.565 819.096H562.701V823.848H566.469C567.541 823.848 568.341 823.736 568.869 823.512C569.653 823.176 570.045 822.536 570.045 821.592ZM569.349 814.608C569.349 813.712 568.949 813.104 568.149 812.784C567.669 812.592 566.877 812.496 565.773 812.496H562.701V816.72H565.629C566.797 816.72 567.613 816.64 568.077 816.48C568.925 816.16 569.349 815.536 569.349 814.608ZM572.589 821.64C572.589 822.104 572.517 822.552 572.373 822.984C572.245 823.416 572.061 823.816 571.821 824.184C571.581 824.552 571.285 824.88 570.933 825.168C570.597 825.472 570.213 825.704 569.781 825.864C569.205 826.12 567.717 826.248 565.317 826.248H560.229V810.096H565.989C566.469 810.096 566.885 810.112 567.237 810.144C567.605 810.16 567.901 810.184 568.125 810.216C569.213 810.408 570.101 810.872 570.789 811.608C571.509 812.408 571.869 813.376 571.869 814.512C571.869 815.792 571.285 816.84 570.117 817.656C570.853 818.008 571.445 818.544 571.893 819.264C572.357 819.984 572.589 820.776 572.589 821.64ZM586.245 821.304C586.245 820.472 585.917 819.848 585.261 819.432C584.701 819.064 583.925 818.88 582.933 818.88H579.597V823.872H582.933C585.141 823.872 586.245 823.016 586.245 821.304ZM588.837 821.28C588.837 822.976 588.229 824.264 587.013 825.144C585.989 825.88 584.645 826.248 582.981 826.248H577.125V810.096H579.645V816.48H583.125C584.629 816.48 585.917 816.856 586.989 817.608C588.221 818.472 588.837 819.696 588.837 821.28ZM592.461 826.248H589.917V810.096H592.461V826.248ZM609.122 826.248H606.098L602.09 820.176L598.082 826.248H595.058L600.626 817.992L595.274 810.096H598.25L602.09 815.832L605.93 810.096H608.882L603.578 818.016L609.122 826.248ZM624.074 818.184C624.074 816.408 623.634 814.96 622.754 813.84C621.81 812.608 620.514 811.992 618.866 811.992C617.218 811.992 615.922 812.608 614.978 813.84C614.082 814.976 613.634 816.424 613.634 818.184C613.634 819.944 614.082 821.392 614.978 822.528C615.906 823.728 617.202 824.328 618.866 824.328C620.514 824.328 621.81 823.728 622.754 822.528C623.634 821.408 624.074 819.96 624.074 818.184ZM626.546 818.184C626.546 820.52 625.874 822.48 624.53 824.064C623.09 825.776 621.202 826.632 618.866 826.632C616.498 826.632 614.61 825.784 613.202 824.088C611.89 822.52 611.234 820.552 611.234 818.184C611.234 815.816 611.882 813.84 613.178 812.256C614.602 810.544 616.498 809.688 618.866 809.688C621.202 809.688 623.09 810.552 624.53 812.28C625.874 813.896 626.546 815.864 626.546 818.184ZM641.93 823.992V812.496H637.298C637.234 814.4 636.954 816.368 636.458 818.4C636.186 819.504 635.866 820.52 635.498 821.448C635.13 822.376 634.722 823.224 634.274 823.992H641.93ZM646.922 829.56H645.122C644.514 827.464 643.634 826.416 642.482 826.416H633.65C633.026 826.416 632.586 826.736 632.33 827.376C632.154 827.792 632.034 828.52 631.97 829.56H629.93L630.122 825.624C630.986 824.68 631.794 823.472 632.546 822C633.234 820.656 633.746 819.328 634.082 818.016C634.594 815.92 634.85 813.28 634.85 810.096H644.546V824.304C644.546 824.576 644.714 824.808 645.05 825C645.434 825.192 645.946 825.288 646.586 825.288L646.922 829.56ZM663.277 826.248H660.781V818.904H653.029V826.248H650.557V810.096H653.029V816.528H660.781V810.096H663.277V826.248ZM677.581 821.304C677.581 820.472 677.253 819.848 676.597 819.432C676.037 819.064 675.261 818.88 674.269 818.88H670.933V823.872H674.269C676.477 823.872 677.581 823.016 677.581 821.304ZM680.173 821.28C680.173 822.976 679.565 824.264 678.349 825.144C677.325 825.88 675.981 826.248 674.317 826.248H668.461V810.096H670.981V816.48H674.461C675.965 816.48 677.253 816.856 678.325 817.608C679.557 818.472 680.173 819.696 680.173 821.28ZM683.797 826.248H681.253V810.096H683.797V826.248ZM700.458 826.248H697.434L693.426 820.176L689.418 826.248H686.394L691.962 817.992L686.61 810.096H689.586L693.426 815.832L697.266 810.096H700.218L694.914 818.016L700.458 826.248Z" fill="#271100"/>
<rect x="1" y="172" width="999" height="243" fill="#E4E4E4" fill-opacity="0.9"/>
<rect y="425" width="495" height="243" fill="#E4E4E4" fill-opacity="0.9"/>
<rect x="505" y="425" width="495" height="243" fill="#E4E4E4" fill-opacity="0.9"/>
<path d="M160.921 543H159.052C158.912 542.304 158.661 541.661 158.296 541.071C157.938 540.474 157.487 539.954 156.944 539.51C156.4 539.066 155.784 538.721 155.094 538.476C154.405 538.231 153.659 538.108 152.857 538.108C151.571 538.108 150.398 538.443 149.337 539.112C148.283 539.782 147.438 540.766 146.802 542.065C146.172 543.358 145.857 544.942 145.857 546.818C145.857 548.707 146.172 550.298 146.802 551.591C147.438 552.884 148.283 553.865 149.337 554.534C150.398 555.197 151.571 555.528 152.857 555.528C153.659 555.528 154.405 555.406 155.094 555.161C155.784 554.915 156.4 554.574 156.944 554.136C157.487 553.692 157.938 553.172 158.296 552.575C158.661 551.979 158.912 551.332 159.052 550.636H160.921C160.755 551.571 160.444 552.443 159.986 553.251C159.536 554.054 158.959 554.756 158.256 555.359C157.56 555.963 156.758 556.433 155.85 556.771C154.942 557.109 153.944 557.278 152.857 557.278C151.147 557.278 149.629 556.851 148.303 555.996C146.977 555.134 145.937 553.921 145.181 552.357C144.432 550.792 144.057 548.946 144.057 546.818C144.057 544.69 144.432 542.844 145.181 541.28C145.937 539.715 146.977 538.506 148.303 537.651C149.629 536.789 151.147 536.358 152.857 536.358C153.944 536.358 154.942 536.527 155.85 536.865C156.758 537.196 157.56 537.667 158.256 538.277C158.959 538.88 159.536 539.583 159.986 540.385C160.444 541.187 160.755 542.059 160.921 543ZM175.918 536L176.843 537.124C176.425 537.528 175.924 537.806 175.341 537.959C174.764 538.105 174.118 538.187 173.402 538.207C172.693 538.227 171.927 538.257 171.105 538.297C169.925 538.357 168.954 538.665 168.192 539.222C167.43 539.772 166.85 540.567 166.452 541.608C166.061 542.642 165.816 543.905 165.716 545.396H165.915C166.425 544.356 167.145 543.563 168.073 543.02C169.007 542.476 170.035 542.205 171.155 542.205C172.328 542.205 173.382 542.493 174.317 543.07C175.258 543.64 176.001 544.478 176.544 545.585C177.094 546.686 177.369 548.028 177.369 549.612C177.369 551.177 177.094 552.539 176.544 553.699C175.994 554.852 175.225 555.744 174.237 556.374C173.25 557.003 172.093 557.318 170.767 557.318C169.435 557.318 168.268 557.007 167.267 556.384C166.273 555.754 165.501 554.829 164.95 553.609C164.407 552.383 164.135 550.875 164.135 549.085V547.484C164.135 543.925 164.699 541.247 165.825 539.45C166.952 537.654 168.686 536.716 171.026 536.636C171.781 536.61 172.468 536.603 173.084 536.616C173.7 536.623 174.244 536.593 174.715 536.527C175.185 536.454 175.586 536.278 175.918 536ZM170.767 555.697C171.755 555.697 172.61 555.449 173.333 554.952C174.055 554.448 174.612 553.739 175.003 552.824C175.401 551.909 175.6 550.839 175.6 549.612C175.6 548.393 175.397 547.352 174.993 546.49C174.595 545.628 174.039 544.969 173.323 544.511C172.607 544.054 171.768 543.825 170.807 543.825C170.051 543.825 169.372 543.971 168.769 544.263C168.172 544.548 167.662 544.955 167.237 545.486C166.813 546.016 166.488 546.639 166.263 547.355C166.038 548.071 165.922 548.857 165.915 549.712C165.915 551.561 166.346 553.023 167.208 554.097C168.076 555.164 169.262 555.697 170.767 555.697ZM187.181 557.318C185.862 557.318 184.695 556.983 183.681 556.314C182.673 555.644 181.885 554.72 181.314 553.54C180.744 552.353 180.459 550.984 180.459 549.433C180.459 547.869 180.744 546.493 181.314 545.307C181.885 544.114 182.673 543.186 183.681 542.523C184.695 541.853 185.862 541.518 187.181 541.518C188.5 541.518 189.663 541.853 190.671 542.523C191.679 543.192 192.467 544.12 193.037 545.307C193.614 546.493 193.903 547.869 193.903 549.433C193.903 550.984 193.617 552.353 193.047 553.54C192.477 554.72 191.685 555.644 190.671 556.314C189.663 556.983 188.5 557.318 187.181 557.318ZM187.181 555.697C188.242 555.697 189.14 555.412 189.876 554.842C190.611 554.272 191.168 553.513 191.546 552.565C191.93 551.617 192.123 550.573 192.123 549.433C192.123 548.293 191.93 547.246 191.546 546.291C191.168 545.337 190.611 544.571 189.876 543.994C189.14 543.418 188.242 543.129 187.181 543.129C186.127 543.129 185.229 543.418 184.486 543.994C183.751 544.571 183.19 545.337 182.806 546.291C182.428 547.246 182.239 548.293 182.239 549.433C182.239 550.573 182.428 551.617 182.806 552.565C183.19 553.513 183.751 554.272 184.486 554.842C185.222 555.412 186.12 555.697 187.181 555.697ZM197.788 562.727V541.727H199.508V544.641H199.717C199.929 544.183 200.221 543.716 200.592 543.239C200.963 542.755 201.454 542.347 202.063 542.016C202.68 541.684 203.455 541.518 204.39 541.518C205.65 541.518 206.75 541.85 207.691 542.513C208.639 543.169 209.375 544.09 209.899 545.277C210.429 546.457 210.694 547.832 210.694 549.403C210.694 550.981 210.429 552.363 209.899 553.55C209.375 554.736 208.639 555.661 207.691 556.324C206.75 556.987 205.656 557.318 204.41 557.318C203.489 557.318 202.716 557.152 202.093 556.821C201.477 556.49 200.976 556.082 200.592 555.598C200.214 555.107 199.922 554.63 199.717 554.166H199.558V562.727H197.788ZM199.538 549.374C199.538 550.607 199.72 551.7 200.085 552.655C200.456 553.603 200.986 554.348 201.676 554.892C202.372 555.429 203.213 555.697 204.201 555.697C205.215 555.697 206.07 555.419 206.767 554.862C207.469 554.299 208.003 553.54 208.367 552.585C208.739 551.631 208.924 550.56 208.924 549.374C208.924 548.2 208.742 547.143 208.377 546.202C208.019 545.26 207.489 544.515 206.786 543.964C206.084 543.408 205.222 543.129 204.201 543.129C203.207 543.129 202.362 543.398 201.666 543.935C200.97 544.465 200.439 545.201 200.075 546.142C199.717 547.077 199.538 548.154 199.538 549.374ZM214.577 557V541.727H216.347V548.598H218.007L223.685 541.727H225.972L219.847 549.075L226.111 557H223.824L218.554 550.268H216.347V557H214.577ZM233.28 557.348C232.359 557.348 231.517 557.169 230.754 556.811C229.992 556.446 229.386 555.923 228.935 555.24C228.484 554.551 228.259 553.715 228.259 552.734C228.259 551.979 228.401 551.342 228.686 550.825C228.971 550.308 229.376 549.884 229.899 549.553C230.423 549.221 231.043 548.959 231.759 548.767C232.475 548.575 233.263 548.426 234.125 548.32C234.98 548.214 235.703 548.121 236.293 548.041C236.889 547.962 237.343 547.836 237.655 547.663C237.967 547.491 238.122 547.213 238.122 546.828V546.47C238.122 545.429 237.811 544.611 237.188 544.014C236.571 543.411 235.683 543.109 234.523 543.109C233.423 543.109 232.524 543.351 231.828 543.835C231.139 544.319 230.655 544.889 230.377 545.545L228.696 544.939C229.041 544.104 229.518 543.437 230.128 542.94C230.738 542.437 231.421 542.075 232.176 541.857C232.932 541.631 233.698 541.518 234.473 541.518C235.057 541.518 235.663 541.595 236.293 541.747C236.929 541.9 237.519 542.165 238.063 542.543C238.606 542.914 239.047 543.434 239.385 544.104C239.723 544.767 239.892 545.608 239.892 546.629V557H238.122V554.584H238.013C237.801 555.035 237.486 555.472 237.068 555.896C236.651 556.321 236.127 556.669 235.497 556.94C234.868 557.212 234.128 557.348 233.28 557.348ZM233.519 555.727C234.46 555.727 235.275 555.518 235.965 555.101C236.654 554.683 237.184 554.13 237.556 553.44C237.933 552.744 238.122 551.979 238.122 551.143V548.936C237.99 549.062 237.768 549.175 237.456 549.274C237.151 549.374 236.797 549.463 236.392 549.543C235.994 549.616 235.597 549.679 235.199 549.732C234.801 549.785 234.443 549.831 234.125 549.871C233.263 549.977 232.528 550.143 231.918 550.368C231.308 550.593 230.841 550.905 230.516 551.303C230.191 551.694 230.029 552.197 230.029 552.814C230.029 553.742 230.36 554.461 231.023 554.972C231.686 555.475 232.518 555.727 233.519 555.727ZM260.46 554.524L266.197 541.727H267.917L261.166 557H259.754L253.082 541.727H254.772L260.46 554.524ZM254.245 541.727V557H252.475V541.727H254.245ZM266.674 557V541.727H268.444V557H266.674ZM279.322 557.318C277.897 557.318 276.664 556.987 275.623 556.324C274.582 555.654 273.777 554.73 273.207 553.55C272.643 552.363 272.362 550.998 272.362 549.453C272.362 547.915 272.643 546.55 273.207 545.357C273.777 544.157 274.562 543.219 275.563 542.543C276.571 541.86 277.734 541.518 279.053 541.518C279.882 541.518 280.681 541.671 281.45 541.976C282.219 542.274 282.908 542.735 283.518 543.358C284.134 543.974 284.622 544.753 284.98 545.695C285.338 546.629 285.517 547.736 285.517 549.016V549.891H273.585V548.33H283.707C283.707 547.348 283.508 546.467 283.11 545.685C282.719 544.896 282.172 544.273 281.47 543.815C280.774 543.358 279.968 543.129 279.053 543.129C278.086 543.129 277.234 543.388 276.498 543.905C275.762 544.422 275.186 545.105 274.768 545.953C274.357 546.802 274.148 547.73 274.142 548.737V549.672C274.142 550.885 274.35 551.946 274.768 552.854C275.192 553.755 275.792 554.455 276.568 554.952C277.343 555.449 278.261 555.697 279.322 555.697C280.044 555.697 280.677 555.585 281.221 555.359C281.771 555.134 282.232 554.832 282.603 554.455C282.981 554.07 283.266 553.649 283.458 553.192L285.139 553.739C284.907 554.382 284.526 554.975 283.995 555.518C283.472 556.062 282.815 556.5 282.026 556.831C281.244 557.156 280.343 557.318 279.322 557.318ZM300.414 536L301.339 537.124C300.921 537.528 300.421 537.806 299.837 537.959C299.26 538.105 298.614 538.187 297.898 538.207C297.189 538.227 296.423 538.257 295.601 538.297C294.421 538.357 293.45 538.665 292.688 539.222C291.926 539.772 291.346 540.567 290.948 541.608C290.557 542.642 290.312 543.905 290.212 545.396H290.411C290.921 544.356 291.641 543.563 292.569 543.02C293.503 542.476 294.531 542.205 295.651 542.205C296.824 542.205 297.878 542.493 298.813 543.07C299.754 543.64 300.497 544.478 301.04 545.585C301.59 546.686 301.866 548.028 301.866 549.612C301.866 551.177 301.59 552.539 301.04 553.699C300.49 554.852 299.721 555.744 298.733 556.374C297.746 557.003 296.589 557.318 295.263 557.318C293.931 557.318 292.764 557.007 291.763 556.384C290.769 555.754 289.997 554.829 289.447 553.609C288.903 552.383 288.631 550.875 288.631 549.085V547.484C288.631 543.925 289.195 541.247 290.322 539.45C291.448 537.654 293.182 536.716 295.522 536.636C296.278 536.61 296.964 536.603 297.58 536.616C298.197 536.623 298.74 536.593 299.211 536.527C299.681 536.454 300.082 536.278 300.414 536ZM295.263 555.697C296.251 555.697 297.106 555.449 297.829 554.952C298.551 554.448 299.108 553.739 299.499 552.824C299.897 551.909 300.096 550.839 300.096 549.612C300.096 548.393 299.894 547.352 299.489 546.49C299.091 545.628 298.535 544.969 297.819 544.511C297.103 544.054 296.264 543.825 295.303 543.825C294.547 543.825 293.868 543.971 293.265 544.263C292.668 544.548 292.158 544.955 291.733 545.486C291.309 546.016 290.984 546.639 290.759 547.355C290.534 548.071 290.418 548.857 290.411 549.712C290.411 551.561 290.842 553.023 291.704 554.097C292.572 555.164 293.759 555.697 295.263 555.697ZM311.916 557.318C310.49 557.318 309.258 556.987 308.217 556.324C307.176 555.654 306.371 554.73 305.801 553.55C305.237 552.363 304.955 550.998 304.955 549.453C304.955 547.915 305.237 546.55 305.801 545.357C306.371 544.157 307.156 543.219 308.157 542.543C309.165 541.86 310.328 541.518 311.647 541.518C312.476 541.518 313.275 541.671 314.044 541.976C314.812 542.274 315.502 542.735 316.112 543.358C316.728 543.974 317.215 544.753 317.573 545.695C317.931 546.629 318.11 547.736 318.11 549.016V549.891H306.178V548.33H316.301C316.301 547.348 316.102 546.467 315.704 545.685C315.313 544.896 314.766 544.273 314.063 543.815C313.367 543.358 312.562 543.129 311.647 543.129C310.679 543.129 309.828 543.388 309.092 543.905C308.356 544.422 307.779 545.105 307.362 545.953C306.951 546.802 306.742 547.73 306.735 548.737V549.672C306.735 550.885 306.944 551.946 307.362 552.854C307.786 553.755 308.386 554.455 309.161 554.952C309.937 555.449 310.855 555.697 311.916 555.697C312.638 555.697 313.271 555.585 313.815 555.359C314.365 555.134 314.826 554.832 315.197 554.455C315.575 554.07 315.86 553.649 316.052 553.192L317.732 553.739C317.5 554.382 317.119 554.975 316.589 555.518C316.065 556.062 315.409 556.5 314.62 556.831C313.838 557.156 312.936 557.318 311.916 557.318ZM320.509 557V555.33H320.986C321.53 555.33 321.967 555.23 322.299 555.031C322.637 554.826 322.899 554.481 323.084 553.997C323.27 553.513 323.409 552.854 323.502 552.018C323.595 551.183 323.668 550.136 323.721 548.876L324.049 541.727H333.753V557H331.974V543.398H325.729L325.441 549.473C325.381 550.713 325.282 551.803 325.143 552.744C325.01 553.686 324.791 554.471 324.486 555.101C324.188 555.731 323.77 556.205 323.233 556.523C322.703 556.841 322.007 557 321.145 557H320.509ZM340.214 554.484L348.278 541.727H350.396V557H348.626V544.243L340.592 557H338.444V541.727H340.214V554.484Z" fill="#271100"/>
<path d="M650.13 557V536.636H656.703C658.148 536.636 659.354 536.915 660.322 537.472C661.297 538.022 662.029 538.771 662.52 539.719C663.017 540.667 663.265 541.734 663.265 542.92C663.265 544.107 663.02 545.178 662.529 546.132C662.039 547.08 661.31 547.832 660.342 548.389C659.374 548.939 658.171 549.214 656.733 549.214H651.562V547.544H656.683C657.75 547.544 658.635 547.345 659.338 546.947C660.04 546.543 660.564 545.993 660.909 545.297C661.26 544.601 661.436 543.809 661.436 542.92C661.436 542.032 661.26 541.24 660.909 540.544C660.564 539.848 660.037 539.301 659.328 538.903C658.625 538.506 657.734 538.307 656.653 538.307H651.99V557H650.13ZM673.273 557.318C671.848 557.318 670.615 556.987 669.574 556.324C668.533 555.654 667.728 554.73 667.158 553.55C666.595 552.363 666.313 550.998 666.313 549.453C666.313 547.915 666.595 546.55 667.158 545.357C667.728 544.157 668.514 543.219 669.515 542.543C670.522 541.86 671.685 541.518 673.005 541.518C673.833 541.518 674.632 541.671 675.401 541.976C676.17 542.274 676.859 542.735 677.469 543.358C678.086 543.974 678.573 544.753 678.931 545.695C679.289 546.629 679.468 547.736 679.468 549.016V549.891H667.536V548.33H677.658C677.658 547.348 677.459 546.467 677.061 545.685C676.67 544.896 676.123 544.273 675.421 543.815C674.725 543.358 673.919 543.129 673.005 543.129C672.037 543.129 671.185 543.388 670.449 543.905C669.713 544.422 669.137 545.105 668.719 545.953C668.308 546.802 668.099 547.73 668.093 548.737V549.672C668.093 550.885 668.301 551.946 668.719 552.854C669.143 553.755 669.743 554.455 670.519 554.952C671.294 555.449 672.212 555.697 673.273 555.697C673.996 555.697 674.629 555.585 675.172 555.359C675.722 555.134 676.183 554.832 676.554 554.455C676.932 554.07 677.217 553.649 677.409 553.192L679.09 553.739C678.858 554.382 678.477 554.975 677.946 555.518C677.423 556.062 676.766 556.5 675.978 556.831C675.195 557.156 674.294 557.318 673.273 557.318ZM691.352 554.524L697.089 541.727H698.81L692.058 557H690.646L683.974 541.727H685.665L691.352 554.524ZM685.138 541.727V557H683.368V541.727H685.138ZM697.567 557V541.727H699.337V557H697.567ZM709.976 557.318C708.657 557.318 707.49 556.983 706.476 556.314C705.468 555.644 704.679 554.72 704.109 553.54C703.539 552.353 703.254 550.984 703.254 549.433C703.254 547.869 703.539 546.493 704.109 545.307C704.679 544.114 705.468 543.186 706.476 542.523C707.49 541.853 708.657 541.518 709.976 541.518C711.295 541.518 712.458 541.853 713.466 542.523C714.473 543.192 715.262 544.12 715.832 545.307C716.409 546.493 716.697 547.869 716.697 549.433C716.697 550.984 716.412 552.353 715.842 553.54C715.272 554.72 714.48 555.644 713.466 556.314C712.458 556.983 711.295 557.318 709.976 557.318ZM709.976 555.697C711.036 555.697 711.935 555.412 712.67 554.842C713.406 554.272 713.963 553.513 714.341 552.565C714.725 551.617 714.918 550.573 714.918 549.433C714.918 548.293 714.725 547.246 714.341 546.291C713.963 545.337 713.406 544.571 712.67 543.994C711.935 543.418 711.036 543.129 709.976 543.129C708.922 543.129 708.024 543.418 707.281 543.994C706.545 544.571 705.985 545.337 705.601 546.291C705.223 547.246 705.034 548.293 705.034 549.433C705.034 550.573 705.223 551.617 705.601 552.565C705.985 553.513 706.545 554.272 707.281 554.842C708.017 555.412 708.915 555.697 709.976 555.697ZM730.894 548.538V550.209H721.915V548.538H730.894ZM722.353 541.727V557H720.583V541.727H722.353ZM732.196 541.727V557H730.426V541.727H732.196ZM734.769 543.398V541.727H746.701V543.398H741.65V557H739.88V543.398H734.769ZM766.301 554.524L772.039 541.727H773.759L767.007 557H765.596L758.924 541.727H760.614L766.301 554.524ZM760.087 541.727V557H758.317V541.727H760.087ZM772.516 557V541.727H774.286V557H772.516ZM785.164 557.318C783.739 557.318 782.506 556.987 781.465 556.324C780.424 555.654 779.619 554.73 779.049 553.55C778.485 552.363 778.203 550.998 778.203 549.453C778.203 547.915 778.485 546.55 779.049 545.357C779.619 544.157 780.404 543.219 781.405 542.543C782.413 541.86 783.576 541.518 784.895 541.518C785.724 541.518 786.523 541.671 787.292 541.976C788.06 542.274 788.75 542.735 789.36 543.358C789.976 543.974 790.463 544.753 790.821 545.695C791.179 546.629 791.358 547.736 791.358 549.016V549.891H779.426V548.33H789.549C789.549 547.348 789.35 546.467 788.952 545.685C788.561 544.896 788.014 544.273 787.311 543.815C786.615 543.358 785.81 543.129 784.895 543.129C783.927 543.129 783.076 543.388 782.34 543.905C781.604 544.422 781.027 545.105 780.61 545.953C780.199 546.802 779.99 547.73 779.983 548.737V549.672C779.983 550.885 780.192 551.946 780.61 552.854C781.034 553.755 781.634 554.455 782.409 554.952C783.185 555.449 784.103 555.697 785.164 555.697C785.886 555.697 786.519 555.585 787.063 555.359C787.613 555.134 788.074 554.832 788.445 554.455C788.823 554.07 789.108 553.649 789.3 553.192L790.98 553.739C790.748 554.382 790.367 554.975 789.837 555.518C789.313 556.062 788.657 556.5 787.868 556.831C787.086 557.156 786.185 557.318 785.164 557.318ZM806.256 536L807.18 537.124C806.763 537.528 806.262 537.806 805.679 537.959C805.102 538.105 804.456 538.187 803.74 538.207C803.031 538.227 802.265 538.257 801.443 538.297C800.263 538.357 799.292 538.665 798.53 539.222C797.768 539.772 797.188 540.567 796.79 541.608C796.399 542.642 796.153 543.905 796.054 545.396H796.253C796.763 544.356 797.482 543.563 798.411 543.02C799.345 542.476 800.373 542.205 801.493 542.205C802.666 542.205 803.72 542.493 804.655 543.07C805.596 543.64 806.339 544.478 806.882 545.585C807.432 546.686 807.707 548.028 807.707 549.612C807.707 551.177 807.432 552.539 806.882 553.699C806.332 554.852 805.563 555.744 804.575 556.374C803.588 557.003 802.431 557.318 801.105 557.318C799.773 557.318 798.606 557.007 797.605 556.384C796.611 555.754 795.839 554.829 795.288 553.609C794.745 552.383 794.473 550.875 794.473 549.085V547.484C794.473 543.925 795.036 541.247 796.163 539.45C797.29 537.654 799.024 536.716 801.364 536.636C802.119 536.61 802.805 536.603 803.422 536.616C804.038 536.623 804.582 536.593 805.053 536.527C805.523 536.454 805.924 536.278 806.256 536ZM801.105 555.697C802.093 555.697 802.948 555.449 803.67 554.952C804.393 554.448 804.95 553.739 805.341 552.824C805.739 551.909 805.938 550.839 805.938 549.612C805.938 548.393 805.735 547.352 805.331 546.49C804.933 545.628 804.376 544.969 803.661 544.511C802.945 544.054 802.106 543.825 801.145 543.825C800.389 543.825 799.71 543.971 799.107 544.263C798.51 544.548 798 544.955 797.575 545.486C797.151 546.016 796.826 546.639 796.601 547.355C796.375 548.071 796.259 548.857 796.253 549.712C796.253 551.561 796.684 553.023 797.545 554.097C798.414 555.164 799.6 555.697 801.105 555.697ZM817.757 557.318C816.332 557.318 815.099 556.987 814.059 556.324C813.018 555.654 812.212 554.73 811.642 553.55C811.079 552.363 810.797 550.998 810.797 549.453C810.797 547.915 811.079 546.55 811.642 545.357C812.212 544.157 812.998 543.219 813.999 542.543C815.007 541.86 816.17 541.518 817.489 541.518C818.318 541.518 819.116 541.671 819.885 541.976C820.654 542.274 821.344 542.735 821.953 543.358C822.57 543.974 823.057 544.753 823.415 545.695C823.773 546.629 823.952 547.736 823.952 549.016V549.891H812.02V548.33H822.142C822.142 547.348 821.944 546.467 821.546 545.685C821.155 544.896 820.608 544.273 819.905 543.815C819.209 543.358 818.404 543.129 817.489 543.129C816.521 543.129 815.669 543.388 814.934 543.905C814.198 544.422 813.621 545.105 813.203 545.953C812.792 546.802 812.584 547.73 812.577 548.737V549.672C812.577 550.885 812.786 551.946 813.203 552.854C813.628 553.755 814.228 554.455 815.003 554.952C815.779 555.449 816.697 555.697 817.757 555.697C818.48 555.697 819.113 555.585 819.657 555.359C820.207 555.134 820.667 554.832 821.039 554.455C821.417 554.07 821.702 553.649 821.894 553.192L823.574 553.739C823.342 554.382 822.961 554.975 822.431 555.518C821.907 556.062 821.251 556.5 820.462 556.831C819.68 557.156 818.778 557.318 817.757 557.318ZM826.351 557V555.33H826.828C827.372 555.33 827.809 555.23 828.141 555.031C828.479 554.826 828.741 554.481 828.926 553.997C829.112 553.513 829.251 552.854 829.344 552.018C829.437 551.183 829.509 550.136 829.562 548.876L829.891 541.727H839.595V557H837.815V543.398H831.571L831.283 549.473C831.223 550.713 831.124 551.803 830.984 552.744C830.852 553.686 830.633 554.471 830.328 555.101C830.03 555.731 829.612 556.205 829.075 556.523C828.545 556.841 827.849 557 826.987 557H826.351ZM846.056 554.484L854.12 541.727H856.238V557H854.468V544.243L846.434 557H844.286V541.727H846.056V554.484Z" fill="#271100"/>
<path d="M358.484 325L356.384 314.78L357.644 311.14L361.004 325H358.484ZM351.764 323.068L357.644 311.14L357.924 315.62L352.604 325.868L351.764 323.068ZM352.604 325.868L347.368 315.62L347.648 311.14L353.444 323.068L352.604 325.868ZM344.288 325L347.648 311.14L348.908 314.78L346.808 325H344.288ZM363.564 319.12V317.216H372.16C372.086 316.544 371.899 315.956 371.6 315.452C371.32 314.929 370.919 314.528 370.396 314.248C369.892 313.949 369.267 313.8 368.52 313.8C367.774 313.8 367.092 313.959 366.476 314.276C365.86 314.593 365.366 315.051 364.992 315.648C364.638 316.227 364.46 316.917 364.46 317.72L364.404 318.56C364.404 319.549 364.572 320.389 364.908 321.08C365.244 321.771 365.72 322.293 366.336 322.648C366.952 323.003 367.68 323.18 368.52 323.18C369.155 323.18 369.715 323.087 370.2 322.9C370.704 322.695 371.152 322.424 371.544 322.088C371.936 321.733 372.272 321.323 372.552 320.856L374.372 322.004C373.943 322.657 373.467 323.236 372.944 323.74C372.422 324.225 371.787 324.608 371.04 324.888C370.294 325.149 369.36 325.28 368.24 325.28C367.083 325.28 366.038 324.991 365.104 324.412C364.19 323.833 363.462 323.04 362.92 322.032C362.398 321.005 362.136 319.848 362.136 318.56C362.136 318.317 362.146 318.084 362.164 317.86C362.183 317.636 362.211 317.412 362.248 317.188C362.435 316.124 362.808 315.191 363.368 314.388C363.928 313.585 364.647 312.96 365.524 312.512C366.42 312.064 367.419 311.84 368.52 311.84C369.734 311.84 370.798 312.111 371.712 312.652C372.627 313.193 373.336 313.959 373.84 314.948C374.344 315.919 374.596 317.085 374.596 318.448C374.596 318.56 374.596 318.672 374.596 318.784C374.596 318.896 374.587 319.008 374.568 319.12H363.564ZM383.21 313.94V311.84C384.48 311.84 385.609 312.129 386.598 312.708C387.606 313.287 388.4 314.08 388.978 315.088C389.576 316.096 389.874 317.253 389.874 318.56C389.874 319.848 389.576 321.005 388.978 322.032C388.4 323.04 387.606 323.833 386.598 324.412C385.609 324.991 384.48 325.28 383.21 325.28C381.96 325.28 380.83 324.972 379.822 324.356C378.814 323.721 378.012 322.779 377.414 321.528C376.836 320.277 376.546 318.728 376.546 316.88L378.786 318.56C378.786 319.456 378.982 320.249 379.374 320.94C379.766 321.631 380.289 322.181 380.942 322.592C381.614 322.984 382.37 323.18 383.21 323.18C384.05 323.18 384.797 322.984 385.45 322.592C386.122 322.181 386.645 321.631 387.018 320.94C387.41 320.249 387.606 319.456 387.606 318.56C387.606 317.664 387.41 316.871 387.018 316.18C386.645 315.471 386.122 314.92 385.45 314.528C384.797 314.136 384.05 313.94 383.21 313.94ZM377.778 318.56C377.778 317.515 377.909 316.581 378.17 315.76C378.432 314.92 378.805 314.211 379.29 313.632C379.776 313.053 380.345 312.615 380.998 312.316C381.67 311.999 382.408 311.84 383.21 311.84V313.94C382.725 313.94 382.221 314.043 381.698 314.248C381.176 314.453 380.69 314.752 380.242 315.144C379.813 315.536 379.458 316.021 379.178 316.6C378.917 317.16 378.786 317.813 378.786 318.56H377.778ZM376.546 316.88C376.546 315.125 376.714 313.576 377.05 312.232C377.386 310.888 377.974 309.749 378.814 308.816C379.673 307.864 380.849 307.136 382.342 306.632C383.612 306.203 384.554 305.689 385.17 305.092C385.805 304.476 386.188 303.832 386.318 303.16H388.53C388.437 303.981 388.138 304.737 387.634 305.428C387.13 306.1 386.468 306.688 385.646 307.192C384.844 307.696 383.929 308.116 382.902 308.452C381.745 308.825 380.84 309.385 380.186 310.132C379.552 310.879 379.113 311.728 378.87 312.68C378.628 313.613 378.506 314.547 378.506 315.48V318.364L376.546 316.88ZM393.26 319.12V317.216H401.856C401.781 316.544 401.594 315.956 401.296 315.452C401.016 314.929 400.614 314.528 400.092 314.248C399.588 313.949 398.962 313.8 398.216 313.8C397.469 313.8 396.788 313.959 396.172 314.276C395.556 314.593 395.061 315.051 394.688 315.648C394.333 316.227 394.156 316.917 394.156 317.72L394.1 318.56C394.1 319.549 394.268 320.389 394.604 321.08C394.94 321.771 395.416 322.293 396.032 322.648C396.648 323.003 397.376 323.18 398.216 323.18C398.85 323.18 399.41 323.087 399.896 322.9C400.4 322.695 400.848 322.424 401.24 322.088C401.632 321.733 401.968 321.323 402.248 320.856L404.068 322.004C403.638 322.657 403.162 323.236 402.64 323.74C402.117 324.225 401.482 324.608 400.736 324.888C399.989 325.149 399.056 325.28 397.936 325.28C396.778 325.28 395.733 324.991 394.8 324.412C393.885 323.833 393.157 323.04 392.616 322.032C392.093 321.005 391.832 319.848 391.832 318.56C391.832 318.317 391.841 318.084 391.86 317.86C391.878 317.636 391.906 317.412 391.944 317.188C392.13 316.124 392.504 315.191 393.064 314.388C393.624 313.585 394.342 312.96 395.22 312.512C396.116 312.064 397.114 311.84 398.216 311.84C399.429 311.84 400.493 312.111 401.408 312.652C402.322 313.193 403.032 313.959 403.536 314.948C404.04 315.919 404.292 317.085 404.292 318.448C404.292 318.56 404.292 318.672 404.292 318.784C404.292 318.896 404.282 319.008 404.264 319.12H393.26ZM418.646 312.12V325H416.406V314.22H409.826V320.52C409.826 321.528 409.667 322.368 409.35 323.04C409.051 323.693 408.584 324.188 407.95 324.524C407.315 324.841 406.512 325 405.542 325V322.956C406.102 322.956 406.578 322.779 406.97 322.424C407.38 322.069 407.586 321.435 407.586 320.52V312.12H418.646ZM422.975 312.12H425.215V325H422.975V312.12ZM424.291 318.952V316.992H428.295C429.62 316.992 430.731 317.319 431.627 317.972C432.542 318.607 432.999 319.615 432.999 320.996C432.999 321.911 432.794 322.667 432.383 323.264C431.972 323.861 431.412 324.3 430.703 324.58C429.994 324.86 429.191 325 428.295 325H424.291V323.04H428.295C428.836 323.04 429.284 322.965 429.639 322.816C430.012 322.648 430.292 322.415 430.479 322.116C430.666 321.799 430.759 321.425 430.759 320.996C430.759 320.343 430.554 319.839 430.143 319.484C429.732 319.129 429.116 318.952 428.295 318.952H424.291ZM437.826 319.26V317.16H447.346V319.26H437.826ZM445.89 312.12H448.13V325H445.89V312.12ZM436.51 312.12H438.75V325H436.51V312.12ZM451.222 318.56C451.222 317.253 451.512 316.096 452.09 315.088C452.688 314.08 453.49 313.287 454.498 312.708C455.506 312.129 456.636 311.84 457.886 311.84C459.156 311.84 460.285 312.129 461.274 312.708C462.282 313.287 463.076 314.08 463.654 315.088C464.252 316.096 464.55 317.253 464.55 318.56C464.55 319.848 464.252 321.005 463.654 322.032C463.076 323.04 462.282 323.833 461.274 324.412C460.285 324.991 459.156 325.28 457.886 325.28C456.636 325.28 455.506 324.991 454.498 324.412C453.49 323.833 452.688 323.04 452.09 322.032C451.512 321.005 451.222 319.848 451.222 318.56ZM453.49 318.56C453.49 319.456 453.677 320.249 454.05 320.94C454.442 321.631 454.965 322.181 455.618 322.592C456.29 322.984 457.046 323.18 457.886 323.18C458.726 323.18 459.473 322.984 460.126 322.592C460.798 322.181 461.321 321.631 461.694 320.94C462.086 320.249 462.282 319.456 462.282 318.56C462.282 317.664 462.086 316.871 461.694 316.18C461.321 315.471 460.798 314.92 460.126 314.528C459.473 314.136 458.726 313.94 457.886 313.94C457.046 313.94 456.29 314.136 455.618 314.528C454.965 314.92 454.442 315.471 454.05 316.18C453.677 316.871 453.49 317.664 453.49 318.56ZM467.935 319.12V317.216H476.531C476.457 316.544 476.27 315.956 475.971 315.452C475.691 314.929 475.29 314.528 474.767 314.248C474.263 313.949 473.638 313.8 472.891 313.8C472.145 313.8 471.463 313.959 470.847 314.276C470.231 314.593 469.737 315.051 469.363 315.648C469.009 316.227 468.831 316.917 468.831 317.72L468.775 318.56C468.775 319.549 468.943 320.389 469.279 321.08C469.615 321.771 470.091 322.293 470.707 322.648C471.323 323.003 472.051 323.18 472.891 323.18C473.526 323.18 474.086 323.087 474.571 322.9C475.075 322.695 475.523 322.424 475.915 322.088C476.307 321.733 476.643 321.323 476.923 320.856L478.743 322.004C478.314 322.657 477.838 323.236 477.315 323.74C476.793 324.225 476.158 324.608 475.411 324.888C474.665 325.149 473.731 325.28 472.611 325.28C471.454 325.28 470.409 324.991 469.475 324.412C468.561 323.833 467.833 323.04 467.291 322.032C466.769 321.005 466.507 319.848 466.507 318.56C466.507 318.317 466.517 318.084 466.535 317.86C466.554 317.636 466.582 317.412 466.619 317.188C466.806 316.124 467.179 315.191 467.739 314.388C468.299 313.585 469.018 312.96 469.895 312.512C470.791 312.064 471.79 311.84 472.891 311.84C474.105 311.84 475.169 312.111 476.083 312.652C476.998 313.193 477.707 313.959 478.211 314.948C478.715 315.919 478.967 317.085 478.967 318.448C478.967 318.56 478.967 318.672 478.967 318.784C478.967 318.896 478.958 319.008 478.939 319.12H467.935ZM500.932 312.12V325H498.692V314.22H492.672V325H490.432V312.12H500.932ZM507.243 331.16H505.003V312.12H507.243V331.16ZM518.023 318.56C518.023 319.941 517.734 321.136 517.155 322.144C516.576 323.152 515.802 323.927 514.831 324.468C513.879 325.009 512.815 325.28 511.639 325.28C510.575 325.28 509.632 325.009 508.811 324.468C508.008 323.927 507.374 323.152 506.907 322.144C506.459 321.136 506.235 319.941 506.235 318.56C506.235 317.16 506.459 315.965 506.907 314.976C507.374 313.968 508.008 313.193 508.811 312.652C509.632 312.111 510.575 311.84 511.639 311.84C512.815 311.84 513.879 312.111 514.831 312.652C515.802 313.193 516.576 313.968 517.155 314.976C517.734 315.965 518.023 317.16 518.023 318.56ZM515.755 318.56C515.755 317.571 515.55 316.731 515.139 316.04C514.747 315.349 514.215 314.827 513.543 314.472C512.89 314.117 512.162 313.94 511.359 313.94C510.706 313.94 510.062 314.117 509.427 314.472C508.792 314.827 508.27 315.349 507.859 316.04C507.448 316.731 507.243 317.571 507.243 318.56C507.243 319.549 507.448 320.389 507.859 321.08C508.27 321.771 508.792 322.293 509.427 322.648C510.062 323.003 510.706 323.18 511.359 323.18C512.162 323.18 512.89 323.003 513.543 322.648C514.215 322.293 514.747 321.771 515.139 321.08C515.55 320.389 515.755 319.549 515.755 318.56ZM519.992 318.56C519.992 317.253 520.281 316.096 520.86 315.088C521.457 314.08 522.26 313.287 523.268 312.708C524.276 312.129 525.405 311.84 526.656 311.84C527.925 311.84 529.054 312.129 530.044 312.708C531.052 313.287 531.845 314.08 532.424 315.088C533.021 316.096 533.32 317.253 533.32 318.56C533.32 319.848 533.021 321.005 532.424 322.032C531.845 323.04 531.052 323.833 530.044 324.412C529.054 324.991 527.925 325.28 526.656 325.28C525.405 325.28 524.276 324.991 523.268 324.412C522.26 323.833 521.457 323.04 520.86 322.032C520.281 321.005 519.992 319.848 519.992 318.56ZM522.26 318.56C522.26 319.456 522.446 320.249 522.82 320.94C523.212 321.631 523.734 322.181 524.388 322.592C525.06 322.984 525.816 323.18 526.656 323.18C527.496 323.18 528.242 322.984 528.896 322.592C529.568 322.181 530.09 321.631 530.464 320.94C530.856 320.249 531.052 319.456 531.052 318.56C531.052 317.664 530.856 316.871 530.464 316.18C530.09 315.471 529.568 314.92 528.896 314.528C528.242 314.136 527.496 313.94 526.656 313.94C525.816 313.94 525.06 314.136 524.388 314.528C523.734 314.92 523.212 315.471 522.82 316.18C522.446 316.871 522.26 317.664 522.26 318.56ZM547.177 314.36L536.537 325.98L536.677 322.76L547.317 311.14L547.177 314.36ZM538.777 312.12V322.9L536.537 325.98V312.12H538.777ZM547.317 311.14V325H545.077V314.22L547.317 311.14ZM556.219 318.56V317.16C557.077 317.16 557.693 317.001 558.067 316.684C558.44 316.348 558.627 315.947 558.627 315.48C558.627 314.976 558.44 314.584 558.067 314.304C557.693 314.005 557.171 313.856 556.499 313.856C555.939 313.856 555.472 313.968 555.099 314.192C554.744 314.397 554.483 314.659 554.315 314.976C554.147 315.275 554.063 315.573 554.063 315.872H551.795C551.795 315.144 552 314.472 552.411 313.856C552.821 313.24 553.381 312.755 554.091 312.4C554.8 312.027 555.603 311.84 556.499 311.84C557.339 311.84 558.095 311.999 558.767 312.316C559.439 312.633 559.961 313.053 560.335 313.576C560.727 314.099 560.923 314.677 560.923 315.312C560.923 316.245 560.503 317.02 559.663 317.636C558.841 318.252 557.693 318.56 556.219 318.56ZM556.443 325.28C554.931 325.28 553.717 324.869 552.803 324.048C551.907 323.227 551.384 322.191 551.235 320.94H553.503C553.633 321.556 553.913 322.107 554.343 322.592C554.772 323.077 555.472 323.32 556.443 323.32C557.04 323.32 557.544 323.236 557.955 323.068C558.384 322.9 558.711 322.657 558.935 322.34C559.159 322.023 559.271 321.659 559.271 321.248C559.271 320.8 559.149 320.417 558.907 320.1C558.683 319.783 558.337 319.54 557.871 319.372C557.423 319.204 556.872 319.12 556.219 319.12V317.72C557.824 317.72 559.103 318 560.055 318.56C561.007 319.12 561.483 320.007 561.483 321.22C561.483 322.06 561.249 322.788 560.783 323.404C560.335 324.001 559.728 324.468 558.963 324.804C558.197 325.121 557.357 325.28 556.443 325.28ZM566.15 318.28H569.874C570.77 318.28 571.573 318.373 572.282 318.56C572.992 318.747 573.552 319.073 573.962 319.54C574.373 320.007 574.578 320.66 574.578 321.5C574.578 322.471 574.252 323.301 573.598 323.992C572.964 324.664 571.909 325 570.434 325H566.15V323.04H569.874C570.714 323.04 571.33 322.863 571.722 322.508C572.133 322.153 572.338 321.724 572.338 321.22C572.338 320.959 572.282 320.725 572.17 320.52C572.077 320.315 571.928 320.128 571.722 319.96C571.536 319.792 571.284 319.671 570.966 319.596C570.668 319.503 570.304 319.456 569.874 319.456H566.15V318.28ZM566.15 318.84V317.524H569.594C569.93 317.524 570.229 317.487 570.49 317.412C570.77 317.319 571.004 317.188 571.19 317.02C571.377 316.852 571.517 316.665 571.61 316.46C571.722 316.236 571.778 316.003 571.778 315.76C571.778 315.256 571.582 314.855 571.19 314.556C570.798 314.239 570.266 314.08 569.594 314.08H566.15V312.12H569.594C570.397 312.12 571.125 312.241 571.778 312.484C572.45 312.708 572.992 313.081 573.402 313.604C573.813 314.108 574.018 314.78 574.018 315.62C574.018 316.348 573.813 316.955 573.402 317.44C572.992 317.907 572.45 318.261 571.778 318.504C571.125 318.728 570.397 318.84 569.594 318.84H566.15ZM564.834 312.12H567.074V325H564.834V312.12ZM576.402 318.56C576.402 317.253 576.691 316.096 577.27 315.088C577.867 314.08 578.67 313.287 579.678 312.708C580.686 312.129 581.815 311.84 583.066 311.84C584.335 311.84 585.465 312.129 586.454 312.708C587.462 313.287 588.255 314.08 588.834 315.088C589.431 316.096 589.73 317.253 589.73 318.56C589.73 319.848 589.431 321.005 588.834 322.032C588.255 323.04 587.462 323.833 586.454 324.412C585.465 324.991 584.335 325.28 583.066 325.28C581.815 325.28 580.686 324.991 579.678 324.412C578.67 323.833 577.867 323.04 577.27 322.032C576.691 321.005 576.402 319.848 576.402 318.56ZM578.67 318.56C578.67 319.456 578.857 320.249 579.23 320.94C579.622 321.631 580.145 322.181 580.798 322.592C581.47 322.984 582.226 323.18 583.066 323.18C583.906 323.18 584.653 322.984 585.306 322.592C585.978 322.181 586.501 321.631 586.874 320.94C587.266 320.249 587.462 319.456 587.462 318.56C587.462 317.664 587.266 316.871 586.874 316.18C586.501 315.471 585.978 314.92 585.306 314.528C584.653 314.136 583.906 313.94 583.066 313.94C582.226 313.94 581.47 314.136 580.798 314.528C580.145 314.92 579.622 315.471 579.23 316.18C578.857 316.871 578.67 317.664 578.67 318.56ZM598.413 315.984L594.633 324.16H592.113L598.413 311.14L604.713 324.16H602.193L598.413 315.984ZM604.153 325H592.812V327.52H590.433V322.9H606.393V327.52H604.153V325ZM610.768 318.56C610.768 319.456 610.955 320.249 611.328 320.94C611.72 321.631 612.243 322.181 612.896 322.592C613.568 322.984 614.324 323.18 615.164 323.18C615.855 323.18 616.499 323.077 617.096 322.872C617.712 322.648 618.244 322.359 618.692 322.004C619.14 321.631 619.457 321.239 619.644 320.828V323.628C619.196 324.151 618.552 324.561 617.712 324.86C616.891 325.14 616.041 325.28 615.164 325.28C613.913 325.28 612.784 324.991 611.776 324.412C610.768 323.833 609.965 323.04 609.368 322.032C608.789 321.005 608.5 319.848 608.5 318.56C608.5 317.253 608.789 316.096 609.368 315.088C609.965 314.08 610.768 313.287 611.776 312.708C612.784 312.129 613.913 311.84 615.164 311.84C616.041 311.84 616.891 311.989 617.712 312.288C618.552 312.568 619.196 312.969 619.644 313.492V316.292C619.457 315.863 619.14 315.471 618.692 315.116C618.244 314.761 617.712 314.481 617.096 314.276C616.499 314.052 615.855 313.94 615.164 313.94C614.324 313.94 613.568 314.136 612.896 314.528C612.243 314.92 611.72 315.471 611.328 316.18C610.955 316.871 610.768 317.664 610.768 318.56ZM621.171 312.12H628.731V314.22H621.171V312.12ZM623.831 312.68H626.071V325H623.831V312.68ZM632.295 318.28H636.019C636.915 318.28 637.718 318.373 638.427 318.56C639.136 318.747 639.696 319.073 640.107 319.54C640.518 320.007 640.723 320.66 640.723 321.5C640.723 322.471 640.396 323.301 639.743 323.992C639.108 324.664 638.054 325 636.579 325H632.295V323.04H636.019C636.859 323.04 637.475 322.863 637.867 322.508C638.278 322.153 638.483 321.724 638.483 321.22C638.483 320.959 638.427 320.725 638.315 320.52C638.222 320.315 638.072 320.128 637.867 319.96C637.68 319.792 637.428 319.671 637.111 319.596C636.812 319.503 636.448 319.456 636.019 319.456H632.295V318.28ZM632.295 318.84V317.524H635.739C636.075 317.524 636.374 317.487 636.635 317.412C636.915 317.319 637.148 317.188 637.335 317.02C637.522 316.852 637.662 316.665 637.755 316.46C637.867 316.236 637.923 316.003 637.923 315.76C637.923 315.256 637.727 314.855 637.335 314.556C636.943 314.239 636.411 314.08 635.739 314.08H632.295V312.12H635.739C636.542 312.12 637.27 312.241 637.923 312.484C638.595 312.708 639.136 313.081 639.547 313.604C639.958 314.108 640.163 314.78 640.163 315.62C640.163 316.348 639.958 316.955 639.547 317.44C639.136 317.907 638.595 318.261 637.923 318.504C637.27 318.728 636.542 318.84 635.739 318.84H632.295ZM630.979 312.12H633.219V325H630.979V312.12ZM642.546 318.56C642.546 317.253 642.836 316.096 643.414 315.088C644.012 314.08 644.814 313.287 645.822 312.708C646.83 312.129 647.96 311.84 649.21 311.84C650.48 311.84 651.609 312.129 652.598 312.708C653.606 313.287 654.4 314.08 654.978 315.088C655.576 316.096 655.874 317.253 655.874 318.56C655.874 319.848 655.576 321.005 654.978 322.032C654.4 323.04 653.606 323.833 652.598 324.412C651.609 324.991 650.48 325.28 649.21 325.28C647.96 325.28 646.83 324.991 645.822 324.412C644.814 323.833 644.012 323.04 643.414 322.032C642.836 321.005 642.546 319.848 642.546 318.56ZM644.814 318.56C644.814 319.456 645.001 320.249 645.374 320.94C645.766 321.631 646.289 322.181 646.942 322.592C647.614 322.984 648.37 323.18 649.21 323.18C650.05 323.18 650.797 322.984 651.45 322.592C652.122 322.181 652.645 321.631 653.018 320.94C653.41 320.249 653.606 319.456 653.606 318.56C653.606 317.664 653.41 316.871 653.018 316.18C652.645 315.471 652.122 314.92 651.45 314.528C650.797 314.136 650.05 313.94 649.21 313.94C648.37 313.94 647.614 314.136 646.942 314.528C646.289 314.92 645.766 315.471 645.374 316.18C645.001 316.871 644.814 317.664 644.814 318.56Z" fill="black"/>
<path d="M387.2 279.28L385.4 295H379.44L383.6 265.6L395.32 283.68L407.04 265.6L411.2 295H405.24L403.44 279.28L395.32 292.4L387.2 279.28ZM419.368 295V290.16H433.488V295H419.368ZM419.368 271.84V267H433.488V271.84H419.368ZM419.368 282.52V277.76H432.688V282.52H419.368ZM415.688 267H421.208V295H415.688V267ZM441.166 282.52V277.76H450.326C452.139 277.76 453.753 278.12 455.166 278.84C456.606 279.533 457.739 280.533 458.566 281.84C459.419 283.12 459.846 284.627 459.846 286.36C459.846 288.067 459.419 289.573 458.566 290.88C457.739 292.187 456.606 293.2 455.166 293.92C453.753 294.64 452.139 295 450.326 295H441.166V290.16H449.286C450.246 290.16 451.086 290.027 451.806 289.76C452.526 289.467 453.073 289.04 453.446 288.48C453.846 287.92 454.046 287.213 454.046 286.36C454.046 285.48 453.846 284.76 453.446 284.2C453.073 283.64 452.526 283.227 451.806 282.96C451.086 282.667 450.246 282.52 449.286 282.52H441.166ZM439.286 267H457.726V271.84H445.086V295H439.286V267ZM468.158 295V290.16H482.278V295H468.158ZM468.158 271.84V267H482.278V271.84H468.158ZM468.158 282.52V277.76H481.478V282.52H468.158ZM464.478 267H469.998V295H464.478V267ZM511.075 267V295H505.275V272.16H495.035V283.84C495.035 286.187 494.688 288.2 493.995 289.88C493.328 291.533 492.275 292.8 490.835 293.68C489.395 294.56 487.542 295 485.275 295V290.16C485.915 290.16 486.488 290.013 486.995 289.72C487.502 289.427 487.928 289 488.275 288.44C488.622 287.88 488.888 287.213 489.075 286.44C489.262 285.667 489.355 284.813 489.355 283.88V267H511.075ZM542.569 273.04L517.329 296.4L517.529 288.96L542.769 265.6L542.569 273.04ZM522.849 267V290.44L517.329 296.4V267H522.849ZM542.769 265.6V295H537.249V271.72L542.769 265.6ZM548.853 267H554.733V295H548.853V267ZM564.693 267H571.493L559.893 280.12L572.093 295H565.133L553.053 280.28L564.693 267ZM595.341 285.96C595.341 287.613 595.034 289.04 594.421 290.24C593.807 291.44 592.981 292.427 591.941 293.2C590.901 293.973 589.741 294.547 588.461 294.92C587.181 295.293 585.861 295.48 584.501 295.48C582.794 295.48 581.261 295.28 579.901 294.88C578.567 294.48 577.394 293.96 576.381 293.32C575.367 292.653 574.474 291.933 573.701 291.16L576.381 286.72C577.047 287.387 577.767 287.987 578.541 288.52C579.341 289.053 580.167 289.48 581.021 289.8C581.874 290.093 582.687 290.24 583.461 290.24C584.661 290.24 585.674 290.053 586.501 289.68C587.354 289.307 588.007 288.773 588.461 288.08C588.914 287.36 589.141 286.48 589.141 285.44C589.141 284.427 588.874 283.573 588.341 282.88C587.834 282.187 587.141 281.667 586.261 281.32C585.407 280.947 584.474 280.76 583.461 280.76C582.714 280.76 581.927 280.827 581.101 280.96C580.274 281.067 579.421 281.267 578.541 281.56C577.687 281.827 576.781 282.227 575.821 282.76L579.661 267H594.901V271.96H583.901L582.221 277.72C582.914 277.347 583.647 277.093 584.421 276.96C585.221 276.8 586.034 276.72 586.861 276.72C588.381 276.72 589.781 277.093 591.061 277.84C592.341 278.587 593.367 279.653 594.141 281.04C594.941 282.4 595.341 284.04 595.341 285.96ZM604.545 285.36C604.545 286.427 604.772 287.36 605.225 288.16C605.679 288.933 606.292 289.547 607.065 290C607.865 290.427 608.759 290.64 609.745 290.64C610.732 290.64 611.612 290.427 612.385 290C613.185 289.547 613.812 288.933 614.265 288.16C614.719 287.36 614.945 286.427 614.945 285.36C614.945 284.32 614.719 283.4 614.265 282.6C613.812 281.773 613.185 281.147 612.385 280.72C611.612 280.267 610.732 280.04 609.745 280.04C608.759 280.04 607.865 280.267 607.065 280.72C606.292 281.147 605.679 281.773 605.225 282.6C604.772 283.4 604.545 284.32 604.545 285.36ZM610.225 267.08H617.465L608.505 277.64L607.465 278C608.159 277.28 608.839 276.813 609.505 276.6C610.199 276.387 611.039 276.28 612.025 276.28C613.092 276.28 614.132 276.493 615.145 276.92C616.185 277.347 617.105 277.96 617.905 278.76C618.705 279.56 619.345 280.52 619.825 281.64C620.305 282.76 620.545 284 620.545 285.36C620.545 287.547 620.052 289.4 619.065 290.92C618.105 292.44 616.812 293.6 615.185 294.4C613.559 295.173 611.745 295.56 609.745 295.56C607.745 295.56 605.932 295.173 604.305 294.4C602.679 293.6 601.372 292.44 600.385 290.92C599.425 289.4 598.945 287.547 598.945 285.36C598.945 283.973 599.212 282.693 599.745 281.52C600.279 280.32 600.945 279.213 601.745 278.2L610.225 267.08Z" fill="#271100"/>
</svg>
