<svg width="1004" height="565" viewBox="0 0 1004 565" fill="none" xmlns="http://www.w3.org/2000/svg">
<mask id="path-1-inside-1_62_2" fill="white">
<rect width="1004" height="565" rx="1"/>
</mask>
<rect width="1004" height="565" rx="1" fill="#271100" fill-opacity="0.9" stroke="white" stroke-width="6" mask="url(#path-1-inside-1_62_2)"/>
<path d="M348.943 304.909V306.955H341.545V304.909H348.943ZM343.574 318V303.392C343.574 302.574 343.753 301.895 344.111 301.355C344.469 300.81 344.943 300.403 345.534 300.136C346.125 299.864 346.767 299.727 347.46 299.727C347.972 299.727 348.409 299.77 348.773 299.855C349.136 299.935 349.406 300.009 349.582 300.077L348.986 302.139C348.866 302.105 348.713 302.065 348.526 302.02C348.338 301.969 348.111 301.943 347.844 301.943C347.224 301.943 346.781 302.097 346.514 302.403C346.253 302.71 346.122 303.153 346.122 303.733V318H343.574ZM354.984 318.29C354.154 318.29 353.404 318.136 352.734 317.83C352.063 317.517 351.532 317.065 351.14 316.474C350.754 315.884 350.56 315.159 350.56 314.301C350.56 313.562 350.702 312.955 350.987 312.477C351.271 312 351.654 311.622 352.137 311.344C352.62 311.065 353.16 310.855 353.756 310.713C354.353 310.571 354.961 310.463 355.58 310.389C356.364 310.298 357.001 310.224 357.489 310.168C357.978 310.105 358.333 310.006 358.555 309.869C358.776 309.733 358.887 309.511 358.887 309.205V309.145C358.887 308.401 358.677 307.824 358.256 307.415C357.842 307.006 357.222 306.801 356.398 306.801C355.54 306.801 354.864 306.991 354.37 307.372C353.881 307.747 353.543 308.165 353.356 308.625L350.961 308.08C351.245 307.284 351.66 306.642 352.205 306.153C352.756 305.659 353.39 305.301 354.106 305.08C354.822 304.852 355.575 304.739 356.364 304.739C356.887 304.739 357.441 304.801 358.026 304.926C358.617 305.045 359.168 305.267 359.68 305.591C360.197 305.915 360.62 306.378 360.95 306.98C361.279 307.577 361.444 308.352 361.444 309.307V318H358.955V316.21H358.853C358.688 316.54 358.441 316.864 358.112 317.182C357.782 317.5 357.359 317.764 356.842 317.974C356.325 318.185 355.705 318.29 354.984 318.29ZM355.538 316.244C356.242 316.244 356.844 316.105 357.344 315.827C357.85 315.548 358.234 315.185 358.495 314.736C358.762 314.281 358.896 313.795 358.896 313.278V311.591C358.805 311.682 358.629 311.767 358.367 311.847C358.112 311.92 357.819 311.986 357.489 312.043C357.16 312.094 356.839 312.142 356.526 312.188C356.214 312.227 355.952 312.261 355.742 312.29C355.248 312.352 354.796 312.457 354.387 312.605C353.984 312.753 353.66 312.966 353.415 313.244C353.177 313.517 353.058 313.881 353.058 314.335C353.058 314.966 353.29 315.443 353.756 315.767C354.222 316.085 354.816 316.244 355.538 316.244ZM370.352 318.264C369.085 318.264 367.994 317.977 367.08 317.403C366.17 316.824 365.472 316.026 364.983 315.009C364.494 313.991 364.25 312.827 364.25 311.514C364.25 310.185 364.5 309.011 365 307.994C365.5 306.972 366.205 306.173 367.114 305.599C368.023 305.026 369.094 304.739 370.327 304.739C371.321 304.739 372.207 304.923 372.986 305.293C373.764 305.656 374.392 306.168 374.869 306.827C375.352 307.486 375.639 308.256 375.73 309.136H373.25C373.114 308.523 372.801 307.994 372.312 307.551C371.83 307.108 371.182 306.886 370.369 306.886C369.659 306.886 369.037 307.074 368.503 307.449C367.974 307.818 367.563 308.347 367.267 309.034C366.972 309.716 366.824 310.523 366.824 311.455C366.824 312.409 366.969 313.233 367.259 313.926C367.548 314.619 367.957 315.156 368.486 315.537C369.02 315.918 369.648 316.108 370.369 316.108C370.852 316.108 371.29 316.02 371.682 315.844C372.08 315.662 372.412 315.403 372.679 315.068C372.952 314.733 373.142 314.33 373.25 313.858H375.73C375.639 314.705 375.364 315.46 374.903 316.125C374.443 316.79 373.827 317.312 373.054 317.693C372.287 318.074 371.386 318.264 370.352 318.264ZM384.566 304.909V306.955H377.415V304.909H384.566ZM379.333 301.773H381.881V314.156C381.881 314.651 381.955 315.023 382.103 315.273C382.251 315.517 382.441 315.685 382.674 315.776C382.913 315.861 383.171 315.903 383.45 315.903C383.654 315.903 383.833 315.889 383.987 315.861C384.14 315.832 384.259 315.81 384.344 315.793L384.805 317.898C384.657 317.955 384.447 318.011 384.174 318.068C383.901 318.131 383.56 318.165 383.151 318.17C382.481 318.182 381.856 318.062 381.276 317.812C380.697 317.562 380.228 317.176 379.87 316.653C379.512 316.131 379.333 315.474 379.333 314.685V301.773ZM392.759 318.264C391.531 318.264 390.46 317.983 389.545 317.42C388.631 316.858 387.92 316.071 387.415 315.06C386.909 314.048 386.656 312.866 386.656 311.514C386.656 310.156 386.909 308.969 387.415 307.952C387.92 306.935 388.631 306.145 389.545 305.582C390.46 305.02 391.531 304.739 392.759 304.739C393.986 304.739 395.057 305.02 395.972 305.582C396.886 306.145 397.597 306.935 398.102 307.952C398.608 308.969 398.861 310.156 398.861 311.514C398.861 312.866 398.608 314.048 398.102 315.06C397.597 316.071 396.886 316.858 395.972 317.42C395.057 317.983 393.986 318.264 392.759 318.264ZM392.767 316.125C393.563 316.125 394.222 315.915 394.744 315.494C395.267 315.074 395.653 314.514 395.903 313.815C396.159 313.116 396.287 312.347 396.287 311.506C396.287 310.67 396.159 309.903 395.903 309.205C395.653 308.5 395.267 307.935 394.744 307.509C394.222 307.082 393.563 306.869 392.767 306.869C391.966 306.869 391.301 307.082 390.773 307.509C390.25 307.935 389.861 308.5 389.605 309.205C389.355 309.903 389.23 310.67 389.23 311.506C389.23 312.347 389.355 313.116 389.605 313.815C389.861 314.514 390.25 315.074 390.773 315.494C391.301 315.915 391.966 316.125 392.767 316.125ZM401.705 318V304.909H404.168V306.989H404.305C404.543 306.284 404.964 305.73 405.566 305.327C406.174 304.918 406.862 304.713 407.629 304.713C407.788 304.713 407.975 304.719 408.191 304.73C408.413 304.741 408.586 304.756 408.711 304.773V307.21C408.609 307.182 408.427 307.151 408.165 307.116C407.904 307.077 407.643 307.057 407.381 307.057C406.779 307.057 406.242 307.185 405.771 307.44C405.305 307.69 404.935 308.04 404.663 308.489C404.39 308.932 404.254 309.437 404.254 310.006V318H401.705ZM412.925 322.909C412.545 322.909 412.198 322.878 411.886 322.815C411.573 322.759 411.34 322.696 411.187 322.628L411.8 320.54C412.266 320.665 412.681 320.719 413.045 320.702C413.408 320.685 413.729 320.548 414.008 320.293C414.292 320.037 414.542 319.619 414.758 319.04L415.073 318.17L410.283 304.909H413.011L416.326 315.068H416.462L419.778 304.909H422.513L417.119 319.747C416.869 320.429 416.55 321.006 416.164 321.477C415.778 321.955 415.317 322.313 414.783 322.551C414.249 322.79 413.63 322.909 412.925 322.909ZM431.138 304.909V306.955H423.741V304.909H431.138ZM425.769 318V303.392C425.769 302.574 425.948 301.895 426.306 301.355C426.664 300.81 427.138 300.403 427.729 300.136C428.32 299.864 428.962 299.727 429.656 299.727C430.167 299.727 430.604 299.77 430.968 299.855C431.332 299.935 431.602 300.009 431.778 300.077L431.181 302.139C431.062 302.105 430.908 302.065 430.721 302.02C430.533 301.969 430.306 301.943 430.039 301.943C429.42 301.943 428.977 302.097 428.71 302.403C428.448 302.71 428.317 303.153 428.317 303.733V318H425.769ZM442.06 312.571V304.909H444.617V318H442.112V315.733H441.975C441.674 316.432 441.191 317.014 440.526 317.48C439.867 317.94 439.046 318.17 438.063 318.17C437.222 318.17 436.478 317.986 435.83 317.616C435.188 317.241 434.683 316.688 434.313 315.955C433.95 315.222 433.768 314.315 433.768 313.236V304.909H436.316V312.929C436.316 313.821 436.563 314.531 437.058 315.06C437.552 315.588 438.194 315.852 438.984 315.852C439.461 315.852 439.935 315.733 440.407 315.494C440.884 315.256 441.279 314.895 441.592 314.412C441.91 313.929 442.066 313.315 442.06 312.571ZM448.041 318V304.909H450.504V306.989H450.641C450.879 306.284 451.3 305.73 451.902 305.327C452.51 304.918 453.197 304.713 453.964 304.713C454.124 304.713 454.311 304.719 454.527 304.73C454.749 304.741 454.922 304.756 455.047 304.773V307.21C454.945 307.182 454.763 307.151 454.501 307.116C454.24 307.077 453.979 307.057 453.717 307.057C453.115 307.057 452.578 307.185 452.107 307.44C451.641 307.69 451.271 308.04 450.999 308.489C450.726 308.932 450.589 309.437 450.589 310.006V318H448.041ZM459.8 310.227V318H457.252V304.909H459.698V307.04H459.86C460.161 306.347 460.633 305.79 461.275 305.369C461.923 304.949 462.738 304.739 463.721 304.739C464.613 304.739 465.394 304.926 466.065 305.301C466.735 305.67 467.255 306.222 467.624 306.955C467.994 307.687 468.178 308.594 468.178 309.673V318H465.63V309.98C465.63 309.031 465.383 308.29 464.888 307.756C464.394 307.216 463.715 306.946 462.852 306.946C462.261 306.946 461.735 307.074 461.275 307.33C460.82 307.585 460.46 307.96 460.192 308.455C459.931 308.943 459.8 309.534 459.8 310.227ZM471.596 318V304.909H474.144V318H471.596ZM472.883 302.889C472.44 302.889 472.059 302.741 471.741 302.446C471.428 302.145 471.272 301.787 471.272 301.372C471.272 300.952 471.428 300.594 471.741 300.298C472.059 299.997 472.44 299.847 472.883 299.847C473.326 299.847 473.704 299.997 474.016 300.298C474.335 300.594 474.494 300.952 474.494 301.372C474.494 301.787 474.335 302.145 474.016 302.446C473.704 302.741 473.326 302.889 472.883 302.889ZM483.683 304.909V306.955H476.533V304.909H483.683ZM478.45 301.773H480.999V314.156C480.999 314.651 481.072 315.023 481.22 315.273C481.368 315.517 481.558 315.685 481.791 315.776C482.03 315.861 482.288 315.903 482.567 315.903C482.771 315.903 482.95 315.889 483.104 315.861C483.257 315.832 483.376 315.81 483.462 315.793L483.922 317.898C483.774 317.955 483.564 318.011 483.291 318.068C483.018 318.131 482.678 318.165 482.268 318.17C481.598 318.182 480.973 318.062 480.393 317.812C479.814 317.562 479.345 317.176 478.987 316.653C478.629 316.131 478.45 315.474 478.45 314.685V301.773ZM494.795 312.571V304.909H497.352V318H494.846V315.733H494.71C494.408 316.432 493.925 317.014 493.261 317.48C492.602 317.94 491.781 318.17 490.798 318.17C489.957 318.17 489.212 317.986 488.565 317.616C487.923 317.241 487.417 316.688 487.048 315.955C486.684 315.222 486.502 314.315 486.502 313.236V304.909H489.05V312.929C489.05 313.821 489.298 314.531 489.792 315.06C490.286 315.588 490.928 315.852 491.718 315.852C492.195 315.852 492.67 315.733 493.141 315.494C493.619 315.256 494.013 314.895 494.326 314.412C494.644 313.929 494.8 313.315 494.795 312.571ZM500.776 318V304.909H503.239V306.989H503.375C503.614 306.284 504.034 305.73 504.636 305.327C505.244 304.918 505.932 304.713 506.699 304.713C506.858 304.713 507.045 304.719 507.261 304.73C507.483 304.741 507.656 304.756 507.781 304.773V307.21C507.679 307.182 507.497 307.151 507.236 307.116C506.974 307.077 506.713 307.057 506.452 307.057C505.849 307.057 505.313 307.185 504.841 307.44C504.375 307.69 504.006 308.04 503.733 308.489C503.46 308.932 503.324 309.437 503.324 310.006V318H500.776ZM515.16 318.264C513.87 318.264 512.759 317.989 511.827 317.438C510.901 316.881 510.185 316.099 509.68 315.094C509.18 314.082 508.93 312.898 508.93 311.54C508.93 310.199 509.18 309.017 509.68 307.994C510.185 306.972 510.89 306.173 511.793 305.599C512.702 305.026 513.765 304.739 514.981 304.739C515.719 304.739 516.435 304.861 517.129 305.105C517.822 305.349 518.444 305.733 518.995 306.256C519.546 306.778 519.981 307.457 520.299 308.293C520.617 309.122 520.776 310.131 520.776 311.318V312.222H510.37V310.312H518.279C518.279 309.642 518.143 309.048 517.87 308.531C517.597 308.009 517.214 307.597 516.719 307.295C516.231 306.994 515.657 306.844 514.998 306.844C514.282 306.844 513.657 307.02 513.123 307.372C512.594 307.719 512.185 308.173 511.896 308.736C511.612 309.293 511.469 309.898 511.469 310.551V312.043C511.469 312.918 511.623 313.662 511.93 314.276C512.242 314.889 512.677 315.358 513.234 315.682C513.79 316 514.441 316.159 515.185 316.159C515.668 316.159 516.109 316.091 516.506 315.955C516.904 315.812 517.248 315.602 517.538 315.324C517.827 315.045 518.049 314.702 518.202 314.293L520.614 314.727C520.421 315.437 520.075 316.06 519.575 316.594C519.08 317.122 518.458 317.534 517.708 317.83C516.964 318.119 516.114 318.264 515.16 318.264ZM534.112 322.747C532.351 322.747 530.788 322.506 529.425 322.023C528.067 321.545 526.922 320.841 525.99 319.909C525.058 318.983 524.351 317.847 523.868 316.5C523.385 315.153 523.143 313.616 523.143 311.889C523.143 310.207 523.388 308.696 523.876 307.355C524.365 306.014 525.075 304.872 526.007 303.929C526.945 302.98 528.084 302.256 529.425 301.756C530.766 301.256 532.288 301.006 533.993 301.006C535.624 301.006 537.061 301.261 538.305 301.773C539.55 302.284 540.595 302.986 541.442 303.878C542.294 304.77 542.936 305.793 543.368 306.946C543.8 308.099 544.016 309.318 544.016 310.602C544.016 311.5 543.959 312.378 543.845 313.236C543.732 314.088 543.521 314.861 543.214 315.554C542.913 316.241 542.476 316.793 541.902 317.207C541.334 317.616 540.595 317.83 539.686 317.847C539.203 317.864 538.734 317.807 538.28 317.676C537.825 317.545 537.439 317.335 537.121 317.045C536.803 316.75 536.609 316.375 536.541 315.92H536.439C536.303 316.256 536.075 316.568 535.757 316.858C535.439 317.142 535.033 317.369 534.538 317.54C534.05 317.705 533.482 317.773 532.834 317.744C532.118 317.716 531.473 317.554 530.899 317.259C530.325 316.963 529.834 316.554 529.425 316.031C529.021 315.509 528.712 314.889 528.496 314.173C528.28 313.457 528.172 312.662 528.172 311.787C528.172 310.946 528.294 310.193 528.538 309.528C528.783 308.858 529.115 308.281 529.536 307.798C529.962 307.31 530.45 306.923 531.001 306.639C531.553 306.355 532.135 306.176 532.749 306.102C533.345 306.034 533.893 306.051 534.393 306.153C534.893 306.256 535.308 306.412 535.638 306.622C535.973 306.832 536.183 307.062 536.268 307.312H536.379V306.358H538.476V314.267C538.476 314.716 538.592 315.097 538.825 315.409C539.064 315.722 539.402 315.878 539.839 315.878C540.357 315.878 540.76 315.687 541.05 315.307C541.345 314.926 541.553 314.341 541.672 313.551C541.797 312.761 541.859 311.75 541.859 310.517C541.859 309.653 541.743 308.841 541.51 308.08C541.283 307.312 540.945 306.619 540.496 306C540.053 305.375 539.507 304.838 538.859 304.389C538.212 303.94 537.473 303.594 536.643 303.349C535.82 303.105 534.908 302.983 533.908 302.983C532.55 302.983 531.342 303.193 530.286 303.614C529.229 304.028 528.337 304.628 527.609 305.412C526.888 306.196 526.339 307.136 525.964 308.233C525.595 309.324 525.411 310.548 525.411 311.906C525.411 313.321 525.601 314.577 525.982 315.673C526.362 316.764 526.925 317.685 527.669 318.435C528.413 319.185 529.334 319.753 530.43 320.139C531.527 320.531 532.791 320.727 534.223 320.727C534.859 320.727 535.484 320.67 536.098 320.557C536.712 320.449 537.257 320.324 537.734 320.182C538.217 320.045 538.578 319.935 538.817 319.849L539.413 321.716C539.061 321.881 538.592 322.043 538.007 322.202C537.428 322.361 536.797 322.491 536.115 322.594C535.439 322.696 534.771 322.747 534.112 322.747ZM533.328 315.656C534.067 315.656 534.661 315.509 535.109 315.213C535.564 314.918 535.891 314.477 536.089 313.892C536.294 313.301 536.396 312.562 536.396 311.676C536.391 310.812 536.28 310.125 536.064 309.614C535.854 309.097 535.524 308.727 535.075 308.506C534.632 308.278 534.061 308.165 533.362 308.165C532.72 308.165 532.172 308.321 531.717 308.634C531.268 308.946 530.925 309.369 530.686 309.903C530.453 310.437 530.334 311.031 530.328 311.685C530.334 312.372 530.43 313.02 530.618 313.628C530.811 314.23 531.124 314.719 531.555 315.094C531.993 315.469 532.584 315.656 533.328 315.656ZM552.319 323.182C551.279 323.182 550.384 323.045 549.634 322.773C548.89 322.5 548.282 322.139 547.81 321.69C547.339 321.241 546.987 320.75 546.754 320.216L548.944 319.312C549.097 319.562 549.302 319.827 549.558 320.105C549.819 320.389 550.171 320.631 550.614 320.83C551.063 321.028 551.64 321.128 552.344 321.128C553.31 321.128 554.109 320.892 554.739 320.42C555.37 319.955 555.685 319.21 555.685 318.188V315.614H555.523C555.37 315.892 555.148 316.202 554.859 316.543C554.575 316.884 554.183 317.179 553.683 317.429C553.183 317.679 552.532 317.804 551.731 317.804C550.697 317.804 549.765 317.562 548.935 317.08C548.112 316.591 547.458 315.872 546.975 314.923C546.498 313.969 546.259 312.795 546.259 311.403C546.259 310.011 546.495 308.818 546.967 307.824C547.444 306.83 548.097 306.068 548.927 305.54C549.756 305.006 550.697 304.739 551.748 304.739C552.56 304.739 553.217 304.875 553.717 305.148C554.217 305.415 554.606 305.727 554.884 306.085C555.168 306.443 555.387 306.759 555.54 307.031H555.728V304.909H558.225V318.29C558.225 319.415 557.964 320.338 557.441 321.06C556.918 321.781 556.211 322.315 555.319 322.662C554.433 323.009 553.433 323.182 552.319 323.182ZM552.293 315.69C553.026 315.69 553.646 315.52 554.151 315.179C554.663 314.832 555.049 314.338 555.31 313.696C555.577 313.048 555.711 312.273 555.711 311.369C555.711 310.489 555.58 309.713 555.319 309.043C555.058 308.372 554.674 307.849 554.168 307.474C553.663 307.094 553.038 306.903 552.293 306.903C551.526 306.903 550.887 307.102 550.376 307.5C549.864 307.892 549.478 308.426 549.217 309.102C548.961 309.778 548.833 310.534 548.833 311.369C548.833 312.227 548.964 312.98 549.225 313.628C549.487 314.276 549.873 314.781 550.384 315.145C550.901 315.509 551.538 315.69 552.293 315.69ZM561.643 318V304.909H564.089V307.04H564.251C564.523 306.318 564.969 305.756 565.589 305.352C566.208 304.943 566.95 304.739 567.813 304.739C568.688 304.739 569.421 304.943 570.012 305.352C570.609 305.761 571.049 306.324 571.333 307.04H571.469C571.782 306.341 572.279 305.784 572.961 305.369C573.643 304.949 574.455 304.739 575.398 304.739C576.586 304.739 577.555 305.111 578.305 305.855C579.06 306.599 579.438 307.722 579.438 309.222V318H576.89V309.46C576.89 308.574 576.648 307.932 576.165 307.534C575.683 307.136 575.106 306.938 574.435 306.938C573.606 306.938 572.961 307.193 572.501 307.705C572.04 308.21 571.81 308.861 571.81 309.656V318H569.271V309.298C569.271 308.588 569.049 308.017 568.606 307.585C568.163 307.153 567.586 306.938 566.876 306.938C566.393 306.938 565.947 307.065 565.538 307.321C565.134 307.571 564.808 307.92 564.558 308.369C564.313 308.818 564.191 309.338 564.191 309.929V318H561.643ZM586.663 318.29C585.834 318.29 585.084 318.136 584.413 317.83C583.743 317.517 583.212 317.065 582.82 316.474C582.433 315.884 582.24 315.159 582.24 314.301C582.24 313.562 582.382 312.955 582.666 312.477C582.95 312 583.334 311.622 583.817 311.344C584.3 311.065 584.839 310.855 585.436 310.713C586.033 310.571 586.641 310.463 587.26 310.389C588.044 310.298 588.68 310.224 589.169 310.168C589.658 310.105 590.013 310.006 590.234 309.869C590.456 309.733 590.567 309.511 590.567 309.205V309.145C590.567 308.401 590.357 307.824 589.936 307.415C589.521 307.006 588.902 306.801 588.078 306.801C587.22 306.801 586.544 306.991 586.05 307.372C585.561 307.747 585.223 308.165 585.036 308.625L582.641 308.08C582.925 307.284 583.339 306.642 583.885 306.153C584.436 305.659 585.07 305.301 585.786 305.08C586.501 304.852 587.254 304.739 588.044 304.739C588.567 304.739 589.121 304.801 589.706 304.926C590.297 305.045 590.848 305.267 591.359 305.591C591.876 305.915 592.3 306.378 592.629 306.98C592.959 307.577 593.124 308.352 593.124 309.307V318H590.635V316.21H590.533C590.368 316.54 590.121 316.864 589.791 317.182C589.462 317.5 589.038 317.764 588.521 317.974C588.004 318.185 587.385 318.29 586.663 318.29ZM587.217 316.244C587.922 316.244 588.524 316.105 589.024 315.827C589.53 315.548 589.913 315.185 590.175 314.736C590.442 314.281 590.575 313.795 590.575 313.278V311.591C590.484 311.682 590.308 311.767 590.047 311.847C589.791 311.92 589.499 311.986 589.169 312.043C588.839 312.094 588.518 312.142 588.206 312.188C587.893 312.227 587.632 312.261 587.422 312.29C586.928 312.352 586.476 312.457 586.067 312.605C585.663 312.753 585.339 312.966 585.095 313.244C584.857 313.517 584.737 313.881 584.737 314.335C584.737 314.966 584.97 315.443 585.436 315.767C585.902 316.085 586.496 316.244 587.217 316.244ZM596.518 318V304.909H599.066V318H596.518ZM597.805 302.889C597.362 302.889 596.981 302.741 596.663 302.446C596.35 302.145 596.194 301.787 596.194 301.372C596.194 300.952 596.35 300.594 596.663 300.298C596.981 299.997 597.362 299.847 597.805 299.847C598.248 299.847 598.626 299.997 598.938 300.298C599.256 300.594 599.415 300.952 599.415 301.372C599.415 301.787 599.256 302.145 598.938 302.446C598.626 302.741 598.248 302.889 597.805 302.889ZM605.043 300.545V318H602.494V300.545H605.043ZM610.15 318.162C609.684 318.162 609.283 317.997 608.948 317.668C608.613 317.332 608.445 316.929 608.445 316.457C608.445 315.991 608.613 315.594 608.948 315.264C609.283 314.929 609.684 314.761 610.15 314.761C610.616 314.761 611.016 314.929 611.352 315.264C611.687 315.594 611.854 315.991 611.854 316.457C611.854 316.77 611.775 317.057 611.616 317.318C611.462 317.574 611.258 317.778 611.002 317.932C610.746 318.085 610.462 318.162 610.15 318.162ZM620.782 318.264C619.515 318.264 618.424 317.977 617.509 317.403C616.6 316.824 615.901 316.026 615.413 315.009C614.924 313.991 614.68 312.827 614.68 311.514C614.68 310.185 614.93 309.011 615.43 307.994C615.93 306.972 616.634 306.173 617.543 305.599C618.452 305.026 619.523 304.739 620.756 304.739C621.751 304.739 622.637 304.923 623.415 305.293C624.194 305.656 624.822 306.168 625.299 306.827C625.782 307.486 626.069 308.256 626.16 309.136H623.68C623.543 308.523 623.231 307.994 622.742 307.551C622.259 307.108 621.612 306.886 620.799 306.886C620.089 306.886 619.467 307.074 618.933 307.449C618.404 307.818 617.992 308.347 617.697 309.034C617.401 309.716 617.254 310.523 617.254 311.455C617.254 312.409 617.398 313.233 617.688 313.926C617.978 314.619 618.387 315.156 618.915 315.537C619.45 315.918 620.077 316.108 620.799 316.108C621.282 316.108 621.719 316.02 622.112 315.844C622.509 315.662 622.842 315.403 623.109 315.068C623.381 314.733 623.572 314.33 623.68 313.858H626.16C626.069 314.705 625.793 315.46 625.333 316.125C624.873 316.79 624.256 317.312 623.484 317.693C622.717 318.074 621.816 318.264 620.782 318.264ZM634.399 318.264C633.172 318.264 632.101 317.983 631.186 317.42C630.271 316.858 629.561 316.071 629.055 315.06C628.55 314.048 628.297 312.866 628.297 311.514C628.297 310.156 628.55 308.969 629.055 307.952C629.561 306.935 630.271 306.145 631.186 305.582C632.101 305.02 633.172 304.739 634.399 304.739C635.626 304.739 636.697 305.02 637.612 305.582C638.527 306.145 639.237 306.935 639.743 307.952C640.249 308.969 640.501 310.156 640.501 311.514C640.501 312.866 640.249 314.048 639.743 315.06C639.237 316.071 638.527 316.858 637.612 317.42C636.697 317.983 635.626 318.264 634.399 318.264ZM634.408 316.125C635.203 316.125 635.862 315.915 636.385 315.494C636.908 315.074 637.294 314.514 637.544 313.815C637.8 313.116 637.928 312.347 637.928 311.506C637.928 310.67 637.8 309.903 637.544 309.205C637.294 308.5 636.908 307.935 636.385 307.509C635.862 307.082 635.203 306.869 634.408 306.869C633.607 306.869 632.942 307.082 632.413 307.509C631.891 307.935 631.501 308.5 631.246 309.205C630.996 309.903 630.871 310.67 630.871 311.506C630.871 312.347 630.996 313.116 631.246 313.815C631.501 314.514 631.891 315.074 632.413 315.494C632.942 315.915 633.607 316.125 634.408 316.125ZM643.346 318V304.909H645.792V307.04H645.954C646.227 306.318 646.673 305.756 647.292 305.352C647.911 304.943 648.653 304.739 649.516 304.739C650.391 304.739 651.124 304.943 651.715 305.352C652.312 305.761 652.752 306.324 653.036 307.04H653.173C653.485 306.341 653.982 305.784 654.664 305.369C655.346 304.949 656.158 304.739 657.102 304.739C658.289 304.739 659.258 305.111 660.008 305.855C660.763 306.599 661.141 307.722 661.141 309.222V318H658.593V309.46C658.593 308.574 658.352 307.932 657.869 307.534C657.386 307.136 656.809 306.938 656.138 306.938C655.309 306.938 654.664 307.193 654.204 307.705C653.744 308.21 653.513 308.861 653.513 309.656V318H650.974V309.298C650.974 308.588 650.752 308.017 650.309 307.585C649.866 307.153 649.289 306.938 648.579 306.938C648.096 306.938 647.65 307.065 647.241 307.321C646.837 307.571 646.511 307.92 646.261 308.369C646.016 308.818 645.894 309.338 645.894 309.929V318H643.346Z" fill="white"/>
<path d="M353.64 284.04H351.56V272.52H345.1V284.04H343.04V270.58H353.64V284.04ZM364.8 278.94C364.8 278.007 364.567 277.207 364.1 276.54C363.593 275.82 362.933 275.46 362.12 275.46C361.293 275.46 360.633 275.82 360.14 276.54C359.673 277.207 359.44 278.007 359.44 278.94C359.44 279.887 359.68 280.687 360.16 281.34C360.653 282.06 361.307 282.42 362.12 282.42C362.92 282.42 363.573 282.06 364.08 281.34C364.56 280.687 364.8 279.887 364.8 278.94ZM366.78 278.96C366.78 280.387 366.373 281.607 365.56 282.62C364.653 283.74 363.507 284.3 362.12 284.3C360.693 284.3 359.54 283.747 358.66 282.64C357.847 281.627 357.44 280.4 357.44 278.96C357.44 277.533 357.84 276.307 358.64 275.28C359.52 274.16 360.68 273.6 362.12 273.6C363.547 273.6 364.7 274.167 365.58 275.3C366.38 276.327 366.78 277.547 366.78 278.96ZM378.1 284.04H376.2V280.84C375.52 281.48 374.693 281.8 373.72 281.8C372.827 281.8 372.087 281.593 371.5 281.18C370.833 280.7 370.44 280.013 370.32 279.12C370.307 279.013 370.293 278.893 370.28 278.76C370.28 278.627 370.28 278.487 370.28 278.34V273.86H372.22V277.64C372.22 278.52 372.32 279.127 372.52 279.46C372.76 279.847 373.227 280.04 373.92 280.04C374.573 280.04 375.107 279.813 375.52 279.36C375.973 278.893 376.2 278.267 376.2 277.48V273.86H378.1V284.04ZM390.96 275.76H387.1V284.04H385V275.76H381.16V273.86H390.96V275.76ZM402.874 284.04C402.554 284.067 402.294 284.087 402.094 284.1C401.894 284.127 401.748 284.14 401.654 284.14C400.854 284.14 400.354 283.767 400.154 283.02C399.101 283.887 398.028 284.32 396.934 284.32C395.948 284.32 395.141 284.073 394.514 283.58C393.808 283.02 393.454 282.247 393.454 281.26C393.454 280.047 393.981 279.153 395.034 278.58C395.821 278.153 396.874 277.907 398.194 277.84C398.488 277.84 398.908 277.78 399.454 277.66C399.721 277.5 399.854 277.3 399.854 277.06C399.854 275.967 399.241 275.42 398.014 275.42C396.574 275.42 395.848 276.06 395.834 277.34H393.894C393.908 276.02 394.361 275.04 395.254 274.4C395.948 273.88 396.868 273.62 398.014 273.62C399.094 273.62 399.968 273.86 400.634 274.34C401.408 274.9 401.794 275.753 401.794 276.9V281.94C401.794 282.193 401.874 282.36 402.034 282.44C402.128 282.48 402.408 282.5 402.874 282.5V284.04ZM399.854 279.26C399.268 279.34 398.341 279.48 397.074 279.68C395.968 279.907 395.414 280.407 395.414 281.18C395.414 281.567 395.568 281.88 395.874 282.12C396.181 282.36 396.581 282.48 397.074 282.48C397.874 282.48 398.534 282.26 399.054 281.82C399.588 281.38 399.854 280.787 399.854 280.04V279.26Z" fill="white"/>
<path d="M408.674 443.886C408.527 445.778 407.845 447.223 406.628 448.22C405.557 449.115 404.157 449.562 402.426 449.562C400.27 449.562 398.576 448.763 397.344 447.164C396.229 445.727 395.672 443.915 395.672 441.73C395.672 439.559 396.237 437.755 397.366 436.318C398.598 434.749 400.299 433.964 402.47 433.964C404.098 433.964 405.425 434.345 406.452 435.108C407.684 436.003 408.381 437.352 408.542 439.156H406.276C405.968 437.132 404.699 436.12 402.47 436.12C400.989 436.12 399.867 436.67 399.104 437.77C398.429 438.753 398.092 440.065 398.092 441.708C398.092 443.336 398.437 444.671 399.126 445.712C399.918 446.841 401.04 447.406 402.492 447.406C404.839 447.406 406.129 446.233 406.364 443.886H408.674ZM423.15 449.144H412.744V434.338H422.908V436.538H415.01V440.52H422.248V442.72H415.01V446.944H423.15V449.144ZM441.278 449.144H438.99V439.332L435.404 449.144H433.71L430.19 439.354V449.144H427.88V434.338H430.586L434.59 445.514L438.572 434.338H441.278V449.144ZM457.074 449.144H446.668V434.338H456.832V436.538H448.934V440.52H456.172V442.72H448.934V446.944H457.074V449.144ZM451.376 433.722H448.758V431.302H451.376V433.722ZM455.38 433.722H452.696V431.302H455.38V433.722ZM473.002 449.144H470.714V442.412H463.608V449.144H461.342V434.338H463.608V440.234H470.714V434.338H473.002V449.144ZM488.496 441.51C487.352 441.965 486.552 442.405 486.098 442.83C485.628 443.299 485.394 443.893 485.394 444.612C485.394 445.287 485.702 445.851 486.318 446.306C486.963 446.775 487.696 447.01 488.518 447.01C489.442 447.01 490.175 446.805 490.718 446.394C491.334 445.939 491.642 445.294 491.642 444.458C491.642 443.783 491.348 443.219 490.762 442.764C490.336 442.427 489.581 442.009 488.496 441.51ZM488.518 439.486C490.263 438.621 491.136 437.689 491.136 436.692C491.136 436.091 490.864 435.592 490.322 435.196C489.823 434.829 489.222 434.646 488.518 434.646C487.755 434.646 487.124 434.837 486.626 435.218C486.127 435.585 485.878 436.076 485.878 436.692C485.878 437.323 486.149 437.887 486.692 438.386C486.882 438.547 487.124 438.723 487.418 438.914C487.726 439.09 488.092 439.281 488.518 439.486ZM490.85 440.41C492.932 441.334 493.974 442.757 493.974 444.678C493.974 446.233 493.372 447.406 492.17 448.198C491.172 448.858 489.955 449.188 488.518 449.188C487.095 449.188 485.878 448.836 484.866 448.132C483.663 447.325 483.062 446.174 483.062 444.678C483.062 442.786 484.059 441.371 486.054 440.432C484.367 439.42 483.524 438.107 483.524 436.494C483.524 435.13 484.125 434.074 485.328 433.326C486.266 432.739 487.33 432.446 488.518 432.446C489.852 432.446 490.974 432.754 491.884 433.37C492.94 434.103 493.468 435.145 493.468 436.494C493.468 437.961 492.595 439.266 490.85 440.41ZM499.923 447.01H497.195V444.37H499.923V447.01ZM499.923 437.264H497.195V434.646H499.923V437.264ZM508.52 434.756C507.258 434.756 506.393 435.475 505.924 436.912C505.645 437.763 505.506 439.061 505.506 440.806C505.506 442.566 505.645 443.864 505.924 444.7C506.378 446.152 507.244 446.878 508.52 446.878C509.781 446.878 510.646 446.152 511.116 444.7C511.394 443.849 511.534 442.551 511.534 440.806C511.534 439.061 511.394 437.763 511.116 436.912C510.646 435.475 509.781 434.756 508.52 434.756ZM508.52 432.49C510.514 432.49 511.966 433.429 512.876 435.306C513.565 436.729 513.91 438.562 513.91 440.806C513.91 446.35 512.113 449.122 508.52 449.122C504.926 449.122 503.13 446.35 503.13 440.806C503.13 438.533 503.467 436.699 504.142 435.306C505.051 433.429 506.51 432.49 508.52 432.49ZM521.861 434.756C520.6 434.756 519.735 435.475 519.265 436.912C518.987 437.763 518.847 439.061 518.847 440.806C518.847 442.566 518.987 443.864 519.265 444.7C519.72 446.152 520.585 446.878 521.861 446.878C523.123 446.878 523.988 446.152 524.457 444.7C524.736 443.849 524.875 442.551 524.875 440.806C524.875 439.061 524.736 437.763 524.457 436.912C523.988 435.475 523.123 434.756 521.861 434.756ZM521.861 432.49C523.856 432.49 525.308 433.429 526.217 435.306C526.907 436.729 527.251 438.562 527.251 440.806C527.251 446.35 525.455 449.122 521.861 449.122C518.268 449.122 516.471 446.35 516.471 440.806C516.471 438.533 516.809 436.699 517.483 435.306C518.393 433.429 519.852 432.49 521.861 432.49ZM541.699 441.554H535.737V439.31H541.699V441.554ZM560.015 449.034H550.137L550.159 447.076L553.767 443.006C556.099 440.351 557.265 438.305 557.265 436.868C557.265 436.193 557.045 435.651 556.605 435.24C556.18 434.829 555.637 434.624 554.977 434.624C553.833 434.624 552.528 435.042 551.061 435.878L550.643 433.612C552.169 432.835 553.577 432.446 554.867 432.446C556.29 432.446 557.419 432.798 558.255 433.502C559.194 434.265 559.663 435.394 559.663 436.89C559.663 438.562 558.307 440.997 555.593 444.194L553.327 446.856H560.015V449.034ZM563.699 446.13C565.151 446.731 566.493 447.032 567.725 447.032C568.708 447.032 569.5 446.812 570.101 446.372C570.791 445.888 571.135 445.177 571.135 444.238C571.135 442.478 569.903 441.598 567.439 441.598H565.811V439.398H566.471C567.835 439.398 568.862 439.266 569.551 439.002C570.563 438.591 571.069 437.814 571.069 436.67C571.069 436.377 570.989 436.105 570.827 435.856C570.681 435.607 570.475 435.394 570.211 435.218C569.947 435.042 569.632 434.903 569.265 434.8C568.913 434.697 568.532 434.646 568.121 434.646C567.036 434.646 565.811 434.961 564.447 435.592L564.227 433.216C565.591 432.703 566.933 432.446 568.253 432.446C569.705 432.446 570.879 432.739 571.773 433.326C572.888 434.045 573.445 435.13 573.445 436.582C573.445 438.313 572.602 439.596 570.915 440.432C572.631 441.077 573.489 442.39 573.489 444.37C573.489 445.881 572.91 447.083 571.751 447.978C570.681 448.785 569.309 449.188 567.637 449.188C565.936 449.188 564.535 448.961 563.435 448.506L563.699 446.13ZM580.275 447.01H577.547V444.37H580.275V447.01ZM580.275 437.264H577.547V434.646H580.275V437.264ZM588.871 434.756C587.61 434.756 586.745 435.475 586.275 436.912C585.997 437.763 585.857 439.061 585.857 440.806C585.857 442.566 585.997 443.864 586.275 444.7C586.73 446.152 587.595 446.878 588.871 446.878C590.133 446.878 590.998 446.152 591.467 444.7C591.746 443.849 591.885 442.551 591.885 440.806C591.885 439.061 591.746 437.763 591.467 436.912C590.998 435.475 590.133 434.756 588.871 434.756ZM588.871 432.49C590.866 432.49 592.318 433.429 593.227 435.306C593.917 436.729 594.261 438.562 594.261 440.806C594.261 446.35 592.465 449.122 588.871 449.122C585.278 449.122 583.481 446.35 583.481 440.806C583.481 438.533 583.819 436.699 584.493 435.306C585.403 433.429 586.862 432.49 588.871 432.49ZM602.213 434.756C600.952 434.756 600.086 435.475 599.617 436.912C599.338 437.763 599.199 439.061 599.199 440.806C599.199 442.566 599.338 443.864 599.617 444.7C600.072 446.152 600.937 446.878 602.213 446.878C603.474 446.878 604.34 446.152 604.809 444.7C605.088 443.849 605.227 442.551 605.227 440.806C605.227 439.061 605.088 437.763 604.809 436.912C604.34 435.475 603.474 434.756 602.213 434.756ZM602.213 432.49C604.208 432.49 605.66 433.429 606.569 435.306C607.258 436.729 607.603 438.562 607.603 440.806C607.603 446.35 605.806 449.122 602.213 449.122C598.62 449.122 596.823 446.35 596.823 440.806C596.823 438.533 597.16 436.699 597.835 435.306C598.744 433.429 600.204 432.49 602.213 432.49Z" fill="white"/>
<path d="M400.28 473.024C400.28 472.175 399.704 471.75 398.551 471.75H396.302V474.376H398.551C399.704 474.376 400.28 473.925 400.28 473.024ZM401.632 473.024C401.632 473.943 401.32 474.627 400.696 475.078C400.168 475.477 399.47 475.676 398.603 475.676H394.963V466.927H401.229V468.227H396.302V470.437H398.603C399.418 470.437 400.103 470.636 400.657 471.035C401.307 471.494 401.632 472.157 401.632 473.024ZM410.121 475.676H403.972V466.927H409.978V468.227H405.311V470.58H409.588V471.88H405.311V474.376H410.121V475.676ZM417.986 473.128C417.986 473.986 417.7 474.666 417.128 475.169C416.6 475.646 415.924 475.884 415.1 475.884C414.234 475.884 413.545 475.646 413.033 475.169C412.487 474.666 412.214 473.977 412.214 473.102V472.79H413.566C413.566 473.995 414.065 474.597 415.061 474.597C416.067 474.597 416.569 474.09 416.569 473.076C416.569 472.521 416.374 472.144 415.984 471.945C415.672 471.789 415.105 471.711 414.281 471.711V470.398H414.58C415.187 470.398 415.633 470.307 415.919 470.125C416.223 469.926 416.374 469.605 416.374 469.163C416.374 468.799 416.262 468.513 416.036 468.305C415.811 468.097 415.516 467.993 415.152 467.993C414.693 467.993 414.351 468.119 414.125 468.37C413.9 468.647 413.783 469.085 413.774 469.683H412.448C412.457 468.738 412.713 468.002 413.215 467.473C413.701 466.962 414.351 466.706 415.165 466.706C415.885 466.706 416.483 466.91 416.959 467.317C417.462 467.759 417.713 468.361 417.713 469.124C417.713 469.895 417.432 470.511 416.868 470.97C417.614 471.429 417.986 472.149 417.986 473.128ZM430.756 475.676H429.404V468.188H425.205V475.676H423.866V466.927H430.756V475.676ZM438.465 469.514C438.465 468.656 437.897 468.227 436.762 468.227H434.955V470.866H436.424C437.785 470.866 438.465 470.415 438.465 469.514ZM439.804 469.527C439.804 471.278 438.729 472.153 436.58 472.153H434.955V475.676H433.616V466.927H436.918C437.776 466.927 438.448 467.118 438.933 467.499C439.514 467.941 439.804 468.617 439.804 469.527ZM446.551 471.932L445.316 468.864L444.133 471.932H446.551ZM449.463 475.676H447.994L447.045 473.18H443.652L442.677 475.676H441.208L444.679 466.927H445.979L449.463 475.676ZM456.301 473.128C456.301 473.986 456.015 474.666 455.443 475.169C454.914 475.646 454.238 475.884 453.415 475.884C452.548 475.884 451.859 475.646 451.348 475.169C450.802 474.666 450.529 473.977 450.529 473.102V472.79H451.881C451.881 473.995 452.379 474.597 453.376 474.597C454.381 474.597 454.884 474.09 454.884 473.076C454.884 472.521 454.689 472.144 454.299 471.945C453.987 471.789 453.419 471.711 452.596 471.711V470.398H452.895C453.502 470.398 453.948 470.307 454.234 470.125C454.537 469.926 454.689 469.605 454.689 469.163C454.689 468.799 454.576 468.513 454.351 468.305C454.126 468.097 453.831 467.993 453.467 467.993C453.008 467.993 452.665 468.119 452.44 468.37C452.215 468.647 452.098 469.085 452.089 469.683H450.763C450.772 468.738 451.027 468.002 451.53 467.473C452.015 466.962 452.665 466.706 453.48 466.706C454.199 466.706 454.797 466.91 455.274 467.317C455.777 467.759 456.028 468.361 456.028 469.124C456.028 469.895 455.746 470.511 455.183 470.97C455.928 471.429 456.301 472.149 456.301 473.128ZM464.439 474.454V468.227H461.93C461.895 469.258 461.744 470.324 461.475 471.425C461.328 472.023 461.154 472.573 460.955 473.076C460.756 473.579 460.535 474.038 460.292 474.454H464.439ZM467.143 477.47H466.168C465.839 476.335 465.362 475.767 464.738 475.767H459.954C459.616 475.767 459.378 475.94 459.239 476.287C459.144 476.512 459.079 476.907 459.044 477.47H457.939L458.043 475.338C458.511 474.827 458.949 474.172 459.356 473.375C459.729 472.647 460.006 471.928 460.188 471.217C460.465 470.082 460.604 468.652 460.604 466.927H465.856V474.623C465.856 474.77 465.947 474.896 466.129 475C466.337 475.104 466.614 475.156 466.961 475.156L467.143 477.47ZM476.002 475.676H474.65V471.698H470.451V475.676H469.112V466.927H470.451V470.411H474.65V466.927H476.002V475.676ZM485.557 475.676H484.205V469.774L480.409 474.948V475.676H479.057V466.927H480.409V472.803L484.205 467.629V466.927H485.557V475.676ZM496.009 475.676H494.28L490.939 471.607L489.951 472.556V475.676H488.599V466.927H489.951V470.697L493.76 466.927H495.567L491.875 470.671L496.009 475.676ZM504.342 471.308C504.342 470.346 504.104 469.562 503.627 468.955C503.116 468.288 502.414 467.954 501.521 467.954C500.629 467.954 499.927 468.288 499.415 468.955C498.93 469.57 498.687 470.355 498.687 471.308C498.687 472.261 498.93 473.046 499.415 473.661C499.918 474.311 500.62 474.636 501.521 474.636C502.414 474.636 503.116 474.311 503.627 473.661C504.104 473.054 504.342 472.27 504.342 471.308ZM505.681 471.308C505.681 472.573 505.317 473.635 504.589 474.493C503.809 475.42 502.787 475.884 501.521 475.884C500.239 475.884 499.216 475.425 498.453 474.506C497.743 473.657 497.387 472.591 497.387 471.308C497.387 470.025 497.738 468.955 498.44 468.097C499.212 467.17 500.239 466.706 501.521 466.706C502.787 466.706 503.809 467.174 504.589 468.11C505.317 468.985 505.681 470.051 505.681 471.308ZM513.429 473.154C513.429 472.253 512.801 471.802 511.544 471.802H509.451V474.376H511.492C512.073 474.376 512.506 474.315 512.792 474.194C513.217 474.012 513.429 473.665 513.429 473.154ZM513.052 469.371C513.052 468.886 512.835 468.556 512.402 468.383C512.142 468.279 511.713 468.227 511.115 468.227H509.451V470.515H511.037C511.67 470.515 512.112 470.472 512.363 470.385C512.822 470.212 513.052 469.874 513.052 469.371ZM514.807 473.18C514.807 473.431 514.768 473.674 514.69 473.908C514.621 474.142 514.521 474.359 514.391 474.558C514.261 474.757 514.101 474.935 513.91 475.091C513.728 475.256 513.52 475.381 513.286 475.468C512.974 475.607 512.168 475.676 510.868 475.676H508.112V466.927H511.232C511.492 466.927 511.717 466.936 511.908 466.953C512.107 466.962 512.268 466.975 512.389 466.992C512.978 467.096 513.459 467.347 513.832 467.746C514.222 468.179 514.417 468.704 514.417 469.319C514.417 470.012 514.101 470.58 513.468 471.022C513.867 471.213 514.187 471.503 514.43 471.893C514.681 472.283 514.807 472.712 514.807 473.18ZM527.655 475.676H526.303V469.774L522.507 474.948V475.676H521.155V466.927H522.507V472.803L526.303 467.629V466.927H527.655V475.676ZM539.67 473.154C539.67 472.253 539.042 471.802 537.785 471.802H535.692V474.376H537.733C538.314 474.376 538.747 474.315 539.033 474.194C539.458 474.012 539.67 473.665 539.67 473.154ZM539.293 469.371C539.293 468.886 539.077 468.556 538.643 468.383C538.383 468.279 537.954 468.227 537.356 468.227H535.692V470.515H537.278C537.911 470.515 538.353 470.472 538.604 470.385C539.064 470.212 539.293 469.874 539.293 469.371ZM541.048 473.18C541.048 473.431 541.009 473.674 540.931 473.908C540.862 474.142 540.762 474.359 540.632 474.558C540.502 474.757 540.342 474.935 540.151 475.091C539.969 475.256 539.761 475.381 539.527 475.468C539.215 475.607 538.409 475.676 537.109 475.676H534.353V466.927H537.473C537.733 466.927 537.959 466.936 538.149 466.953C538.349 466.962 538.509 466.975 538.63 466.992C539.22 467.096 539.701 467.347 540.073 467.746C540.463 468.179 540.658 468.704 540.658 469.319C540.658 470.012 540.342 470.58 539.709 471.022C540.108 471.213 540.429 471.503 540.671 471.893C540.923 472.283 541.048 472.712 541.048 473.18ZM548.445 472.998C548.445 472.547 548.268 472.209 547.912 471.984C547.609 471.785 547.189 471.685 546.651 471.685H544.844V474.389H546.651C547.847 474.389 548.445 473.925 548.445 472.998ZM549.849 472.985C549.849 473.904 549.52 474.601 548.861 475.078C548.307 475.477 547.579 475.676 546.677 475.676H543.505V466.927H544.87V470.385H546.755C547.57 470.385 548.268 470.589 548.848 470.996C549.516 471.464 549.849 472.127 549.849 472.985ZM551.812 475.676H550.434V466.927H551.812V475.676ZM560.837 475.676H559.199L557.028 472.387L554.857 475.676H553.219L556.235 471.204L553.336 466.927H554.948L557.028 470.034L559.108 466.927H560.707L557.834 471.217L560.837 475.676ZM568.936 471.308C568.936 470.346 568.698 469.562 568.221 468.955C567.71 468.288 567.008 467.954 566.115 467.954C565.222 467.954 564.52 468.288 564.009 468.955C563.524 469.57 563.281 470.355 563.281 471.308C563.281 472.261 563.524 473.046 564.009 473.661C564.512 474.311 565.214 474.636 566.115 474.636C567.008 474.636 567.71 474.311 568.221 473.661C568.698 473.054 568.936 472.27 568.936 471.308ZM570.275 471.308C570.275 472.573 569.911 473.635 569.183 474.493C568.403 475.42 567.38 475.884 566.115 475.884C564.832 475.884 563.81 475.425 563.047 474.506C562.336 473.657 561.981 472.591 561.981 471.308C561.981 470.025 562.332 468.955 563.034 468.097C563.805 467.17 564.832 466.706 566.115 466.706C567.38 466.706 568.403 467.174 569.183 468.11C569.911 468.985 570.275 470.051 570.275 471.308ZM578.608 474.454V468.227H576.099C576.064 469.258 575.913 470.324 575.644 471.425C575.497 472.023 575.323 472.573 575.124 473.076C574.925 473.579 574.704 474.038 574.461 474.454H578.608ZM581.312 477.47H580.337C580.008 476.335 579.531 475.767 578.907 475.767H574.123C573.785 475.767 573.547 475.94 573.408 476.287C573.313 476.512 573.248 476.907 573.213 477.47H572.108L572.212 475.338C572.68 474.827 573.118 474.172 573.525 473.375C573.898 472.647 574.175 471.928 574.357 471.217C574.634 470.082 574.773 468.652 574.773 466.927H580.025V474.623C580.025 474.77 580.116 474.896 580.298 475C580.506 475.104 580.783 475.156 581.13 475.156L581.312 477.47ZM590.171 475.676H588.819V471.698H584.62V475.676H583.281V466.927H584.62V470.411H588.819V466.927H590.171V475.676ZM597.919 472.998C597.919 472.547 597.741 472.209 597.386 471.984C597.083 471.785 596.662 471.685 596.125 471.685H594.318V474.389H596.125C597.321 474.389 597.919 473.925 597.919 472.998ZM599.323 472.985C599.323 473.904 598.994 474.601 598.335 475.078C597.78 475.477 597.052 475.676 596.151 475.676H592.979V466.927H594.344V470.385H596.229C597.044 470.385 597.741 470.589 598.322 470.996C598.989 471.464 599.323 472.127 599.323 472.985ZM601.286 475.676H599.908V466.927H601.286V475.676ZM610.311 475.676H608.673L606.502 472.387L604.331 475.676H602.693L605.709 471.204L602.81 466.927H604.422L606.502 470.034L608.582 466.927H610.181L607.308 471.217L610.311 475.676Z" fill="white"/>
<path d="M424.564 107.872H419.776L410.524 96.604L407.788 99.232V107.872H404.044V83.644H407.788V94.084L418.336 83.644H423.34L413.116 94.012L424.564 107.872ZM447.64 95.776C447.64 93.112 446.98 90.94 445.66 89.26C444.244 87.412 442.3 86.488 439.828 86.488C437.356 86.488 435.412 87.412 433.996 89.26C432.652 90.964 431.98 93.136 431.98 95.776C431.98 98.416 432.652 100.588 433.996 102.292C435.388 104.092 437.332 104.992 439.828 104.992C442.3 104.992 444.244 104.092 445.66 102.292C446.98 100.612 447.64 98.44 447.64 95.776ZM451.348 95.776C451.348 99.28 450.34 102.22 448.324 104.596C446.164 107.164 443.332 108.448 439.828 108.448C436.276 108.448 433.444 107.176 431.332 104.632C429.364 102.28 428.38 99.328 428.38 95.776C428.38 92.224 429.352 89.26 431.296 86.884C433.432 84.316 436.276 83.032 439.828 83.032C443.332 83.032 446.164 84.328 448.324 86.92C450.34 89.344 451.348 92.296 451.348 95.776ZM477.16 107.872H473.416V96.856H461.788V107.872H458.08V83.644H461.788V93.292H473.416V83.644H477.16V107.872ZM500.74 87.172H493.54V107.872H489.76V87.172H482.596V83.644H500.74V87.172ZM517.876 97.504L514.456 89.008L511.18 97.504H517.876ZM525.94 107.872H521.872L519.244 100.96H509.848L507.148 107.872H503.08L512.692 83.644H516.292L525.94 107.872ZM550.564 107.872H545.776L536.524 96.604L533.788 99.232V107.872H530.044V83.644H533.788V94.084L544.336 83.644H549.34L539.116 94.012L550.564 107.872ZM571.228 87.172H564.028V107.872H560.248V87.172H553.084V83.644H571.228V87.172ZM590.093 100.456C590.093 99.208 589.601 98.272 588.617 97.648C587.777 97.096 586.613 96.82 585.125 96.82H580.121V104.308H585.125C588.437 104.308 590.093 103.024 590.093 100.456ZM593.981 100.42C593.981 102.964 593.069 104.896 591.245 106.216C589.709 107.32 587.693 107.872 585.197 107.872H576.413V83.644H580.193V93.22H585.413C587.669 93.22 589.601 93.784 591.209 94.912C593.057 96.208 593.981 98.044 593.981 100.42ZM599.417 107.872H595.601V83.644H599.417V107.872Z" fill="white"/>
<g clip-path="url(#clip0_62_2)">
<path d="M342.499 231.631C343.616 230.733 344.641 230.296 345.633 230.296C347.067 230.296 348.099 231.208 349.034 232.143C349.142 232.25 349.272 232.3 349.444 232.3C350.231 232.301 351.617 231.314 353.563 229.368C355.851 227.08 356.717 225.624 356.135 225.042C354.557 223.465 354.065 221.884 356.48 218.881C357.345 217.805 358.19 217.282 359.066 217.282C360.247 217.282 361.144 218.226 361.936 219.058C362.073 219.202 362.202 219.338 362.329 219.465C363.224 220.36 363.224 222.312 362.328 224.687C361.345 227.293 359.404 230.128 356.863 232.669C354.898 234.634 352.76 236.222 350.679 237.289C348.863 238.22 347.102 238.718 345.719 238.718C345.719 238.718 345.719 238.718 345.718 238.718C344.853 238.718 344.15 238.53 343.686 238.146C342.743 237.366 340.988 235.922 341 234.207C341.006 233.287 341.511 232.425 342.499 231.631Z" fill="white"/>
</g>
<path d="M371.844 234.068V222.545H374.136V234.068H371.844ZM367.233 229.449V227.165H378.756V229.449H367.233ZM382.665 237L390.285 221.932V221.804H381.472V219.545H393.012V221.881L385.418 237H382.665ZM408.95 219.545V237H406.308V222.188H406.205L402.029 224.915V222.392L406.384 219.545H408.95ZM413.671 237V235.091L419.577 228.972C420.208 228.307 420.728 227.724 421.137 227.224C421.552 226.719 421.862 226.239 422.066 225.784C422.271 225.33 422.373 224.847 422.373 224.335C422.373 223.756 422.237 223.256 421.964 222.835C421.691 222.409 421.319 222.082 420.847 221.855C420.376 221.622 419.844 221.506 419.254 221.506C418.629 221.506 418.083 221.634 417.617 221.889C417.151 222.145 416.793 222.506 416.543 222.972C416.293 223.437 416.168 223.983 416.168 224.608H413.654C413.654 223.545 413.898 222.616 414.387 221.821C414.876 221.026 415.546 220.409 416.398 219.972C417.251 219.528 418.219 219.307 419.305 219.307C420.401 219.307 421.367 219.526 422.202 219.963C423.043 220.395 423.7 220.986 424.171 221.736C424.643 222.48 424.879 223.321 424.879 224.259C424.879 224.906 424.756 225.54 424.512 226.159C424.273 226.778 423.856 227.469 423.259 228.23C422.663 228.986 421.833 229.903 420.771 230.983L417.302 234.614V234.741H425.16V237H413.671ZM434.467 237.239C433.296 237.239 432.251 237.037 431.33 236.634C430.415 236.23 429.691 235.67 429.157 234.955C428.629 234.233 428.344 233.398 428.305 232.449H430.981C431.015 232.966 431.188 233.415 431.501 233.795C431.819 234.17 432.234 234.46 432.745 234.665C433.256 234.869 433.825 234.972 434.45 234.972C435.137 234.972 435.745 234.852 436.273 234.614C436.808 234.375 437.225 234.043 437.526 233.616C437.827 233.185 437.978 232.688 437.978 232.125C437.978 231.54 437.827 231.026 437.526 230.582C437.231 230.134 436.796 229.781 436.222 229.526C435.654 229.27 434.967 229.142 434.16 229.142H432.685V226.994H434.16C434.808 226.994 435.376 226.878 435.864 226.645C436.359 226.412 436.745 226.088 437.023 225.673C437.302 225.253 437.441 224.761 437.441 224.199C437.441 223.659 437.319 223.19 437.075 222.793C436.836 222.389 436.495 222.074 436.052 221.847C435.614 221.619 435.097 221.506 434.501 221.506C433.933 221.506 433.401 221.611 432.907 221.821C432.418 222.026 432.021 222.321 431.714 222.707C431.407 223.088 431.242 223.545 431.219 224.08H428.671C428.7 223.136 428.978 222.307 429.506 221.591C430.04 220.875 430.745 220.315 431.62 219.912C432.495 219.509 433.467 219.307 434.535 219.307C435.654 219.307 436.62 219.526 437.433 219.963C438.251 220.395 438.881 220.972 439.325 221.693C439.773 222.415 439.995 223.205 439.989 224.062C439.995 225.04 439.722 225.869 439.171 226.551C438.626 227.233 437.898 227.69 436.989 227.923V228.06C438.148 228.236 439.046 228.696 439.683 229.44C440.325 230.185 440.643 231.108 440.637 232.21C440.643 233.17 440.376 234.031 439.836 234.793C439.302 235.554 438.572 236.153 437.646 236.591C436.719 237.023 435.66 237.239 434.467 237.239ZM449.844 233.591V231.46L457.386 219.545H459.065V222.682H458L452.605 231.222V231.358H462.943V233.591H449.844ZM458.119 237V232.943L458.136 231.972V219.545H460.634V237H458.119ZM471.675 237.239C470.607 237.239 469.646 237.034 468.794 236.625C467.947 236.21 467.271 235.642 466.766 234.92C466.26 234.199 465.99 233.375 465.956 232.449H468.513C468.575 233.199 468.908 233.815 469.51 234.298C470.112 234.781 470.834 235.023 471.675 235.023C472.345 235.023 472.939 234.869 473.456 234.562C473.979 234.25 474.388 233.821 474.683 233.276C474.984 232.73 475.135 232.108 475.135 231.409C475.135 230.699 474.982 230.065 474.675 229.509C474.368 228.952 473.945 228.514 473.405 228.196C472.871 227.878 472.257 227.716 471.564 227.71C471.036 227.71 470.504 227.801 469.97 227.983C469.436 228.165 469.004 228.403 468.675 228.699L466.263 228.341L467.243 219.545H476.839V221.804H469.433L468.879 226.688H468.982C469.322 226.358 469.774 226.082 470.337 225.861C470.905 225.639 471.513 225.528 472.161 225.528C473.223 225.528 474.169 225.781 474.999 226.287C475.834 226.793 476.49 227.483 476.967 228.358C477.45 229.227 477.689 230.227 477.683 231.358C477.689 232.489 477.433 233.497 476.916 234.384C476.405 235.27 475.695 235.969 474.786 236.48C473.882 236.986 472.845 237.239 471.675 237.239ZM486.89 237.239C486.112 237.227 485.344 237.085 484.589 236.812C483.839 236.54 483.157 236.085 482.543 235.449C481.93 234.812 481.438 233.957 481.069 232.884C480.705 231.81 480.523 230.469 480.523 228.861C480.523 227.338 480.674 225.986 480.975 224.804C481.282 223.622 481.722 222.625 482.296 221.812C482.87 220.994 483.563 220.372 484.376 219.946C485.188 219.52 486.1 219.307 487.112 219.307C488.151 219.307 489.075 219.511 489.881 219.92C490.688 220.33 491.342 220.895 491.842 221.616C492.347 222.338 492.668 223.159 492.805 224.08H490.205C490.029 223.352 489.68 222.759 489.157 222.298C488.634 221.838 487.952 221.608 487.112 221.608C485.833 221.608 484.836 222.165 484.12 223.278C483.41 224.392 483.052 225.94 483.046 227.923H483.174C483.475 227.429 483.844 227.009 484.282 226.662C484.725 226.31 485.219 226.04 485.765 225.852C486.316 225.659 486.896 225.562 487.504 225.562C488.515 225.562 489.43 225.81 490.248 226.304C491.072 226.793 491.728 227.469 492.217 228.332C492.705 229.196 492.95 230.185 492.95 231.298C492.95 232.412 492.697 233.42 492.191 234.324C491.691 235.227 490.987 235.943 490.077 236.472C489.168 236.994 488.106 237.25 486.89 237.239ZM486.881 235.023C487.552 235.023 488.151 234.858 488.68 234.528C489.208 234.199 489.626 233.756 489.933 233.199C490.239 232.642 490.393 232.02 490.393 231.332C490.393 230.662 490.242 230.051 489.941 229.5C489.646 228.949 489.237 228.511 488.714 228.188C488.197 227.864 487.606 227.702 486.941 227.702C486.435 227.702 485.967 227.798 485.535 227.991C485.109 228.185 484.734 228.452 484.41 228.793C484.086 229.134 483.83 229.526 483.643 229.969C483.461 230.406 483.37 230.869 483.37 231.358C483.37 232.011 483.521 232.616 483.822 233.173C484.129 233.73 484.546 234.179 485.075 234.52C485.609 234.855 486.211 235.023 486.881 235.023ZM503.801 227.165V229.381H496.062V227.165H503.801ZM507.165 237L514.785 221.932V221.804H505.972V219.545H517.512V221.881L509.918 237H507.165ZM526.022 237.239C524.8 237.239 523.721 237.028 522.783 236.608C521.852 236.187 521.121 235.608 520.593 234.869C520.065 234.131 519.803 233.29 519.809 232.347C519.803 231.608 519.954 230.929 520.261 230.31C520.573 229.685 520.996 229.165 521.531 228.75C522.065 228.33 522.661 228.062 523.32 227.949V227.847C522.451 227.636 521.755 227.17 521.232 226.449C520.71 225.727 520.451 224.898 520.457 223.96C520.451 223.068 520.687 222.273 521.164 221.574C521.647 220.869 522.309 220.315 523.15 219.912C523.991 219.509 524.948 219.307 526.022 219.307C527.085 219.307 528.033 219.511 528.869 219.92C529.71 220.324 530.371 220.878 530.854 221.582C531.337 222.281 531.582 223.074 531.587 223.96C531.582 224.898 531.315 225.727 530.786 226.449C530.258 227.17 529.57 227.636 528.724 227.847V227.949C529.377 228.062 529.965 228.33 530.488 228.75C531.016 229.165 531.437 229.685 531.749 230.31C532.067 230.929 532.229 231.608 532.235 232.347C532.229 233.29 531.962 234.131 531.434 234.869C530.906 235.608 530.173 236.187 529.235 236.608C528.303 237.028 527.232 237.239 526.022 237.239ZM526.022 235.082C526.744 235.082 527.369 234.963 527.897 234.724C528.425 234.48 528.835 234.142 529.124 233.71C529.414 233.273 529.562 232.761 529.567 232.176C529.562 231.568 529.403 231.031 529.09 230.565C528.783 230.099 528.366 229.733 527.837 229.466C527.309 229.199 526.704 229.065 526.022 229.065C525.335 229.065 524.724 229.199 524.19 229.466C523.656 229.733 523.235 230.099 522.928 230.565C522.621 231.031 522.471 231.568 522.477 232.176C522.471 232.761 522.61 233.273 522.894 233.71C523.184 234.142 523.596 234.48 524.13 234.724C524.664 234.963 525.295 235.082 526.022 235.082ZM526.022 226.96C526.602 226.96 527.116 226.844 527.565 226.611C528.013 226.378 528.366 226.054 528.621 225.639C528.883 225.224 529.016 224.739 529.022 224.182C529.016 223.636 528.886 223.159 528.63 222.75C528.38 222.341 528.031 222.026 527.582 221.804C527.133 221.577 526.613 221.463 526.022 221.463C525.42 221.463 524.891 221.577 524.437 221.804C523.988 222.026 523.638 222.341 523.388 222.75C523.138 223.159 523.016 223.636 523.022 224.182C523.016 224.739 523.141 225.224 523.397 225.639C523.653 226.054 524.005 226.378 524.454 226.611C524.908 226.844 525.431 226.96 526.022 226.96ZM543.036 227.165V229.381H535.297V227.165H543.036ZM552.202 219.307C552.98 219.312 553.747 219.455 554.503 219.733C555.259 220.011 555.94 220.466 556.548 221.097C557.162 221.727 557.651 222.58 558.014 223.653C558.384 224.722 558.571 226.051 558.577 227.642C558.577 229.17 558.423 230.531 558.116 231.724C557.81 232.912 557.369 233.915 556.795 234.733C556.227 235.551 555.537 236.173 554.724 236.599C553.912 237.026 552.997 237.239 551.98 237.239C550.94 237.239 550.017 237.034 549.21 236.625C548.403 236.216 547.747 235.651 547.241 234.929C546.736 234.202 546.42 233.366 546.295 232.423H548.895C549.065 233.173 549.412 233.781 549.935 234.247C550.463 234.707 551.145 234.938 551.98 234.938C553.259 234.938 554.256 234.381 554.972 233.267C555.688 232.148 556.048 230.585 556.054 228.58H555.918C555.622 229.068 555.253 229.489 554.81 229.841C554.372 230.193 553.881 230.466 553.335 230.659C552.79 230.852 552.207 230.949 551.588 230.949C550.582 230.949 549.668 230.702 548.844 230.207C548.02 229.713 547.364 229.034 546.875 228.17C546.386 227.307 546.142 226.321 546.142 225.213C546.142 224.111 546.392 223.111 546.892 222.213C547.398 221.315 548.102 220.605 549.006 220.082C549.915 219.554 550.98 219.295 552.202 219.307ZM552.21 221.523C551.545 221.523 550.946 221.687 550.412 222.017C549.884 222.341 549.466 222.781 549.159 223.338C548.852 223.889 548.699 224.503 548.699 225.179C548.699 225.855 548.847 226.469 549.142 227.02C549.443 227.565 549.852 228 550.369 228.324C550.892 228.642 551.489 228.801 552.159 228.801C552.659 228.801 553.125 228.705 553.557 228.511C553.989 228.318 554.366 228.051 554.69 227.71C555.014 227.364 555.267 226.972 555.449 226.534C555.631 226.097 555.722 225.636 555.722 225.153C555.722 224.511 555.568 223.915 555.261 223.364C554.96 222.812 554.545 222.369 554.017 222.034C553.489 221.693 552.886 221.523 552.21 221.523ZM567.732 237.29C566.386 237.284 565.235 236.929 564.281 236.224C563.326 235.52 562.596 234.494 562.09 233.148C561.585 231.801 561.332 230.179 561.332 228.281C561.332 226.389 561.585 224.773 562.09 223.432C562.602 222.091 563.335 221.068 564.289 220.364C565.249 219.659 566.397 219.307 567.732 219.307C569.067 219.307 570.212 219.662 571.167 220.372C572.121 221.077 572.852 222.099 573.357 223.44C573.869 224.776 574.124 226.389 574.124 228.281C574.124 230.185 573.871 231.81 573.366 233.156C572.86 234.497 572.13 235.523 571.175 236.233C570.221 236.938 569.073 237.29 567.732 237.29ZM567.732 235.014C568.914 235.014 569.837 234.438 570.502 233.284C571.173 232.131 571.508 230.463 571.508 228.281C571.508 226.832 571.354 225.608 571.048 224.608C570.746 223.602 570.312 222.841 569.744 222.324C569.181 221.801 568.511 221.54 567.732 221.54C566.556 221.54 565.633 222.119 564.962 223.278C564.292 224.437 563.954 226.105 563.948 228.281C563.948 229.736 564.099 230.966 564.4 231.972C564.707 232.972 565.141 233.73 565.704 234.247C566.266 234.759 566.942 235.014 567.732 235.014Z" fill="white"/>
<path d="M351.26 202.12C351.26 203.44 350.82 204.487 349.94 205.26C349.127 205.993 348.087 206.36 346.82 206.36C345.487 206.36 344.427 205.993 343.64 205.26C342.8 204.487 342.38 203.427 342.38 202.08V201.6H344.46C344.46 203.453 345.227 204.38 346.76 204.38C348.307 204.38 349.08 203.6 349.08 202.04C349.08 201.187 348.78 200.607 348.18 200.3C347.7 200.06 346.827 199.94 345.56 199.94V197.92H346.02C346.953 197.92 347.64 197.78 348.08 197.5C348.547 197.193 348.78 196.7 348.78 196.02C348.78 195.46 348.607 195.02 348.26 194.7C347.913 194.38 347.46 194.22 346.9 194.22C346.193 194.22 345.667 194.413 345.32 194.8C344.973 195.227 344.793 195.9 344.78 196.82H342.74C342.753 195.367 343.147 194.233 343.92 193.42C344.667 192.633 345.667 192.24 346.92 192.24C348.027 192.24 348.947 192.553 349.68 193.18C350.453 193.86 350.84 194.787 350.84 195.96C350.84 197.147 350.407 198.093 349.54 198.8C350.687 199.507 351.26 200.613 351.26 202.12ZM361.58 202.86C361.58 202.46 361.393 202.14 361.02 201.9C360.647 201.647 360.213 201.52 359.72 201.52H356.86V204.14H359.72C360.253 204.14 360.693 204.027 361.04 203.8C361.4 203.573 361.58 203.26 361.58 202.86ZM361.02 198.68C361.02 198.067 360.587 197.76 359.72 197.76H356.86V199.72H359.72C360.08 199.72 360.387 199.62 360.64 199.42C360.893 199.22 361.02 198.973 361.02 198.68ZM363.62 203C363.62 204.027 363.167 204.813 362.26 205.36C361.567 205.813 360.72 206.04 359.72 206.04H354.84V195.86H359.72C360.507 195.86 361.227 196.073 361.88 196.5C362.653 196.993 363.04 197.673 363.04 198.54C363.04 199.42 362.62 200.067 361.78 200.48C362.273 200.693 362.693 201.007 363.04 201.42C363.427 201.913 363.62 202.44 363.62 203ZM373.667 200.94C373.667 200.007 373.434 199.207 372.967 198.54C372.461 197.82 371.801 197.46 370.987 197.46C370.161 197.46 369.501 197.82 369.007 198.54C368.541 199.207 368.307 200.007 368.307 200.94C368.307 201.887 368.547 202.687 369.027 203.34C369.521 204.06 370.174 204.42 370.987 204.42C371.787 204.42 372.441 204.06 372.947 203.34C373.427 202.687 373.667 201.887 373.667 200.94ZM375.647 200.96C375.647 202.387 375.241 203.607 374.427 204.62C373.521 205.74 372.374 206.3 370.987 206.3C369.561 206.3 368.407 205.747 367.527 204.64C366.714 203.627 366.307 202.4 366.307 200.96C366.307 199.533 366.707 198.307 367.507 197.28C368.387 196.16 369.547 195.6 370.987 195.6C372.414 195.6 373.567 196.167 374.447 197.3C375.247 198.327 375.647 199.547 375.647 200.96ZM387.827 206.04H385.907V201.7H381.527V206.04H379.607V195.86H381.527V199.84H385.907V195.86H387.827V206.04ZM400.16 195.86L396.02 200.16L400.12 206.04H397.84L394.68 201.52L393.88 202.28V206.04H391.94V195.86H393.88V199.74L397.64 195.86H400.16ZM412.249 206.04H410.289V199.78L405.669 204.9V206.04H403.709V195.86H405.669V202.08L410.289 196.98V195.86H412.249V206.04Z" fill="white"/>
<defs>
<clipPath id="clip0_62_2">
<rect width="22" height="22" fill="white" transform="matrix(-1 0 0 1 363 217)"/>
</clipPath>
</defs>
</svg>
