<svg width="1000" height="849" viewBox="0 0 1000 849" fill="none" xmlns="http://www.w3.org/2000/svg">
<path d="M312.71 821.352C312.71 819.784 311.646 819 309.518 819H305.366V823.848H309.518C311.646 823.848 312.71 823.016 312.71 821.352ZM315.206 821.352C315.206 823.048 314.63 824.312 313.478 825.144C312.502 825.88 311.214 826.248 309.614 826.248H302.894V810.096H314.462V812.496H305.366V816.576H309.614C311.118 816.576 312.382 816.944 313.406 817.68C314.606 818.528 315.206 819.752 315.206 821.352ZM330.878 826.248H319.526V810.096H330.614V812.496H321.998V816.84H329.894V819.24H321.998V823.848H330.878V826.248ZM345.398 821.544C345.398 823.128 344.87 824.384 343.814 825.312C342.838 826.192 341.59 826.632 340.07 826.632C338.47 826.632 337.198 826.192 336.254 825.312C335.246 824.384 334.742 823.112 334.742 821.496V820.92H337.238C337.238 823.144 338.158 824.256 339.998 824.256C341.854 824.256 342.782 823.32 342.782 821.448C342.782 820.424 342.422 819.728 341.702 819.36C341.126 819.072 340.078 818.928 338.558 818.928V816.504H339.11C340.23 816.504 341.054 816.336 341.582 816C342.142 815.632 342.422 815.04 342.422 814.224C342.422 813.552 342.214 813.024 341.798 812.64C341.382 812.256 340.838 812.064 340.166 812.064C339.318 812.064 338.686 812.296 338.27 812.76C337.854 813.272 337.638 814.08 337.622 815.184H335.174C335.19 813.44 335.662 812.08 336.59 811.104C337.486 810.16 338.686 809.688 340.19 809.688C341.518 809.688 342.622 810.064 343.502 810.816C344.43 811.632 344.894 812.744 344.894 814.152C344.894 815.576 344.374 816.712 343.334 817.56C344.71 818.408 345.398 819.736 345.398 821.544ZM368.973 826.248H366.477V812.424H358.725V826.248H356.253V810.096H368.973V826.248ZM383.205 814.872C383.205 813.288 382.157 812.496 380.061 812.496H376.725V817.368H379.437C381.949 817.368 383.205 816.536 383.205 814.872ZM385.677 814.896C385.677 818.128 383.693 819.744 379.725 819.744H376.725V826.248H374.253V810.096H380.349C381.933 810.096 383.173 810.448 384.069 811.152C385.141 811.968 385.677 813.216 385.677 814.896ZM398.133 819.336L395.853 813.672L393.669 819.336H398.133ZM403.509 826.248H400.797L399.045 821.64H392.781L390.98 826.248H388.269L394.677 810.096H397.077L403.509 826.248ZM416.132 821.544C416.132 823.128 415.604 824.384 414.548 825.312C413.572 826.192 412.324 826.632 410.804 826.632C409.204 826.632 407.932 826.192 406.988 825.312C405.98 824.384 405.476 823.112 405.476 821.496V820.92H407.972C407.972 823.144 408.892 824.256 410.732 824.256C412.588 824.256 413.516 823.32 413.516 821.448C413.516 820.424 413.156 819.728 412.436 819.36C411.86 819.072 410.812 818.928 409.292 818.928V816.504H409.844C410.964 816.504 411.788 816.336 412.316 816C412.876 815.632 413.156 815.04 413.156 814.224C413.156 813.552 412.948 813.024 412.532 812.64C412.116 812.256 411.572 812.064 410.9 812.064C410.052 812.064 409.42 812.296 409.004 812.76C408.588 813.272 408.372 814.08 408.356 815.184H405.908C405.924 813.44 406.396 812.08 407.324 811.104C408.22 810.16 409.42 809.688 410.924 809.688C412.252 809.688 413.356 810.064 414.236 810.816C415.164 811.632 415.628 812.744 415.628 814.152C415.628 815.576 415.108 816.712 414.068 817.56C415.444 818.408 416.132 819.736 416.132 821.544ZM431.157 823.992V812.496H426.525C426.461 814.4 426.181 816.368 425.685 818.4C425.413 819.504 425.093 820.52 424.725 821.448C424.357 822.376 423.949 823.224 423.501 823.992H431.157ZM436.149 829.56H434.349C433.741 827.464 432.861 826.416 431.709 826.416H422.877C422.253 826.416 421.813 826.736 421.557 827.376C421.381 827.792 421.261 828.52 421.197 829.56H419.157L419.349 825.624C420.213 824.68 421.021 823.472 421.773 822C422.461 820.656 422.973 819.328 423.309 818.016C423.821 815.92 424.077 813.28 424.077 810.096H433.773V824.304C433.773 824.576 433.941 824.808 434.277 825C434.661 825.192 435.173 825.288 435.813 825.288L436.149 829.56ZM452.504 826.248H450.008V818.904H442.256V826.248H439.784V810.096H442.256V816.528H450.008V810.096H452.504V826.248ZM470.144 826.248H467.648V815.352L460.64 824.904V826.248H458.144V810.096H460.64V820.944L467.648 811.392V810.096H470.144V826.248ZM489.44 826.248H486.248L480.08 818.736L478.256 820.488V826.248H475.76V810.096H478.256V817.056L485.288 810.096H488.624L481.808 817.008L489.44 826.248ZM504.824 818.184C504.824 816.408 504.384 814.96 503.504 813.84C502.56 812.608 501.264 811.992 499.616 811.992C497.968 811.992 496.672 812.608 495.728 813.84C494.832 814.976 494.384 816.424 494.384 818.184C494.384 819.944 494.832 821.392 495.728 822.528C496.656 823.728 497.952 824.328 499.616 824.328C501.264 824.328 502.56 823.728 503.504 822.528C504.384 821.408 504.824 819.96 504.824 818.184ZM507.296 818.184C507.296 820.52 506.624 822.48 505.28 824.064C503.84 825.776 501.952 826.632 499.616 826.632C497.248 826.632 495.36 825.784 493.952 824.088C492.64 822.52 491.984 820.552 491.984 818.184C491.984 815.816 492.632 813.84 493.928 812.256C495.352 810.544 497.248 809.688 499.616 809.688C501.952 809.688 503.84 810.552 505.28 812.28C506.624 813.896 507.296 815.864 507.296 818.184ZM521.6 821.592C521.6 819.928 520.44 819.096 518.12 819.096H514.256V823.848H518.024C519.096 823.848 519.896 823.736 520.424 823.512C521.208 823.176 521.6 822.536 521.6 821.592ZM520.904 814.608C520.904 813.712 520.504 813.104 519.704 812.784C519.224 812.592 518.432 812.496 517.328 812.496H514.256V816.72H517.184C518.352 816.72 519.168 816.64 519.632 816.48C520.48 816.16 520.904 815.536 520.904 814.608ZM524.144 821.64C524.144 822.104 524.072 822.552 523.928 822.984C523.8 823.416 523.616 823.816 523.376 824.184C523.136 824.552 522.84 824.88 522.488 825.168C522.152 825.472 521.768 825.704 521.336 825.864C520.76 826.12 519.272 826.248 516.872 826.248H511.784V810.096H517.544C518.024 810.096 518.44 810.112 518.792 810.144C519.16 810.16 519.456 810.184 519.68 810.216C520.768 810.408 521.656 810.872 522.344 811.608C523.064 812.408 523.424 813.376 523.424 814.512C523.424 815.792 522.84 816.84 521.672 817.656C522.408 818.008 523 818.544 523.448 819.264C523.912 819.984 524.144 820.776 524.144 821.64ZM547.863 826.248H545.367V815.352L538.359 824.904V826.248H535.863V810.096H538.359V820.944L545.367 811.392V810.096H547.863V826.248ZM570.045 821.592C570.045 819.928 568.885 819.096 566.565 819.096H562.701V823.848H566.469C567.541 823.848 568.341 823.736 568.869 823.512C569.653 823.176 570.045 822.536 570.045 821.592ZM569.349 814.608C569.349 813.712 568.949 813.104 568.149 812.784C567.669 812.592 566.877 812.496 565.773 812.496H562.701V816.72H565.629C566.797 816.72 567.613 816.64 568.077 816.48C568.925 816.16 569.349 815.536 569.349 814.608ZM572.589 821.64C572.589 822.104 572.517 822.552 572.373 822.984C572.245 823.416 572.061 823.816 571.821 824.184C571.581 824.552 571.285 824.88 570.933 825.168C570.597 825.472 570.213 825.704 569.781 825.864C569.205 826.12 567.717 826.248 565.317 826.248H560.229V810.096H565.989C566.469 810.096 566.885 810.112 567.237 810.144C567.605 810.16 567.901 810.184 568.125 810.216C569.213 810.408 570.101 810.872 570.789 811.608C571.509 812.408 571.869 813.376 571.869 814.512C571.869 815.792 571.285 816.84 570.117 817.656C570.853 818.008 571.445 818.544 571.893 819.264C572.357 819.984 572.589 820.776 572.589 821.64ZM586.245 821.304C586.245 820.472 585.917 819.848 585.261 819.432C584.701 819.064 583.925 818.88 582.933 818.88H579.597V823.872H582.933C585.141 823.872 586.245 823.016 586.245 821.304ZM588.837 821.28C588.837 822.976 588.229 824.264 587.013 825.144C585.989 825.88 584.645 826.248 582.981 826.248H577.125V810.096H579.645V816.48H583.125C584.629 816.48 585.917 816.856 586.989 817.608C588.221 818.472 588.837 819.696 588.837 821.28ZM592.461 826.248H589.917V810.096H592.461V826.248ZM609.122 826.248H606.098L602.09 820.176L598.082 826.248H595.058L600.626 817.992L595.274 810.096H598.25L602.09 815.832L605.93 810.096H608.882L603.578 818.016L609.122 826.248ZM624.074 818.184C624.074 816.408 623.634 814.96 622.754 813.84C621.81 812.608 620.514 811.992 618.866 811.992C617.218 811.992 615.922 812.608 614.978 813.84C614.082 814.976 613.634 816.424 613.634 818.184C613.634 819.944 614.082 821.392 614.978 822.528C615.906 823.728 617.202 824.328 618.866 824.328C620.514 824.328 621.81 823.728 622.754 822.528C623.634 821.408 624.074 819.96 624.074 818.184ZM626.546 818.184C626.546 820.52 625.874 822.48 624.53 824.064C623.09 825.776 621.202 826.632 618.866 826.632C616.498 826.632 614.61 825.784 613.202 824.088C611.89 822.52 611.234 820.552 611.234 818.184C611.234 815.816 611.882 813.84 613.178 812.256C614.602 810.544 616.498 809.688 618.866 809.688C621.202 809.688 623.09 810.552 624.53 812.28C625.874 813.896 626.546 815.864 626.546 818.184ZM641.93 823.992V812.496H637.298C637.234 814.4 636.954 816.368 636.458 818.4C636.186 819.504 635.866 820.52 635.498 821.448C635.13 822.376 634.722 823.224 634.274 823.992H641.93ZM646.922 829.56H645.122C644.514 827.464 643.634 826.416 642.482 826.416H633.65C633.026 826.416 632.586 826.736 632.33 827.376C632.154 827.792 632.034 828.52 631.97 829.56H629.93L630.122 825.624C630.986 824.68 631.794 823.472 632.546 822C633.234 820.656 633.746 819.328 634.082 818.016C634.594 815.92 634.85 813.28 634.85 810.096H644.546V824.304C644.546 824.576 644.714 824.808 645.05 825C645.434 825.192 645.946 825.288 646.586 825.288L646.922 829.56ZM663.277 826.248H660.781V818.904H653.029V826.248H650.557V810.096H653.029V816.528H660.781V810.096H663.277V826.248ZM677.581 821.304C677.581 820.472 677.253 819.848 676.597 819.432C676.037 819.064 675.261 818.88 674.269 818.88H670.933V823.872H674.269C676.477 823.872 677.581 823.016 677.581 821.304ZM680.173 821.28C680.173 822.976 679.565 824.264 678.349 825.144C677.325 825.88 675.981 826.248 674.317 826.248H668.461V810.096H670.981V816.48H674.461C675.965 816.48 677.253 816.856 678.325 817.608C679.557 818.472 680.173 819.696 680.173 821.28ZM683.797 826.248H681.253V810.096H683.797V826.248ZM700.458 826.248H697.434L693.426 820.176L689.418 826.248H686.394L691.962 817.992L686.61 810.096H689.586L693.426 815.832L697.266 810.096H700.218L694.914 818.016L700.458 826.248Z" fill="#271100"/>
<rect x="1" y="172" width="999" height="243" fill="white" fill-opacity="0.9"/>
<rect y="425" width="495" height="243" fill="white" fill-opacity="0.9"/>
<rect x="505" y="425" width="495" height="243" fill="white" fill-opacity="0.9"/>
<path d="M160.921 543H159.052C158.912 542.304 158.661 541.661 158.296 541.071C157.938 540.474 157.487 539.954 156.944 539.51C156.4 539.066 155.784 538.721 155.094 538.476C154.405 538.231 153.659 538.108 152.857 538.108C151.571 538.108 150.398 538.443 149.337 539.112C148.283 539.782 147.438 540.766 146.802 542.065C146.172 543.358 145.857 544.942 145.857 546.818C145.857 548.707 146.172 550.298 146.802 551.591C147.438 552.884 148.283 553.865 149.337 554.534C150.398 555.197 151.571 555.528 152.857 555.528C153.659 555.528 154.405 555.406 155.094 555.161C155.784 554.915 156.4 554.574 156.944 554.136C157.487 553.692 157.938 553.172 158.296 552.575C158.661 551.979 158.912 551.332 159.052 550.636H160.921C160.755 551.571 160.444 552.443 159.986 553.251C159.536 554.054 158.959 554.756 158.256 555.359C157.56 555.963 156.758 556.433 155.85 556.771C154.942 557.109 153.944 557.278 152.857 557.278C151.147 557.278 149.629 556.851 148.303 555.996C146.977 555.134 145.937 553.921 145.181 552.357C144.432 550.792 144.057 548.946 144.057 546.818C144.057 544.69 144.432 542.844 145.181 541.28C145.937 539.715 146.977 538.506 148.303 537.651C149.629 536.789 151.147 536.358 152.857 536.358C153.944 536.358 154.942 536.527 155.85 536.865C156.758 537.196 157.56 537.667 158.256 538.277C158.959 538.88 159.536 539.583 159.986 540.385C160.444 541.187 160.755 542.059 160.921 543ZM175.918 536L176.843 537.124C176.425 537.528 175.924 537.806 175.341 537.959C174.764 538.105 174.118 538.187 173.402 538.207C172.693 538.227 171.927 538.257 171.105 538.297C169.925 538.357 168.954 538.665 168.192 539.222C167.43 539.772 166.85 540.567 166.452 541.608C166.061 542.642 165.816 543.905 165.716 545.396H165.915C166.425 544.356 167.145 543.563 168.073 543.02C169.007 542.476 170.035 542.205 171.155 542.205C172.328 542.205 173.382 542.493 174.317 543.07C175.258 543.64 176.001 544.478 176.544 545.585C177.094 546.686 177.369 548.028 177.369 549.612C177.369 551.177 177.094 552.539 176.544 553.699C175.994 554.852 175.225 555.744 174.237 556.374C173.25 557.003 172.093 557.318 170.767 557.318C169.435 557.318 168.268 557.007 167.267 556.384C166.273 555.754 165.501 554.829 164.95 553.609C164.407 552.383 164.135 550.875 164.135 549.085V547.484C164.135 543.925 164.699 541.247 165.825 539.45C166.952 537.654 168.686 536.716 171.026 536.636C171.781 536.61 172.468 536.603 173.084 536.616C173.7 536.623 174.244 536.593 174.715 536.527C175.185 536.454 175.586 536.278 175.918 536ZM170.767 555.697C171.755 555.697 172.61 555.449 173.333 554.952C174.055 554.448 174.612 553.739 175.003 552.824C175.401 551.909 175.6 550.839 175.6 549.612C175.6 548.393 175.397 547.352 174.993 546.49C174.595 545.628 174.039 544.969 173.323 544.511C172.607 544.054 171.768 543.825 170.807 543.825C170.051 543.825 169.372 543.971 168.769 544.263C168.172 544.548 167.662 544.955 167.237 545.486C166.813 546.016 166.488 546.639 166.263 547.355C166.038 548.071 165.922 548.857 165.915 549.712C165.915 551.561 166.346 553.023 167.208 554.097C168.076 555.164 169.262 555.697 170.767 555.697ZM187.181 557.318C185.862 557.318 184.695 556.983 183.681 556.314C182.673 555.644 181.885 554.72 181.314 553.54C180.744 552.353 180.459 550.984 180.459 549.433C180.459 547.869 180.744 546.493 181.314 545.307C181.885 544.114 182.673 543.186 183.681 542.523C184.695 541.853 185.862 541.518 187.181 541.518C188.5 541.518 189.663 541.853 190.671 542.523C191.679 543.192 192.467 544.12 193.037 545.307C193.614 546.493 193.903 547.869 193.903 549.433C193.903 550.984 193.617 552.353 193.047 553.54C192.477 554.72 191.685 555.644 190.671 556.314C189.663 556.983 188.5 557.318 187.181 557.318ZM187.181 555.697C188.242 555.697 189.14 555.412 189.876 554.842C190.611 554.272 191.168 553.513 191.546 552.565C191.93 551.617 192.123 550.573 192.123 549.433C192.123 548.293 191.93 547.246 191.546 546.291C191.168 545.337 190.611 544.571 189.876 543.994C189.14 543.418 188.242 543.129 187.181 543.129C186.127 543.129 185.229 543.418 184.486 543.994C183.751 544.571 183.19 545.337 182.806 546.291C182.428 547.246 182.239 548.293 182.239 549.433C182.239 550.573 182.428 551.617 182.806 552.565C183.19 553.513 183.751 554.272 184.486 554.842C185.222 555.412 186.12 555.697 187.181 555.697ZM197.788 562.727V541.727H199.508V544.641H199.717C199.929 544.183 200.221 543.716 200.592 543.239C200.963 542.755 201.454 542.347 202.063 542.016C202.68 541.684 203.455 541.518 204.39 541.518C205.65 541.518 206.75 541.85 207.691 542.513C208.639 543.169 209.375 544.09 209.899 545.277C210.429 546.457 210.694 547.832 210.694 549.403C210.694 550.981 210.429 552.363 209.899 553.55C209.375 554.736 208.639 555.661 207.691 556.324C206.75 556.987 205.656 557.318 204.41 557.318C203.489 557.318 202.716 557.152 202.093 556.821C201.477 556.49 200.976 556.082 200.592 555.598C200.214 555.107 199.922 554.63 199.717 554.166H199.558V562.727H197.788ZM199.538 549.374C199.538 550.607 199.72 551.7 200.085 552.655C200.456 553.603 200.986 554.348 201.676 554.892C202.372 555.429 203.213 555.697 204.201 555.697C205.215 555.697 206.07 555.419 206.767 554.862C207.469 554.299 208.003 553.54 208.367 552.585C208.739 551.631 208.924 550.56 208.924 549.374C208.924 548.2 208.742 547.143 208.377 546.202C208.019 545.26 207.489 544.515 206.786 543.964C206.084 543.408 205.222 543.129 204.201 543.129C203.207 543.129 202.362 543.398 201.666 543.935C200.97 544.465 200.439 545.201 200.075 546.142C199.717 547.077 199.538 548.154 199.538 549.374ZM214.577 557V541.727H216.347V548.598H218.007L223.685 541.727H225.972L219.847 549.075L226.111 557H223.824L218.554 550.268H216.347V557H214.577ZM233.28 557.348C232.359 557.348 231.517 557.169 230.754 556.811C229.992 556.446 229.386 555.923 228.935 555.24C228.484 554.551 228.259 553.715 228.259 552.734C228.259 551.979 228.401 551.342 228.686 550.825C228.971 550.308 229.376 549.884 229.899 549.553C230.423 549.221 231.043 548.959 231.759 548.767C232.475 548.575 233.263 548.426 234.125 548.32C234.98 548.214 235.703 548.121 236.293 548.041C236.889 547.962 237.343 547.836 237.655 547.663C237.967 547.491 238.122 547.213 238.122 546.828V546.47C238.122 545.429 237.811 544.611 237.188 544.014C236.571 543.411 235.683 543.109 234.523 543.109C233.423 543.109 232.524 543.351 231.828 543.835C231.139 544.319 230.655 544.889 230.377 545.545L228.696 544.939C229.041 544.104 229.518 543.437 230.128 542.94C230.738 542.437 231.421 542.075 232.176 541.857C232.932 541.631 233.698 541.518 234.473 541.518C235.057 541.518 235.663 541.595 236.293 541.747C236.929 541.9 237.519 542.165 238.063 542.543C238.606 542.914 239.047 543.434 239.385 544.104C239.723 544.767 239.892 545.608 239.892 546.629V557H238.122V554.584H238.013C237.801 555.035 237.486 555.472 237.068 555.896C236.651 556.321 236.127 556.669 235.497 556.94C234.868 557.212 234.128 557.348 233.28 557.348ZM233.519 555.727C234.46 555.727 235.275 555.518 235.965 555.101C236.654 554.683 237.184 554.13 237.556 553.44C237.933 552.744 238.122 551.979 238.122 551.143V548.936C237.99 549.062 237.768 549.175 237.456 549.274C237.151 549.374 236.797 549.463 236.392 549.543C235.994 549.616 235.597 549.679 235.199 549.732C234.801 549.785 234.443 549.831 234.125 549.871C233.263 549.977 232.528 550.143 231.918 550.368C231.308 550.593 230.841 550.905 230.516 551.303C230.191 551.694 230.029 552.197 230.029 552.814C230.029 553.742 230.36 554.461 231.023 554.972C231.686 555.475 232.518 555.727 233.519 555.727ZM260.46 554.524L266.197 541.727H267.917L261.166 557H259.754L253.082 541.727H254.772L260.46 554.524ZM254.245 541.727V557H252.475V541.727H254.245ZM266.674 557V541.727H268.444V557H266.674ZM279.322 557.318C277.897 557.318 276.664 556.987 275.623 556.324C274.582 555.654 273.777 554.73 273.207 553.55C272.643 552.363 272.362 550.998 272.362 549.453C272.362 547.915 272.643 546.55 273.207 545.357C273.777 544.157 274.562 543.219 275.563 542.543C276.571 541.86 277.734 541.518 279.053 541.518C279.882 541.518 280.681 541.671 281.45 541.976C282.219 542.274 282.908 542.735 283.518 543.358C284.134 543.974 284.622 544.753 284.98 545.695C285.338 546.629 285.517 547.736 285.517 549.016V549.891H273.585V548.33H283.707C283.707 547.348 283.508 546.467 283.11 545.685C282.719 544.896 282.172 544.273 281.47 543.815C280.774 543.358 279.968 543.129 279.053 543.129C278.086 543.129 277.234 543.388 276.498 543.905C275.762 544.422 275.186 545.105 274.768 545.953C274.357 546.802 274.148 547.73 274.142 548.737V549.672C274.142 550.885 274.35 551.946 274.768 552.854C275.192 553.755 275.792 554.455 276.568 554.952C277.343 555.449 278.261 555.697 279.322 555.697C280.044 555.697 280.677 555.585 281.221 555.359C281.771 555.134 282.232 554.832 282.603 554.455C282.981 554.07 283.266 553.649 283.458 553.192L285.139 553.739C284.907 554.382 284.526 554.975 283.995 555.518C283.472 556.062 282.815 556.5 282.026 556.831C281.244 557.156 280.343 557.318 279.322 557.318ZM300.414 536L301.339 537.124C300.921 537.528 300.421 537.806 299.837 537.959C299.26 538.105 298.614 538.187 297.898 538.207C297.189 538.227 296.423 538.257 295.601 538.297C294.421 538.357 293.45 538.665 292.688 539.222C291.926 539.772 291.346 540.567 290.948 541.608C290.557 542.642 290.312 543.905 290.212 545.396H290.411C290.921 544.356 291.641 543.563 292.569 543.02C293.503 542.476 294.531 542.205 295.651 542.205C296.824 542.205 297.878 542.493 298.813 543.07C299.754 543.64 300.497 544.478 301.04 545.585C301.59 546.686 301.866 548.028 301.866 549.612C301.866 551.177 301.59 552.539 301.04 553.699C300.49 554.852 299.721 555.744 298.733 556.374C297.746 557.003 296.589 557.318 295.263 557.318C293.931 557.318 292.764 557.007 291.763 556.384C290.769 555.754 289.997 554.829 289.447 553.609C288.903 552.383 288.631 550.875 288.631 549.085V547.484C288.631 543.925 289.195 541.247 290.322 539.45C291.448 537.654 293.182 536.716 295.522 536.636C296.278 536.61 296.964 536.603 297.58 536.616C298.197 536.623 298.74 536.593 299.211 536.527C299.681 536.454 300.082 536.278 300.414 536ZM295.263 555.697C296.251 555.697 297.106 555.449 297.829 554.952C298.551 554.448 299.108 553.739 299.499 552.824C299.897 551.909 300.096 550.839 300.096 549.612C300.096 548.393 299.894 547.352 299.489 546.49C299.091 545.628 298.535 544.969 297.819 544.511C297.103 544.054 296.264 543.825 295.303 543.825C294.547 543.825 293.868 543.971 293.265 544.263C292.668 544.548 292.158 544.955 291.733 545.486C291.309 546.016 290.984 546.639 290.759 547.355C290.534 548.071 290.418 548.857 290.411 549.712C290.411 551.561 290.842 553.023 291.704 554.097C292.572 555.164 293.759 555.697 295.263 555.697ZM311.916 557.318C310.49 557.318 309.258 556.987 308.217 556.324C307.176 555.654 306.371 554.73 305.801 553.55C305.237 552.363 304.955 550.998 304.955 549.453C304.955 547.915 305.237 546.55 305.801 545.357C306.371 544.157 307.156 543.219 308.157 542.543C309.165 541.86 310.328 541.518 311.647 541.518C312.476 541.518 313.275 541.671 314.044 541.976C314.812 542.274 315.502 542.735 316.112 543.358C316.728 543.974 317.215 544.753 317.573 545.695C317.931 546.629 318.11 547.736 318.11 549.016V549.891H306.178V548.33H316.301C316.301 547.348 316.102 546.467 315.704 545.685C315.313 544.896 314.766 544.273 314.063 543.815C313.367 543.358 312.562 543.129 311.647 543.129C310.679 543.129 309.828 543.388 309.092 543.905C308.356 544.422 307.779 545.105 307.362 545.953C306.951 546.802 306.742 547.73 306.735 548.737V549.672C306.735 550.885 306.944 551.946 307.362 552.854C307.786 553.755 308.386 554.455 309.161 554.952C309.937 555.449 310.855 555.697 311.916 555.697C312.638 555.697 313.271 555.585 313.815 555.359C314.365 555.134 314.826 554.832 315.197 554.455C315.575 554.07 315.86 553.649 316.052 553.192L317.732 553.739C317.5 554.382 317.119 554.975 316.589 555.518C316.065 556.062 315.409 556.5 314.62 556.831C313.838 557.156 312.936 557.318 311.916 557.318ZM320.509 557V555.33H320.986C321.53 555.33 321.967 555.23 322.299 555.031C322.637 554.826 322.899 554.481 323.084 553.997C323.27 553.513 323.409 552.854 323.502 552.018C323.595 551.183 323.668 550.136 323.721 548.876L324.049 541.727H333.753V557H331.974V543.398H325.729L325.441 549.473C325.381 550.713 325.282 551.803 325.143 552.744C325.01 553.686 324.791 554.471 324.486 555.101C324.188 555.731 323.77 556.205 323.233 556.523C322.703 556.841 322.007 557 321.145 557H320.509ZM340.214 554.484L348.278 541.727H350.396V557H348.626V544.243L340.592 557H338.444V541.727H340.214V554.484Z" fill="#271100"/>
<path d="M650.13 557V536.636H656.703C658.148 536.636 659.354 536.915 660.322 537.472C661.297 538.022 662.029 538.771 662.52 539.719C663.017 540.667 663.265 541.734 663.265 542.92C663.265 544.107 663.02 545.178 662.529 546.132C662.039 547.08 661.31 547.832 660.342 548.389C659.374 548.939 658.171 549.214 656.733 549.214H651.562V547.544H656.683C657.75 547.544 658.635 547.345 659.338 546.947C660.04 546.543 660.564 545.993 660.909 545.297C661.26 544.601 661.436 543.809 661.436 542.92C661.436 542.032 661.26 541.24 660.909 540.544C660.564 539.848 660.037 539.301 659.328 538.903C658.625 538.506 657.734 538.307 656.653 538.307H651.99V557H650.13ZM673.273 557.318C671.848 557.318 670.615 556.987 669.574 556.324C668.533 555.654 667.728 554.73 667.158 553.55C666.595 552.363 666.313 550.998 666.313 549.453C666.313 547.915 666.595 546.55 667.158 545.357C667.728 544.157 668.514 543.219 669.515 542.543C670.522 541.86 671.685 541.518 673.005 541.518C673.833 541.518 674.632 541.671 675.401 541.976C676.17 542.274 676.859 542.735 677.469 543.358C678.086 543.974 678.573 544.753 678.931 545.695C679.289 546.629 679.468 547.736 679.468 549.016V549.891H667.536V548.33H677.658C677.658 547.348 677.459 546.467 677.061 545.685C676.67 544.896 676.123 544.273 675.421 543.815C674.725 543.358 673.919 543.129 673.005 543.129C672.037 543.129 671.185 543.388 670.449 543.905C669.713 544.422 669.137 545.105 668.719 545.953C668.308 546.802 668.099 547.73 668.093 548.737V549.672C668.093 550.885 668.301 551.946 668.719 552.854C669.143 553.755 669.743 554.455 670.519 554.952C671.294 555.449 672.212 555.697 673.273 555.697C673.996 555.697 674.629 555.585 675.172 555.359C675.722 555.134 676.183 554.832 676.554 554.455C676.932 554.07 677.217 553.649 677.409 553.192L679.09 553.739C678.858 554.382 678.477 554.975 677.946 555.518C677.423 556.062 676.766 556.5 675.978 556.831C675.195 557.156 674.294 557.318 673.273 557.318ZM691.352 554.524L697.089 541.727H698.81L692.058 557H690.646L683.974 541.727H685.665L691.352 554.524ZM685.138 541.727V557H683.368V541.727H685.138ZM697.567 557V541.727H699.337V557H697.567ZM709.976 557.318C708.657 557.318 707.49 556.983 706.476 556.314C705.468 555.644 704.679 554.72 704.109 553.54C703.539 552.353 703.254 550.984 703.254 549.433C703.254 547.869 703.539 546.493 704.109 545.307C704.679 544.114 705.468 543.186 706.476 542.523C707.49 541.853 708.657 541.518 709.976 541.518C711.295 541.518 712.458 541.853 713.466 542.523C714.473 543.192 715.262 544.12 715.832 545.307C716.409 546.493 716.697 547.869 716.697 549.433C716.697 550.984 716.412 552.353 715.842 553.54C715.272 554.72 714.48 555.644 713.466 556.314C712.458 556.983 711.295 557.318 709.976 557.318ZM709.976 555.697C711.036 555.697 711.935 555.412 712.67 554.842C713.406 554.272 713.963 553.513 714.341 552.565C714.725 551.617 714.918 550.573 714.918 549.433C714.918 548.293 714.725 547.246 714.341 546.291C713.963 545.337 713.406 544.571 712.67 543.994C711.935 543.418 711.036 543.129 709.976 543.129C708.922 543.129 708.024 543.418 707.281 543.994C706.545 544.571 705.985 545.337 705.601 546.291C705.223 547.246 705.034 548.293 705.034 549.433C705.034 550.573 705.223 551.617 705.601 552.565C705.985 553.513 706.545 554.272 707.281 554.842C708.017 555.412 708.915 555.697 709.976 555.697ZM730.894 548.538V550.209H721.915V548.538H730.894ZM722.353 541.727V557H720.583V541.727H722.353ZM732.196 541.727V557H730.426V541.727H732.196ZM734.769 543.398V541.727H746.701V543.398H741.65V557H739.88V543.398H734.769ZM766.301 554.524L772.039 541.727H773.759L767.007 557H765.596L758.924 541.727H760.614L766.301 554.524ZM760.087 541.727V557H758.317V541.727H760.087ZM772.516 557V541.727H774.286V557H772.516ZM785.164 557.318C783.739 557.318 782.506 556.987 781.465 556.324C780.424 555.654 779.619 554.73 779.049 553.55C778.485 552.363 778.203 550.998 778.203 549.453C778.203 547.915 778.485 546.55 779.049 545.357C779.619 544.157 780.404 543.219 781.405 542.543C782.413 541.86 783.576 541.518 784.895 541.518C785.724 541.518 786.523 541.671 787.292 541.976C788.06 542.274 788.75 542.735 789.36 543.358C789.976 543.974 790.463 544.753 790.821 545.695C791.179 546.629 791.358 547.736 791.358 549.016V549.891H779.426V548.33H789.549C789.549 547.348 789.35 546.467 788.952 545.685C788.561 544.896 788.014 544.273 787.311 543.815C786.615 543.358 785.81 543.129 784.895 543.129C783.927 543.129 783.076 543.388 782.34 543.905C781.604 544.422 781.027 545.105 780.61 545.953C780.199 546.802 779.99 547.73 779.983 548.737V549.672C779.983 550.885 780.192 551.946 780.61 552.854C781.034 553.755 781.634 554.455 782.409 554.952C783.185 555.449 784.103 555.697 785.164 555.697C785.886 555.697 786.519 555.585 787.063 555.359C787.613 555.134 788.074 554.832 788.445 554.455C788.823 554.07 789.108 553.649 789.3 553.192L790.98 553.739C790.748 554.382 790.367 554.975 789.837 555.518C789.313 556.062 788.657 556.5 787.868 556.831C787.086 557.156 786.185 557.318 785.164 557.318ZM806.256 536L807.18 537.124C806.763 537.528 806.262 537.806 805.679 537.959C805.102 538.105 804.456 538.187 803.74 538.207C803.031 538.227 802.265 538.257 801.443 538.297C800.263 538.357 799.292 538.665 798.53 539.222C797.768 539.772 797.188 540.567 796.79 541.608C796.399 542.642 796.153 543.905 796.054 545.396H796.253C796.763 544.356 797.482 543.563 798.411 543.02C799.345 542.476 800.373 542.205 801.493 542.205C802.666 542.205 803.72 542.493 804.655 543.07C805.596 543.64 806.339 544.478 806.882 545.585C807.432 546.686 807.707 548.028 807.707 549.612C807.707 551.177 807.432 552.539 806.882 553.699C806.332 554.852 805.563 555.744 804.575 556.374C803.588 557.003 802.431 557.318 801.105 557.318C799.773 557.318 798.606 557.007 797.605 556.384C796.611 555.754 795.839 554.829 795.288 553.609C794.745 552.383 794.473 550.875 794.473 549.085V547.484C794.473 543.925 795.036 541.247 796.163 539.45C797.29 537.654 799.024 536.716 801.364 536.636C802.119 536.61 802.805 536.603 803.422 536.616C804.038 536.623 804.582 536.593 805.053 536.527C805.523 536.454 805.924 536.278 806.256 536ZM801.105 555.697C802.093 555.697 802.948 555.449 803.67 554.952C804.393 554.448 804.95 553.739 805.341 552.824C805.739 551.909 805.938 550.839 805.938 549.612C805.938 548.393 805.735 547.352 805.331 546.49C804.933 545.628 804.376 544.969 803.661 544.511C802.945 544.054 802.106 543.825 801.145 543.825C800.389 543.825 799.71 543.971 799.107 544.263C798.51 544.548 798 544.955 797.575 545.486C797.151 546.016 796.826 546.639 796.601 547.355C796.375 548.071 796.259 548.857 796.253 549.712C796.253 551.561 796.684 553.023 797.545 554.097C798.414 555.164 799.6 555.697 801.105 555.697ZM817.757 557.318C816.332 557.318 815.099 556.987 814.059 556.324C813.018 555.654 812.212 554.73 811.642 553.55C811.079 552.363 810.797 550.998 810.797 549.453C810.797 547.915 811.079 546.55 811.642 545.357C812.212 544.157 812.998 543.219 813.999 542.543C815.007 541.86 816.17 541.518 817.489 541.518C818.318 541.518 819.116 541.671 819.885 541.976C820.654 542.274 821.344 542.735 821.953 543.358C822.57 543.974 823.057 544.753 823.415 545.695C823.773 546.629 823.952 547.736 823.952 549.016V549.891H812.02V548.33H822.142C822.142 547.348 821.944 546.467 821.546 545.685C821.155 544.896 820.608 544.273 819.905 543.815C819.209 543.358 818.404 543.129 817.489 543.129C816.521 543.129 815.669 543.388 814.934 543.905C814.198 544.422 813.621 545.105 813.203 545.953C812.792 546.802 812.584 547.73 812.577 548.737V549.672C812.577 550.885 812.786 551.946 813.203 552.854C813.628 553.755 814.228 554.455 815.003 554.952C815.779 555.449 816.697 555.697 817.757 555.697C818.48 555.697 819.113 555.585 819.657 555.359C820.207 555.134 820.667 554.832 821.039 554.455C821.417 554.07 821.702 553.649 821.894 553.192L823.574 553.739C823.342 554.382 822.961 554.975 822.431 555.518C821.907 556.062 821.251 556.5 820.462 556.831C819.68 557.156 818.778 557.318 817.757 557.318ZM826.351 557V555.33H826.828C827.372 555.33 827.809 555.23 828.141 555.031C828.479 554.826 828.741 554.481 828.926 553.997C829.112 553.513 829.251 552.854 829.344 552.018C829.437 551.183 829.509 550.136 829.562 548.876L829.891 541.727H839.595V557H837.815V543.398H831.571L831.283 549.473C831.223 550.713 831.124 551.803 830.984 552.744C830.852 553.686 830.633 554.471 830.328 555.101C830.03 555.731 829.612 556.205 829.075 556.523C828.545 556.841 827.849 557 826.987 557H826.351ZM846.056 554.484L854.12 541.727H856.238V557H854.468V544.243L846.434 557H844.286V541.727H846.056V554.484Z" fill="#271100"/>
<path d="M335.869 293V263.909H354.506V268.327H341.139V276.224H353.227V280.642H341.139V293H335.869ZM371.619 283.824V271.182H376.761V293H371.775V289.122H371.548C371.055 290.344 370.246 291.343 369.119 292.119C368.001 292.896 366.623 293.284 364.985 293.284C363.555 293.284 362.291 292.967 361.192 292.332C360.103 291.688 359.251 290.756 358.636 289.534C358.02 288.303 357.712 286.816 357.712 285.074V271.182H362.854V284.278C362.854 285.661 363.233 286.759 363.991 287.574C364.748 288.388 365.743 288.795 366.974 288.795C367.731 288.795 368.465 288.611 369.175 288.241C369.886 287.872 370.468 287.323 370.923 286.594C371.387 285.855 371.619 284.932 371.619 283.824ZM382.048 293V271.182H387.034V274.818H387.261C387.659 273.559 388.341 272.588 389.307 271.906C390.282 271.215 391.395 270.869 392.645 270.869C392.929 270.869 393.246 270.884 393.597 270.912C393.956 270.931 394.255 270.964 394.491 271.011V275.741C394.274 275.666 393.928 275.599 393.455 275.543C392.991 275.476 392.541 275.443 392.105 275.443C391.168 275.443 390.325 275.647 389.577 276.054C388.838 276.452 388.256 277.006 387.83 277.716C387.403 278.426 387.19 279.245 387.19 280.173V293H382.048ZM403.05 280.216V293H397.908V271.182H402.822V274.889H403.078C403.58 273.668 404.38 272.697 405.479 271.977C406.587 271.258 407.955 270.898 409.584 270.898C411.089 270.898 412.401 271.22 413.518 271.864C414.645 272.508 415.517 273.44 416.132 274.662C416.757 275.884 417.065 277.366 417.055 279.108V293H411.913V279.903C411.913 278.445 411.535 277.304 410.777 276.48C410.029 275.656 408.992 275.244 407.666 275.244C406.767 275.244 405.966 275.443 405.266 275.841C404.574 276.229 404.03 276.793 403.632 277.531C403.244 278.27 403.05 279.165 403.05 280.216ZM422.283 293V271.182H427.425V293H422.283ZM424.868 268.085C424.054 268.085 423.353 267.815 422.766 267.276C422.179 266.726 421.885 266.068 421.885 265.301C421.885 264.525 422.179 263.866 422.766 263.327C423.353 262.777 424.054 262.503 424.868 262.503C425.692 262.503 426.393 262.777 426.97 263.327C427.557 263.866 427.851 264.525 427.851 265.301C427.851 266.068 427.557 266.726 426.97 267.276C426.393 267.815 425.692 268.085 424.868 268.085ZM443.607 271.182V275.159H431.065V271.182H443.607ZM434.161 265.955H439.303V286.438C439.303 287.129 439.407 287.659 439.616 288.028C439.834 288.388 440.118 288.634 440.468 288.767C440.818 288.9 441.207 288.966 441.633 288.966C441.955 288.966 442.248 288.942 442.513 288.895C442.788 288.848 442.996 288.805 443.138 288.767L444.005 292.787C443.73 292.882 443.337 292.986 442.826 293.099C442.324 293.213 441.709 293.279 440.979 293.298C439.692 293.336 438.531 293.142 437.499 292.716C436.467 292.28 435.648 291.608 435.042 290.699C434.445 289.79 434.152 288.653 434.161 287.29V265.955ZM461.814 283.824V271.182H466.956V293H461.97V289.122H461.743C461.25 290.344 460.441 291.343 459.314 292.119C458.196 292.896 456.819 293.284 455.18 293.284C453.75 293.284 452.486 292.967 451.388 292.332C450.299 291.688 449.446 290.756 448.831 289.534C448.215 288.303 447.908 286.816 447.908 285.074V271.182H453.05V284.278C453.05 285.661 453.429 286.759 454.186 287.574C454.944 288.388 455.938 288.795 457.169 288.795C457.927 288.795 458.661 288.611 459.371 288.241C460.081 287.872 460.663 287.323 461.118 286.594C461.582 285.855 461.814 284.932 461.814 283.824ZM472.244 293V271.182H477.229V274.818H477.457C477.854 273.559 478.536 272.588 479.502 271.906C480.478 271.215 481.59 270.869 482.84 270.869C483.124 270.869 483.442 270.884 483.792 270.912C484.152 270.931 484.45 270.964 484.687 271.011V275.741C484.469 275.666 484.123 275.599 483.65 275.543C483.186 275.476 482.736 275.443 482.3 275.443C481.363 275.443 480.52 275.647 479.772 276.054C479.033 276.452 478.451 277.006 478.025 277.716C477.599 278.426 477.386 279.245 477.386 280.173V293H472.244ZM496.864 293.426C494.676 293.426 492.787 292.972 491.196 292.062C489.615 291.144 488.398 289.847 487.545 288.17C486.693 286.485 486.267 284.501 486.267 282.219C486.267 279.974 486.693 278.005 487.545 276.31C488.407 274.605 489.61 273.279 491.153 272.332C492.697 271.376 494.51 270.898 496.594 270.898C497.938 270.898 499.207 271.116 500.401 271.551C501.603 271.977 502.664 272.64 503.582 273.54C504.51 274.439 505.24 275.585 505.77 276.977C506.3 278.36 506.565 280.008 506.565 281.92V283.497H488.682V280.031H501.636C501.627 279.046 501.414 278.17 500.997 277.403C500.58 276.627 499.998 276.016 499.25 275.571C498.511 275.126 497.65 274.903 496.665 274.903C495.614 274.903 494.69 275.159 493.895 275.67C493.099 276.172 492.479 276.835 492.034 277.659C491.598 278.473 491.376 279.368 491.366 280.344V283.369C491.366 284.638 491.598 285.727 492.062 286.636C492.527 287.536 493.175 288.227 494.009 288.71C494.842 289.184 495.817 289.42 496.935 289.42C497.683 289.42 498.36 289.316 498.966 289.108C499.572 288.89 500.098 288.573 500.543 288.156C500.988 287.74 501.324 287.223 501.551 286.608L506.352 287.148C506.049 288.417 505.472 289.525 504.619 290.472C503.777 291.409 502.697 292.138 501.381 292.659C500.064 293.17 498.559 293.426 496.864 293.426ZM521.065 293V263.909H539.701V268.327H526.335V276.224H538.423V280.642H526.335V293H521.065ZM550.358 293.44C548.975 293.44 547.73 293.194 546.622 292.702C545.524 292.2 544.652 291.461 544.009 290.486C543.374 289.51 543.057 288.308 543.057 286.878C543.057 285.647 543.284 284.629 543.739 283.824C544.193 283.019 544.813 282.375 545.599 281.892C546.385 281.409 547.271 281.045 548.256 280.798C549.25 280.543 550.277 280.358 551.338 280.244C552.616 280.112 553.653 279.993 554.449 279.889C555.244 279.776 555.822 279.605 556.182 279.378C556.551 279.141 556.736 278.777 556.736 278.284V278.199C556.736 277.129 556.419 276.3 555.784 275.713C555.15 275.126 554.236 274.832 553.043 274.832C551.783 274.832 550.784 275.107 550.045 275.656C549.316 276.205 548.824 276.854 548.568 277.602L543.767 276.92C544.146 275.595 544.771 274.487 545.642 273.597C546.513 272.697 547.579 272.025 548.838 271.58C550.098 271.125 551.49 270.898 553.014 270.898C554.065 270.898 555.112 271.021 556.153 271.267C557.195 271.513 558.147 271.92 559.009 272.489C559.87 273.047 560.562 273.81 561.082 274.776C561.613 275.741 561.878 276.949 561.878 278.398V293H556.935V290.003H556.764C556.452 290.609 556.011 291.177 555.443 291.707C554.884 292.228 554.179 292.65 553.327 292.972C552.484 293.284 551.494 293.44 550.358 293.44ZM551.693 289.662C552.725 289.662 553.62 289.458 554.378 289.051C555.135 288.634 555.718 288.085 556.125 287.403C556.542 286.722 556.75 285.978 556.75 285.173V282.602C556.589 282.735 556.314 282.858 555.926 282.972C555.547 283.085 555.121 283.185 554.648 283.27C554.174 283.355 553.705 283.431 553.241 283.497C552.777 283.563 552.375 283.62 552.034 283.668C551.267 283.772 550.58 283.942 549.974 284.179C549.368 284.416 548.89 284.747 548.54 285.173C548.189 285.59 548.014 286.13 548.014 286.793C548.014 287.74 548.36 288.455 549.051 288.938C549.742 289.42 550.623 289.662 551.693 289.662ZM576.565 293.426C574.387 293.426 572.517 292.948 570.955 291.991C569.402 291.035 568.204 289.714 567.361 288.028C566.527 286.333 566.111 284.383 566.111 282.176C566.111 279.96 566.537 278.005 567.389 276.31C568.241 274.605 569.444 273.279 570.997 272.332C572.56 271.376 574.406 270.898 576.537 270.898C578.308 270.898 579.875 271.224 581.239 271.878C582.612 272.522 583.705 273.436 584.52 274.619C585.334 275.794 585.798 277.167 585.912 278.739H580.997C580.798 277.687 580.325 276.812 579.577 276.111C578.838 275.401 577.848 275.045 576.608 275.045C575.557 275.045 574.634 275.33 573.838 275.898C573.043 276.456 572.422 277.261 571.977 278.312C571.542 279.364 571.324 280.623 571.324 282.091C571.324 283.578 571.542 284.856 571.977 285.926C572.413 286.987 573.024 287.806 573.81 288.384C574.605 288.952 575.538 289.236 576.608 289.236C577.366 289.236 578.043 289.094 578.639 288.81C579.245 288.516 579.752 288.095 580.159 287.545C580.566 286.996 580.846 286.329 580.997 285.543H585.912C585.789 287.086 585.334 288.455 584.548 289.648C583.762 290.831 582.692 291.759 581.338 292.432C579.984 293.095 578.393 293.426 576.565 293.426ZM601.029 271.182V275.159H588.487V271.182H601.029ZM591.583 265.955H596.725V286.438C596.725 287.129 596.829 287.659 597.038 288.028C597.255 288.388 597.54 288.634 597.89 288.767C598.24 288.9 598.629 288.966 599.055 288.966C599.377 288.966 599.67 288.942 599.935 288.895C600.21 288.848 600.418 288.805 600.56 288.767L601.427 292.787C601.152 292.882 600.759 292.986 600.248 293.099C599.746 293.213 599.13 293.279 598.401 293.298C597.113 293.336 595.953 293.142 594.921 292.716C593.889 292.28 593.07 291.608 592.464 290.699C591.867 289.79 591.574 288.653 591.583 287.29V265.955ZM614.612 293.426C612.482 293.426 610.635 292.957 609.072 292.02C607.51 291.082 606.298 289.771 605.436 288.085C604.584 286.4 604.158 284.43 604.158 282.176C604.158 279.922 604.584 277.948 605.436 276.253C606.298 274.558 607.51 273.241 609.072 272.304C610.635 271.366 612.482 270.898 614.612 270.898C616.743 270.898 618.589 271.366 620.152 272.304C621.714 273.241 622.922 274.558 623.774 276.253C624.636 277.948 625.067 279.922 625.067 282.176C625.067 284.43 624.636 286.4 623.774 288.085C622.922 289.771 621.714 291.082 620.152 292.02C618.589 292.957 616.743 293.426 614.612 293.426ZM614.641 289.307C615.796 289.307 616.762 288.99 617.538 288.355C618.315 287.711 618.893 286.849 619.271 285.77C619.66 284.69 619.854 283.488 619.854 282.162C619.854 280.827 619.66 279.619 619.271 278.54C618.893 277.451 618.315 276.584 617.538 275.94C616.762 275.296 615.796 274.974 614.641 274.974C613.457 274.974 612.472 275.296 611.686 275.94C610.91 276.584 610.327 277.451 609.939 278.54C609.56 279.619 609.371 280.827 609.371 282.162C609.371 283.488 609.56 284.69 609.939 285.77C610.327 286.849 610.91 287.711 611.686 288.355C612.472 288.99 613.457 289.307 614.641 289.307ZM629.431 293V271.182H634.417V274.818H634.644C635.042 273.559 635.724 272.588 636.69 271.906C637.665 271.215 638.778 270.869 640.028 270.869C640.312 270.869 640.629 270.884 640.979 270.912C641.339 270.931 641.638 270.964 641.874 271.011V275.741C641.656 275.666 641.311 275.599 640.837 275.543C640.373 275.476 639.924 275.443 639.488 275.443C638.55 275.443 637.708 275.647 636.96 276.054C636.221 276.452 635.638 277.006 635.212 277.716C634.786 278.426 634.573 279.245 634.573 280.173V293H629.431ZM649.151 301.182C648.45 301.182 647.801 301.125 647.205 301.011C646.617 300.907 646.149 300.784 645.798 300.642L646.991 296.636C647.74 296.854 648.407 296.958 648.994 296.949C649.581 296.939 650.098 296.755 650.543 296.395C650.997 296.045 651.381 295.457 651.693 294.634L652.134 293.455L644.222 271.182H649.676L654.705 287.659H654.932L659.974 271.182H665.443L656.707 295.642C656.3 296.797 655.76 297.787 655.088 298.611C654.416 299.444 653.592 300.079 652.616 300.514C651.651 300.959 650.495 301.182 649.151 301.182Z" fill="#271100"/>
<path d="M382.048 310.232L386.146 301.091H387.375L382.552 312H381.544L376.778 301.091H377.985L382.048 310.232ZM377.609 301.091V312H376.345V301.091H377.609ZM386.487 312V301.091H387.751V312H386.487ZM395.521 312.227C394.503 312.227 393.622 311.991 392.879 311.517C392.136 311.039 391.56 310.378 391.153 309.536C390.751 308.688 390.549 307.713 390.549 306.609C390.549 305.511 390.751 304.536 391.153 303.683C391.56 302.826 392.121 302.156 392.836 301.673C393.556 301.186 394.387 300.942 395.329 300.942C395.921 300.942 396.492 301.051 397.041 301.268C397.59 301.482 398.083 301.811 398.518 302.256C398.958 302.696 399.306 303.252 399.562 303.925C399.818 304.592 399.946 305.383 399.946 306.297V306.922H391.423V305.807H398.653C398.653 305.106 398.511 304.476 398.227 303.918C397.948 303.354 397.557 302.909 397.055 302.582C396.558 302.256 395.983 302.092 395.329 302.092C394.638 302.092 394.029 302.277 393.504 302.646C392.978 303.016 392.566 303.503 392.268 304.109C391.975 304.715 391.825 305.378 391.821 306.098V306.766C391.821 307.632 391.97 308.39 392.268 309.038C392.571 309.682 393 310.182 393.554 310.537C394.108 310.892 394.763 311.07 395.521 311.07C396.037 311.07 396.489 310.989 396.877 310.828C397.27 310.667 397.6 310.452 397.865 310.182C398.135 309.907 398.338 309.607 398.475 309.28L399.676 309.67C399.51 310.13 399.238 310.554 398.859 310.942C398.485 311.33 398.016 311.643 397.453 311.879C396.894 312.111 396.25 312.227 395.521 312.227ZM410.587 297L411.247 297.803C410.949 298.091 410.591 298.29 410.175 298.399C409.763 298.503 409.301 298.562 408.79 298.577C408.283 298.591 407.736 298.612 407.149 298.641C406.306 298.683 405.613 298.903 405.068 299.301C404.524 299.694 404.109 300.262 403.825 301.006C403.546 301.744 403.371 302.646 403.3 303.712H403.442C403.806 302.968 404.32 302.402 404.983 302.014C405.651 301.626 406.384 301.432 407.185 301.432C408.023 301.432 408.776 301.638 409.443 302.05C410.116 302.457 410.646 303.056 411.034 303.847C411.427 304.633 411.624 305.591 411.624 306.723C411.624 307.84 411.427 308.813 411.034 309.642C410.641 310.466 410.092 311.103 409.386 311.553C408.681 312.002 407.855 312.227 406.908 312.227C405.956 312.227 405.123 312.005 404.408 311.56C403.697 311.11 403.146 310.449 402.753 309.578C402.365 308.702 402.17 307.625 402.17 306.347V305.203C402.17 302.661 402.573 300.748 403.378 299.464C404.183 298.181 405.421 297.511 407.092 297.455C407.632 297.436 408.122 297.431 408.562 297.44C409.003 297.445 409.391 297.424 409.727 297.376C410.063 297.324 410.35 297.199 410.587 297ZM406.908 311.07C407.613 311.07 408.224 310.892 408.74 310.537C409.256 310.177 409.654 309.67 409.933 309.017C410.217 308.364 410.359 307.599 410.359 306.723C410.359 305.852 410.215 305.108 409.926 304.493C409.642 303.877 409.244 303.406 408.733 303.08C408.222 302.753 407.623 302.589 406.936 302.589C406.396 302.589 405.911 302.694 405.48 302.902C405.054 303.106 404.689 303.397 404.386 303.776C404.083 304.154 403.851 304.599 403.69 305.111C403.529 305.622 403.446 306.183 403.442 306.794C403.442 308.115 403.75 309.159 404.365 309.926C404.985 310.688 405.833 311.07 406.908 311.07ZM418.802 312.227C417.784 312.227 416.904 311.991 416.16 311.517C415.417 311.039 414.842 310.378 414.434 309.536C414.032 308.688 413.831 307.713 413.831 306.609C413.831 305.511 414.032 304.536 414.434 303.683C414.842 302.826 415.403 302.156 416.118 301.673C416.837 301.186 417.668 300.942 418.61 300.942C419.202 300.942 419.773 301.051 420.322 301.268C420.871 301.482 421.364 301.811 421.799 302.256C422.24 302.696 422.588 303.252 422.843 303.925C423.099 304.592 423.227 305.383 423.227 306.297V306.922H414.704V305.807H421.934C421.934 305.106 421.792 304.476 421.508 303.918C421.229 303.354 420.838 302.909 420.336 302.582C419.839 302.256 419.264 302.092 418.61 302.092C417.919 302.092 417.311 302.277 416.785 302.646C416.26 303.016 415.848 303.503 415.549 304.109C415.256 304.715 415.107 305.378 415.102 306.098V306.766C415.102 307.632 415.251 308.39 415.549 309.038C415.852 309.682 416.281 310.182 416.835 310.537C417.389 310.892 418.045 311.07 418.802 311.07C419.318 311.07 419.77 310.989 420.159 310.828C420.552 310.667 420.881 310.452 421.146 310.182C421.416 309.907 421.619 309.607 421.757 309.28L422.957 309.67C422.791 310.13 422.519 310.554 422.14 310.942C421.766 311.33 421.297 311.643 420.734 311.879C420.175 312.111 419.531 312.227 418.802 312.227ZM424.94 312V310.807H425.281C425.67 310.807 425.982 310.736 426.219 310.594C426.46 310.447 426.647 310.201 426.78 309.855C426.912 309.509 427.012 309.038 427.078 308.442C427.144 307.845 427.196 307.097 427.234 306.197L427.469 301.091H434.401V312H433.129V302.284H428.669L428.463 306.624C428.42 307.509 428.349 308.288 428.25 308.96C428.155 309.633 427.999 310.194 427.781 310.643C427.568 311.093 427.27 311.432 426.886 311.659C426.508 311.886 426.01 312 425.395 312H424.94ZM438.802 305.303H441.991C443.217 305.303 444.164 305.601 444.832 306.197C445.5 306.794 445.833 307.601 445.833 308.619C445.833 309.296 445.684 309.888 445.386 310.395C445.088 310.902 444.652 311.297 444.079 311.581C443.506 311.86 442.81 312 441.991 312H437.751V301.091H439.015V310.807H441.991C442.763 310.807 443.386 310.622 443.859 310.253C444.333 309.884 444.569 309.358 444.569 308.676C444.569 307.98 444.333 307.443 443.859 307.064C443.386 306.685 442.763 306.496 441.991 306.496H438.802V305.303ZM455.975 305.956V307.149H449.562V305.956H455.975ZM449.875 301.091V312H448.61V301.091H449.875ZM456.906 301.091V312H455.642V301.091H456.906ZM464.511 312.227C463.568 312.227 462.735 311.988 462.011 311.51C461.291 311.032 460.728 310.371 460.32 309.528C459.913 308.681 459.71 307.703 459.71 306.595C459.71 305.478 459.913 304.495 460.32 303.648C460.728 302.795 461.291 302.133 462.011 301.659C462.735 301.181 463.568 300.942 464.511 300.942C465.453 300.942 466.284 301.181 467.004 301.659C467.723 302.137 468.287 302.8 468.694 303.648C469.106 304.495 469.312 305.478 469.312 306.595C469.312 307.703 469.108 308.681 468.701 309.528C468.294 310.371 467.728 311.032 467.004 311.51C466.284 311.988 465.453 312.227 464.511 312.227ZM464.511 311.07C465.268 311.07 465.91 310.866 466.435 310.459C466.961 310.052 467.359 309.509 467.629 308.832C467.903 308.155 468.04 307.41 468.04 306.595C468.04 305.781 467.903 305.033 467.629 304.351C467.359 303.669 466.961 303.122 466.435 302.71C465.91 302.298 465.268 302.092 464.511 302.092C463.758 302.092 463.116 302.298 462.586 302.71C462.06 303.122 461.66 303.669 461.386 304.351C461.116 305.033 460.981 305.781 460.981 306.595C460.981 307.41 461.116 308.155 461.386 308.832C461.66 309.509 462.06 310.052 462.586 310.459C463.112 310.866 463.753 311.07 464.511 311.07ZM476.498 312.227C475.48 312.227 474.599 311.991 473.855 311.517C473.112 311.039 472.537 310.378 472.13 309.536C471.727 308.688 471.526 307.713 471.526 306.609C471.526 305.511 471.727 304.536 472.13 303.683C472.537 302.826 473.098 302.156 473.813 301.673C474.533 301.186 475.364 300.942 476.306 300.942C476.898 300.942 477.468 301.051 478.017 301.268C478.567 301.482 479.059 301.811 479.495 302.256C479.935 302.696 480.283 303.252 480.539 303.925C480.794 304.592 480.922 305.383 480.922 306.297V306.922H472.4V305.807H479.63C479.63 305.106 479.488 304.476 479.203 303.918C478.924 303.354 478.533 302.909 478.032 302.582C477.534 302.256 476.959 302.092 476.306 302.092C475.614 302.092 475.006 302.277 474.48 302.646C473.955 303.016 473.543 303.503 473.245 304.109C472.951 304.715 472.802 305.378 472.797 306.098V306.766C472.797 307.632 472.946 308.39 473.245 309.038C473.548 309.682 473.976 310.182 474.53 310.537C475.084 310.892 475.74 311.07 476.498 311.07C477.014 311.07 477.466 310.989 477.854 310.828C478.247 310.667 478.576 310.452 478.841 310.182C479.111 309.907 479.315 309.607 479.452 309.28L480.652 309.67C480.487 310.13 480.214 310.554 479.836 310.942C479.462 311.33 478.993 311.643 478.429 311.879C477.871 312.111 477.227 312.227 476.498 312.227ZM489.347 312V301.091H497.607V312H496.336V302.284H490.619V312H489.347ZM500.954 316.091V301.091H502.183V303.172H502.332C502.484 302.845 502.692 302.511 502.957 302.17C503.222 301.825 503.573 301.534 504.008 301.297C504.449 301.06 505.002 300.942 505.67 300.942C506.57 300.942 507.356 301.179 508.028 301.652C508.705 302.121 509.231 302.779 509.605 303.626C509.984 304.469 510.173 305.452 510.173 306.574C510.173 307.701 509.984 308.688 509.605 309.536C509.231 310.383 508.705 311.044 508.028 311.517C507.356 311.991 506.574 312.227 505.684 312.227C505.026 312.227 504.475 312.109 504.029 311.872C503.589 311.635 503.232 311.344 502.957 310.999C502.687 310.648 502.479 310.307 502.332 309.976H502.218V316.091H500.954ZM502.204 306.553C502.204 307.433 502.334 308.214 502.595 308.896C502.86 309.573 503.239 310.106 503.731 310.494C504.228 310.878 504.83 311.07 505.535 311.07C506.26 311.07 506.87 310.871 507.368 310.473C507.869 310.071 508.251 309.528 508.511 308.847C508.776 308.165 508.909 307.4 508.909 306.553C508.909 305.714 508.779 304.959 508.518 304.287C508.262 303.615 507.884 303.082 507.382 302.689C506.88 302.291 506.264 302.092 505.535 302.092C504.825 302.092 504.221 302.284 503.724 302.668C503.227 303.046 502.848 303.572 502.588 304.244C502.332 304.912 502.204 305.681 502.204 306.553ZM517.186 312.227C516.244 312.227 515.411 311.988 514.686 311.51C513.967 311.032 513.403 310.371 512.996 309.528C512.589 308.681 512.385 307.703 512.385 306.595C512.385 305.478 512.589 304.495 512.996 303.648C513.403 302.795 513.967 302.133 514.686 301.659C515.411 301.181 516.244 300.942 517.186 300.942C518.129 300.942 518.96 301.181 519.679 301.659C520.399 302.137 520.962 302.8 521.37 303.648C521.782 304.495 521.988 305.478 521.988 306.595C521.988 307.703 521.784 308.681 521.377 309.528C520.97 310.371 520.404 311.032 519.679 311.51C518.96 311.988 518.129 312.227 517.186 312.227ZM517.186 311.07C517.944 311.07 518.586 310.866 519.111 310.459C519.637 310.052 520.034 309.509 520.304 308.832C520.579 308.155 520.716 307.41 520.716 306.595C520.716 305.781 520.579 305.033 520.304 304.351C520.034 303.669 519.637 303.122 519.111 302.71C518.586 302.298 517.944 302.092 517.186 302.092C516.434 302.092 515.792 302.298 515.262 302.71C514.736 303.122 514.336 303.669 514.061 304.351C513.792 305.033 513.657 305.781 513.657 306.595C513.657 307.41 513.792 308.155 514.061 308.832C514.336 309.509 514.736 310.052 515.262 310.459C515.787 310.866 516.429 311.07 517.186 311.07ZM526.027 310.203L531.787 301.091H533.3V312H532.036V302.888L526.297 312H524.763V301.091H526.027V310.203ZM535.935 309.216H537.277C537.315 309.798 537.566 310.253 538.03 310.58C538.494 310.906 539.105 311.07 539.862 311.07C540.648 311.07 541.297 310.894 541.808 310.544C542.32 310.189 542.575 309.673 542.575 308.996C542.575 308.584 542.478 308.226 542.284 307.923C542.095 307.62 541.834 307.384 541.503 307.213C541.176 307.038 540.804 306.948 540.388 306.943H538.484V305.786H540.366C541.015 305.748 541.508 305.572 541.844 305.26C542.18 304.943 542.348 304.528 542.348 304.017C542.348 303.435 542.142 302.968 541.73 302.618C541.318 302.263 540.759 302.085 540.054 302.085C539.339 302.085 538.745 302.26 538.271 302.611C537.798 302.961 537.547 303.411 537.518 303.96H536.19C536.214 303.368 536.392 302.848 536.723 302.398C537.054 301.943 537.502 301.588 538.065 301.332C538.634 301.077 539.277 300.949 539.997 300.949C540.736 300.949 541.377 301.081 541.922 301.347C542.466 301.612 542.888 301.974 543.186 302.433C543.484 302.888 543.634 303.404 543.634 303.982C543.634 304.583 543.468 305.078 543.136 305.466C542.81 305.849 542.391 306.119 541.879 306.276V306.382C542.268 306.425 542.608 306.567 542.902 306.808C543.2 307.05 543.435 307.36 543.605 307.739C543.776 308.117 543.861 308.536 543.861 308.996C543.861 309.64 543.693 310.205 543.357 310.693C543.02 311.176 542.552 311.553 541.95 311.822C541.354 312.092 540.665 312.227 539.884 312.227C539.131 312.227 538.461 312.102 537.874 311.851C537.286 311.595 536.82 311.242 536.474 310.793C536.134 310.338 535.954 309.812 535.935 309.216ZM546.462 312V301.091H550.759C551.919 301.091 552.833 301.342 553.5 301.844C554.173 302.346 554.509 303.023 554.509 303.875C554.509 304.524 554.322 305.042 553.948 305.43C553.574 305.819 553.072 306.093 552.442 306.254C552.864 306.325 553.254 306.479 553.614 306.716C553.979 306.953 554.275 307.265 554.502 307.653C554.729 308.042 554.843 308.506 554.843 309.045C554.843 309.614 554.701 310.12 554.417 310.565C554.132 311.01 553.732 311.361 553.216 311.616C552.7 311.872 552.089 312 551.384 312H546.462ZM547.669 310.828H551.384C552.051 310.828 552.579 310.658 552.968 310.317C553.356 309.971 553.55 309.512 553.55 308.939C553.55 308.328 553.365 307.84 552.996 307.476C552.632 307.107 552.141 306.922 551.526 306.922H547.669V310.828ZM547.669 305.8H550.837C551.329 305.8 551.756 305.724 552.115 305.572C552.475 305.421 552.752 305.208 552.946 304.933C553.145 304.654 553.242 304.327 553.238 303.953C553.238 303.418 553.02 303.004 552.584 302.71C552.149 302.412 551.54 302.263 550.759 302.263H547.669V305.8ZM561.854 312.227C560.912 312.227 560.079 311.988 559.354 311.51C558.635 311.032 558.071 310.371 557.664 309.528C557.257 308.681 557.053 307.703 557.053 306.595C557.053 305.478 557.257 304.495 557.664 303.648C558.071 302.795 558.635 302.133 559.354 301.659C560.079 301.181 560.912 300.942 561.854 300.942C562.797 300.942 563.628 301.181 564.347 301.659C565.067 302.137 565.63 302.8 566.038 303.648C566.45 304.495 566.656 305.478 566.656 306.595C566.656 307.703 566.452 308.681 566.045 309.528C565.638 310.371 565.072 311.032 564.347 311.51C563.628 311.988 562.797 312.227 561.854 312.227ZM561.854 311.07C562.612 311.07 563.254 310.866 563.779 310.459C564.305 310.052 564.702 309.509 564.972 308.832C565.247 308.155 565.384 307.41 565.384 306.595C565.384 305.781 565.247 305.033 564.972 304.351C564.702 303.669 564.305 303.122 563.779 302.71C563.254 302.298 562.612 302.092 561.854 302.092C561.102 302.092 560.46 302.298 559.93 302.71C559.404 303.122 559.004 303.669 558.729 304.351C558.46 305.033 558.325 305.781 558.325 306.595C558.325 307.41 558.46 308.155 558.729 308.832C559.004 309.509 559.404 310.052 559.93 310.459C560.455 310.866 561.097 311.07 561.854 311.07ZM568.138 315.104V310.807H569.083C569.319 310.542 569.525 310.255 569.701 309.947C569.876 309.64 570.027 309.289 570.155 308.896C570.288 308.499 570.399 308.037 570.489 307.511C570.579 306.981 570.655 306.363 570.716 305.658L571.114 301.091H577.57V310.807H579.189V315.104H577.925V312H569.409V315.104H568.138ZM570.539 310.807H576.306V302.284H572.293L571.966 305.658C571.853 306.804 571.692 307.803 571.483 308.655C571.275 309.507 570.96 310.224 570.539 310.807ZM585.86 312.227C584.885 312.227 584.035 311.983 583.31 311.496C582.591 311.008 582.032 310.34 581.634 309.493C581.237 308.645 581.038 307.679 581.038 306.595C581.038 305.501 581.239 304.528 581.641 303.676C582.049 302.824 582.612 302.156 583.332 301.673C584.051 301.186 584.887 300.942 585.839 300.942C586.568 300.942 587.228 301.084 587.82 301.368C588.412 301.647 588.9 302.043 589.283 302.554C589.672 303.061 589.915 303.652 590.015 304.33H588.737C588.604 303.714 588.284 303.188 587.778 302.753C587.276 302.312 586.637 302.092 585.86 302.092C585.164 302.092 584.549 302.282 584.013 302.661C583.478 303.035 583.059 303.558 582.756 304.23C582.458 304.898 582.309 305.672 582.309 306.553C582.309 307.438 582.456 308.222 582.749 308.903C583.043 309.58 583.455 310.111 583.985 310.494C584.52 310.878 585.145 311.07 585.86 311.07C586.343 311.07 586.783 310.98 587.181 310.8C587.584 310.615 587.92 310.355 588.19 310.018C588.464 309.682 588.649 309.282 588.744 308.818H590.022C589.927 309.476 589.693 310.063 589.319 310.58C588.95 311.091 588.469 311.493 587.877 311.787C587.29 312.08 586.618 312.227 585.86 312.227ZM591.83 302.284V301.091H600.352V302.284H596.744V312H595.48V302.284H591.83ZM603.025 312V301.091H607.321C608.481 301.091 609.395 301.342 610.063 301.844C610.735 302.346 611.071 303.023 611.071 303.875C611.071 304.524 610.884 305.042 610.51 305.43C610.136 305.819 609.634 306.093 609.005 306.254C609.426 306.325 609.817 306.479 610.176 306.716C610.541 306.953 610.837 307.265 611.064 307.653C611.292 308.042 611.405 308.506 611.405 309.045C611.405 309.614 611.263 310.12 610.979 310.565C610.695 311.01 610.295 311.361 609.779 311.616C609.263 311.872 608.652 312 607.946 312H603.025ZM604.232 310.828H607.946C608.614 310.828 609.142 310.658 609.53 310.317C609.918 309.971 610.113 309.512 610.113 308.939C610.113 308.328 609.928 307.84 609.559 307.476C609.194 307.107 608.704 306.922 608.088 306.922H604.232V310.828ZM604.232 305.8H607.4C607.892 305.8 608.318 305.724 608.678 305.572C609.038 305.421 609.315 305.208 609.509 304.933C609.708 304.654 609.805 304.327 609.8 303.953C609.8 303.418 609.582 303.004 609.147 302.71C608.711 302.412 608.103 302.263 607.321 302.263H604.232V305.8ZM618.417 312.227C617.475 312.227 616.641 311.988 615.917 311.51C615.197 311.032 614.634 310.371 614.227 309.528C613.819 308.681 613.616 307.703 613.616 306.595C613.616 305.478 613.819 304.495 614.227 303.648C614.634 302.795 615.197 302.133 615.917 301.659C616.641 301.181 617.475 300.942 618.417 300.942C619.359 300.942 620.19 301.181 620.91 301.659C621.629 302.137 622.193 302.8 622.6 303.648C623.012 304.495 623.218 305.478 623.218 306.595C623.218 307.703 623.014 308.681 622.607 309.528C622.2 310.371 621.634 311.032 620.91 311.51C620.19 311.988 619.359 312.227 618.417 312.227ZM618.417 311.07C619.174 311.07 619.816 310.866 620.342 310.459C620.867 310.052 621.265 309.509 621.535 308.832C621.809 308.155 621.947 307.41 621.947 306.595C621.947 305.781 621.809 305.033 621.535 304.351C621.265 303.669 620.867 303.122 620.342 302.71C619.816 302.298 619.174 302.092 618.417 302.092C617.664 302.092 617.022 302.298 616.492 302.71C615.967 303.122 615.567 303.669 615.292 304.351C615.022 305.033 614.887 305.781 614.887 306.595C614.887 307.41 615.022 308.155 615.292 308.832C615.567 309.509 615.967 310.052 616.492 310.459C617.018 310.866 617.659 311.07 618.417 311.07Z" fill="black"/>
</svg>
