<svg width="613" height="228" viewBox="0 0 613 228" fill="none" xmlns="http://www.w3.org/2000/svg">
<mask id="path-1-inside-1_63_3" fill="white">
<rect width="613" height="228" rx="1"/>
</mask>
<rect width="613" height="228" rx="1" fill="#271100" fill-opacity="0.9" stroke="white" stroke-width="6" mask="url(#path-1-inside-1_63_3)"/>
<path d="M121.236 96.992C121.236 99.328 120.716 101.28 119.676 102.848C118.46 104.688 116.692 105.608 114.372 105.608C112.596 105.608 111.14 105.256 110.004 104.552C108.596 103.672 107.684 102.192 107.268 100.112L109.668 99.464C110.212 102.024 111.676 103.304 114.06 103.304C115.468 103.304 116.604 102.8 117.468 101.792C118.268 100.848 118.716 99.624 118.812 98.12H111.3V95.912H118.812C118.716 94.504 118.252 93.352 117.42 92.456C116.556 91.48 115.476 90.992 114.18 90.992C111.764 90.992 110.252 91.944 109.644 93.848L107.316 93.176C107.7 91.608 108.628 90.424 110.1 89.624C111.268 89 112.596 88.688 114.084 88.688C116.404 88.688 118.204 89.52 119.484 91.184C120.652 92.688 121.236 94.624 121.236 96.992ZM139.483 105.248H136.291L130.123 97.736L128.299 99.488V105.248H125.803V89.096H128.299V96.056L135.331 89.096H138.667L131.851 96.008L139.483 105.248ZM156.379 99.512C156.219 101.576 155.475 103.152 154.147 104.24C152.979 105.216 151.451 105.704 149.563 105.704C147.211 105.704 145.363 104.832 144.019 103.088C142.803 101.52 142.195 99.544 142.195 97.16C142.195 94.792 142.811 92.824 144.043 91.256C145.387 89.544 147.243 88.688 149.611 88.688C151.387 88.688 152.835 89.104 153.955 89.936C155.299 90.912 156.059 92.384 156.235 94.352H153.763C153.427 92.144 152.043 91.04 149.611 91.04C147.995 91.04 146.771 91.64 145.939 92.84C145.203 93.912 144.835 95.344 144.835 97.136C144.835 98.912 145.211 100.368 145.963 101.504C146.827 102.736 148.051 103.352 149.635 103.352C152.195 103.352 153.603 102.072 153.859 99.512H156.379ZM174.475 105.248H171.283L165.115 97.736L163.291 99.488V105.248H160.795V89.096H163.291V96.056L170.323 89.096H173.659L166.843 96.008L174.475 105.248ZM186.715 89.096L181.675 103.04C181.051 104.8 179.907 105.68 178.243 105.68C177.699 105.68 177.227 105.624 176.827 105.512V103.256C177.099 103.288 177.347 103.32 177.571 103.352C177.811 103.368 178.027 103.376 178.219 103.376C178.731 103.376 179.147 103.064 179.467 102.44C179.531 102.328 179.603 102.136 179.683 101.864C179.763 101.592 179.867 101.24 179.995 100.808L175.723 89.096H178.195L181.195 97.496L184.219 89.096H186.715ZM198.763 93.872C198.763 92.288 197.715 91.496 195.619 91.496H192.283V96.368H194.995C197.507 96.368 198.763 95.536 198.763 93.872ZM201.235 93.896C201.235 97.128 199.251 98.744 195.283 98.744H192.283V105.248H189.811V89.096H195.907C197.491 89.096 198.731 89.448 199.627 90.152C200.699 90.968 201.235 92.216 201.235 93.896ZM219.379 99.512C219.219 101.576 218.475 103.152 217.147 104.24C215.979 105.216 214.451 105.704 212.563 105.704C210.211 105.704 208.363 104.832 207.019 103.088C205.803 101.52 205.195 99.544 205.195 97.16C205.195 94.792 205.811 92.824 207.043 91.256C208.387 89.544 210.243 88.688 212.611 88.688C214.387 88.688 215.835 89.104 216.955 89.936C218.299 90.912 219.059 92.384 219.235 94.352H216.763C216.427 92.144 215.043 91.04 212.611 91.04C210.995 91.04 209.771 91.64 208.939 92.84C208.203 93.912 207.835 95.344 207.835 97.136C207.835 98.912 208.211 100.368 208.963 101.504C209.827 102.736 211.051 103.352 212.635 103.352C215.195 103.352 216.603 102.072 216.859 99.512H219.379ZM236.179 105.248H233.683V94.352L226.675 103.904V105.248H224.179V89.096H226.675V99.944L233.683 90.392V89.096H236.179V105.248ZM251.251 96.32V92.024H247.771C246.731 92.024 245.947 92.112 245.419 92.288C244.603 92.576 244.195 93.152 244.195 94.016C244.195 95.552 245.363 96.32 247.699 96.32H251.251ZM253.747 105.248H251.251V98.72H247.291C246.155 98.72 245.435 98.896 245.131 99.248C244.875 99.552 244.723 100.304 244.675 101.504C244.643 102.688 244.427 103.936 244.027 105.248H241.507V105.008C241.843 104.624 242.075 103.72 242.203 102.296C242.331 100.568 242.459 99.512 242.587 99.128C242.827 98.408 243.395 97.88 244.291 97.544C243.475 97.192 242.819 96.68 242.323 96.008C241.859 95.32 241.627 94.608 241.627 93.872C241.627 92.688 242.027 91.72 242.827 90.968C243.579 90.28 244.571 89.856 245.803 89.696C246.027 89.664 246.307 89.64 246.643 89.624C246.995 89.608 247.411 89.6 247.891 89.6H253.747V105.248ZM278.258 105.248H275.762V91.424H268.01V105.248H265.538V89.096H278.258V105.248ZM295.586 97.184C295.586 95.408 295.146 93.96 294.266 92.84C293.322 91.608 292.026 90.992 290.378 90.992C288.73 90.992 287.434 91.608 286.49 92.84C285.594 93.976 285.146 95.424 285.146 97.184C285.146 98.944 285.594 100.392 286.49 101.528C287.418 102.728 288.714 103.328 290.378 103.328C292.026 103.328 293.322 102.728 294.266 101.528C295.146 100.408 295.586 98.96 295.586 97.184ZM298.058 97.184C298.058 99.52 297.386 101.48 296.042 103.064C294.602 104.776 292.714 105.632 290.378 105.632C288.01 105.632 286.122 104.784 284.714 103.088C283.402 101.52 282.746 99.552 282.746 97.184C282.746 94.816 283.394 92.84 284.69 91.256C286.114 89.544 288.01 88.688 290.378 88.688C292.714 88.688 294.602 89.552 296.042 91.28C297.386 92.896 298.058 94.864 298.058 97.184ZM321.992 105.248H319.496V91.424H311.744V105.248H309.272V89.096H321.992V105.248ZM336.224 93.872C336.224 92.288 335.176 91.496 333.08 91.496H329.744V96.368H332.456C334.968 96.368 336.224 95.536 336.224 93.872ZM338.696 93.896C338.696 97.128 336.712 98.744 332.744 98.744H329.744V105.248H327.272V89.096H333.368C334.952 89.096 336.192 89.448 337.088 90.152C338.16 90.968 338.696 92.216 338.696 93.896ZM355.328 97.184C355.328 95.408 354.888 93.96 354.008 92.84C353.064 91.608 351.768 90.992 350.12 90.992C348.472 90.992 347.176 91.608 346.232 92.84C345.336 93.976 344.888 95.424 344.888 97.184C344.888 98.944 345.336 100.392 346.232 101.528C347.16 102.728 348.456 103.328 350.12 103.328C351.768 103.328 353.064 102.728 354.008 101.528C354.888 100.408 355.328 98.96 355.328 97.184ZM357.8 97.184C357.8 99.52 357.128 101.48 355.784 103.064C354.344 104.776 352.456 105.632 350.12 105.632C347.752 105.632 345.864 104.784 344.456 103.088C343.144 101.52 342.488 99.552 342.488 97.184C342.488 94.816 343.136 92.84 344.432 91.256C345.856 89.544 347.752 88.688 350.12 88.688C352.456 88.688 354.344 89.552 355.784 91.28C357.128 92.896 357.8 94.864 357.8 97.184ZM374.648 105.248H372.152V94.352L365.144 103.904V105.248H362.648V89.096H365.144V99.944L372.152 90.392V89.096H374.648V105.248ZM390.152 100.544C390.152 102.128 389.624 103.384 388.568 104.312C387.592 105.192 386.344 105.632 384.824 105.632C383.224 105.632 381.952 105.192 381.008 104.312C380 103.384 379.496 102.112 379.496 100.496V99.92H381.992C381.992 102.144 382.912 103.256 384.752 103.256C386.608 103.256 387.536 102.32 387.536 100.448C387.536 99.424 387.176 98.728 386.456 98.36C385.88 98.072 384.832 97.928 383.312 97.928V95.504H383.864C384.984 95.504 385.808 95.336 386.336 95C386.896 94.632 387.176 94.04 387.176 93.224C387.176 92.552 386.968 92.024 386.552 91.64C386.136 91.256 385.592 91.064 384.92 91.064C384.072 91.064 383.44 91.296 383.024 91.76C382.608 92.272 382.392 93.08 382.376 94.184H379.928C379.944 92.44 380.416 91.08 381.344 90.104C382.24 89.16 383.44 88.688 384.944 88.688C386.272 88.688 387.376 89.064 388.256 89.816C389.184 90.632 389.648 91.744 389.648 93.152C389.648 94.576 389.128 95.712 388.088 96.56C389.464 97.408 390.152 98.736 390.152 100.544ZM404.096 100.592C404.096 98.928 402.936 98.096 400.616 98.096H396.752V102.848H400.52C401.592 102.848 402.392 102.736 402.92 102.512C403.704 102.176 404.096 101.536 404.096 100.592ZM403.4 93.608C403.4 92.712 403 92.104 402.2 91.784C401.72 91.592 400.928 91.496 399.824 91.496H396.752V95.72H399.68C400.848 95.72 401.664 95.64 402.128 95.48C402.976 95.16 403.4 94.536 403.4 93.608ZM406.64 100.64C406.64 101.104 406.568 101.552 406.424 101.984C406.296 102.416 406.112 102.816 405.872 103.184C405.632 103.552 405.336 103.88 404.984 104.168C404.648 104.472 404.264 104.704 403.832 104.864C403.256 105.12 401.768 105.248 399.368 105.248H394.28V89.096H400.04C400.52 89.096 400.936 89.112 401.288 89.144C401.656 89.16 401.952 89.184 402.176 89.216C403.264 89.408 404.152 89.872 404.84 90.608C405.56 91.408 405.92 92.376 405.92 93.512C405.92 94.792 405.336 95.84 404.168 96.656C404.904 97.008 405.496 97.544 405.944 98.264C406.408 98.984 406.64 99.776 406.64 100.64ZM423.32 97.184C423.32 95.408 422.88 93.96 422 92.84C421.056 91.608 419.76 90.992 418.112 90.992C416.464 90.992 415.168 91.608 414.224 92.84C413.328 93.976 412.88 95.424 412.88 97.184C412.88 98.944 413.328 100.392 414.224 101.528C415.152 102.728 416.448 103.328 418.112 103.328C419.76 103.328 421.056 102.728 422 101.528C422.88 100.408 423.32 98.96 423.32 97.184ZM425.792 97.184C425.792 99.52 425.12 101.48 423.776 103.064C422.336 104.776 420.448 105.632 418.112 105.632C415.744 105.632 413.856 104.784 412.448 103.088C411.136 101.52 410.48 99.552 410.48 97.184C410.48 94.816 411.128 92.84 412.424 91.256C413.848 89.544 415.744 88.688 418.112 88.688C420.448 88.688 422.336 89.552 423.776 91.28C425.12 92.896 425.792 94.864 425.792 97.184ZM441.176 102.992V91.496H436.544C436.48 93.4 436.2 95.368 435.704 97.4C435.432 98.504 435.112 99.52 434.744 100.448C434.376 101.376 433.968 102.224 433.52 102.992H441.176ZM446.168 108.56H444.368C443.76 106.464 442.88 105.416 441.728 105.416H432.896C432.272 105.416 431.832 105.736 431.576 106.376C431.4 106.792 431.28 107.52 431.216 108.56H429.176L429.368 104.624C430.232 103.68 431.04 102.472 431.792 101C432.48 99.656 432.992 98.328 433.328 97.016C433.84 94.92 434.096 92.28 434.096 89.096H443.792V103.304C443.792 103.576 443.96 103.808 444.296 104C444.68 104.192 445.192 104.288 445.832 104.288L446.168 108.56ZM463.363 99.512C463.203 101.576 462.459 103.152 461.131 104.24C459.963 105.216 458.435 105.704 456.547 105.704C454.195 105.704 452.347 104.832 451.003 103.088C449.787 101.52 449.179 99.544 449.179 97.16C449.179 94.792 449.795 92.824 451.027 91.256C452.371 89.544 454.227 88.688 456.595 88.688C458.371 88.688 459.819 89.104 460.939 89.936C462.283 90.912 463.043 92.384 463.219 94.352H460.747C460.411 92.144 459.027 91.04 456.595 91.04C454.979 91.04 453.755 91.64 452.923 92.84C452.187 93.912 451.819 95.344 451.819 97.136C451.819 98.912 452.195 100.368 452.947 101.504C453.811 102.736 455.035 103.352 456.619 103.352C459.179 103.352 460.587 102.072 460.843 99.512H463.363ZM478.243 91.448H473.443V105.248H470.923V91.448H466.147V89.096H478.243V91.448ZM491.612 100.592C491.612 98.928 490.452 98.096 488.132 98.096H484.268V102.848H488.036C489.108 102.848 489.908 102.736 490.436 102.512C491.22 102.176 491.612 101.536 491.612 100.592ZM490.916 93.608C490.916 92.712 490.516 92.104 489.716 91.784C489.236 91.592 488.444 91.496 487.34 91.496H484.268V95.72H487.196C488.364 95.72 489.18 95.64 489.644 95.48C490.492 95.16 490.916 94.536 490.916 93.608ZM494.156 100.64C494.156 101.104 494.084 101.552 493.94 101.984C493.812 102.416 493.628 102.816 493.388 103.184C493.148 103.552 492.852 103.88 492.5 104.168C492.164 104.472 491.78 104.704 491.348 104.864C490.772 105.12 489.284 105.248 486.884 105.248H481.796V89.096H487.556C488.036 89.096 488.452 89.112 488.804 89.144C489.172 89.16 489.468 89.184 489.692 89.216C490.78 89.408 491.668 89.872 492.356 90.608C493.076 91.408 493.436 92.376 493.436 93.512C493.436 94.792 492.852 95.84 491.684 96.656C492.42 97.008 493.012 97.544 493.46 98.264C493.924 98.984 494.156 99.776 494.156 100.64ZM507.692 89.096L502.652 103.04C502.028 104.8 500.884 105.68 499.22 105.68C498.676 105.68 498.204 105.624 497.804 105.512V103.256C498.076 103.288 498.324 103.32 498.548 103.352C498.788 103.368 499.004 103.376 499.196 103.376C499.708 103.376 500.124 103.064 500.444 102.44C500.508 102.328 500.58 102.136 500.66 101.864C500.74 101.592 500.844 101.24 500.972 100.808L496.7 89.096H499.172L502.172 97.496L505.196 89.096H507.692Z" fill="white"/>
<path d="M143.941 124.288C143.941 123.968 143.791 123.712 143.493 123.52C143.194 123.317 142.847 123.216 142.453 123.216H140.165V125.312H142.453C142.879 125.312 143.231 125.221 143.509 125.04C143.797 124.859 143.941 124.608 143.941 124.288ZM143.493 120.944C143.493 120.453 143.146 120.208 142.453 120.208H140.165V121.776H142.453C142.741 121.776 142.986 121.696 143.189 121.536C143.391 121.376 143.493 121.179 143.493 120.944ZM145.573 124.4C145.573 125.221 145.21 125.851 144.485 126.288C143.93 126.651 143.253 126.832 142.453 126.832H138.549V118.688H142.453C143.082 118.688 143.658 118.859 144.181 119.2C144.799 119.595 145.109 120.139 145.109 120.832C145.109 121.536 144.773 122.053 144.101 122.384C144.495 122.555 144.831 122.805 145.109 123.136C145.418 123.531 145.573 123.952 145.573 124.4ZM152.314 124.048C152.314 123.664 152.165 123.355 151.866 123.12C151.578 122.885 151.205 122.768 150.746 122.768H150.01V125.328H150.746C151.205 125.328 151.578 125.211 151.866 124.976C152.165 124.731 152.314 124.421 152.314 124.048ZM153.85 124.048C153.85 124.901 153.546 125.584 152.938 126.096C152.373 126.576 151.696 126.816 150.906 126.816H148.41V118.688H150.01V121.296H150.906C151.696 121.296 152.373 121.531 152.938 122C153.546 122.533 153.85 123.216 153.85 124.048ZM157.21 126.816H155.578V118.688H157.21V126.816ZM173.427 126.832H171.859V122L169.987 126.832H168.771L166.899 122V126.832H165.331V118.688H167.187L169.379 124.208L171.539 118.688H173.427V126.832ZM182.407 122.752C182.407 122.005 182.221 121.365 181.847 120.832C181.442 120.256 180.914 119.968 180.263 119.968C179.602 119.968 179.074 120.256 178.679 120.832C178.306 121.365 178.119 122.005 178.119 122.752C178.119 123.509 178.311 124.149 178.695 124.672C179.09 125.248 179.613 125.536 180.263 125.536C180.903 125.536 181.426 125.248 181.831 124.672C182.215 124.149 182.407 123.509 182.407 122.752ZM183.991 122.768C183.991 123.909 183.666 124.885 183.015 125.696C182.29 126.592 181.373 127.04 180.263 127.04C179.122 127.04 178.199 126.597 177.495 125.712C176.845 124.901 176.519 123.92 176.519 122.768C176.519 121.627 176.839 120.645 177.479 119.824C178.183 118.928 179.111 118.48 180.263 118.48C181.405 118.48 182.327 118.933 183.031 119.84C183.671 120.661 183.991 121.637 183.991 122.768ZM196.647 126.832H195.783C195.005 126.832 194.338 126.432 193.783 125.632C193.325 124.981 193.053 124.256 192.967 123.456H192.423V126.832H190.759V123.456H190.183C190.098 124.224 189.826 124.949 189.367 125.632C188.791 126.432 188.114 126.832 187.335 126.832H186.487V125.376H187.255C187.799 125.376 188.226 125.056 188.535 124.416C188.77 123.936 188.887 123.381 188.887 122.752C188.887 122.133 188.77 121.584 188.535 121.104C188.226 120.464 187.799 120.144 187.255 120.144H186.487V118.688H187.335C188.178 118.688 188.866 119.088 189.399 119.888C189.826 120.507 190.087 121.221 190.183 122.032H190.759V118.688H192.423V122.032H192.967C193.063 121.275 193.335 120.565 193.783 119.904C194.338 119.093 195.005 118.688 195.783 118.688H196.647V120.144H195.863C195.309 120.144 194.882 120.464 194.583 121.104C194.359 121.605 194.247 122.155 194.247 122.752C194.247 123.381 194.365 123.936 194.599 124.416C194.887 125.056 195.309 125.376 195.863 125.376H196.647V126.832ZM204.064 121.856C204 121.312 203.813 120.869 203.504 120.528C203.163 120.155 202.747 119.968 202.256 119.968C201.755 119.968 201.333 120.155 200.992 120.528C200.672 120.869 200.464 121.312 200.368 121.856H204.064ZM205.68 123.264H200.336C200.379 123.915 200.565 124.453 200.896 124.88C201.259 125.328 201.728 125.552 202.304 125.552C203.349 125.552 203.947 125.061 204.096 124.08H205.632C205.483 125.061 205.088 125.813 204.448 126.336C203.84 126.816 203.104 127.056 202.24 127.056C201.76 127.056 201.296 126.955 200.848 126.752C200.336 126.539 199.936 126.256 199.648 125.904C199.371 125.552 199.147 125.056 198.976 124.416C198.837 123.872 198.768 123.339 198.768 122.816C198.768 121.611 199.029 120.619 199.552 119.84C200.171 118.933 201.077 118.48 202.272 118.48C203.392 118.48 204.267 118.923 204.896 119.808C205.419 120.555 205.68 121.499 205.68 122.64V123.264ZM215.632 120.208H212.544V126.832H210.864V120.208H207.792V118.688H215.632V120.208ZM222.923 121.856C222.859 121.312 222.673 120.869 222.363 120.528C222.022 120.155 221.606 119.968 221.115 119.968C220.614 119.968 220.193 120.155 219.851 120.528C219.531 120.869 219.323 121.312 219.227 121.856H222.923ZM224.539 123.264H219.195C219.238 123.915 219.425 124.453 219.755 124.88C220.118 125.328 220.587 125.552 221.163 125.552C222.209 125.552 222.806 125.061 222.955 124.08H224.491C224.342 125.061 223.947 125.813 223.307 126.336C222.699 126.816 221.963 127.056 221.099 127.056C220.619 127.056 220.155 126.955 219.707 126.752C219.195 126.539 218.795 126.256 218.507 125.904C218.23 125.552 218.006 125.056 217.835 124.416C217.697 123.872 217.627 123.339 217.627 122.816C217.627 121.611 217.889 120.619 218.411 119.84C219.03 118.933 219.937 118.48 221.131 118.48C222.251 118.48 223.126 118.923 223.755 119.808C224.278 120.555 224.539 121.499 224.539 122.64V123.264ZM238.784 126.832H237.248V120.192H233.744V126.832H232.192V118.688H238.784V126.832ZM247.72 122.752C247.72 122.005 247.533 121.365 247.16 120.832C246.754 120.256 246.226 119.968 245.576 119.968C244.914 119.968 244.386 120.256 243.992 120.832C243.618 121.365 243.432 122.005 243.432 122.752C243.432 123.509 243.624 124.149 244.008 124.672C244.402 125.248 244.925 125.536 245.576 125.536C246.216 125.536 246.738 125.248 247.144 124.672C247.528 124.149 247.72 123.509 247.72 122.752ZM249.304 122.768C249.304 123.909 248.978 124.885 248.328 125.696C247.602 126.592 246.685 127.04 245.576 127.04C244.434 127.04 243.512 126.597 242.808 125.712C242.157 124.901 241.832 123.92 241.832 122.768C241.832 121.627 242.152 120.645 242.792 119.824C243.496 118.928 244.424 118.48 245.576 118.48C246.717 118.48 247.64 118.933 248.344 119.84C248.984 120.661 249.304 121.637 249.304 122.768ZM258.76 123.76C258.504 125.979 257.357 127.088 255.32 127.088C254.861 127.088 254.397 126.987 253.928 126.784C253.416 126.571 253.01 126.288 252.712 125.936C252.413 125.573 252.178 125.072 252.008 124.432C251.858 123.867 251.784 123.339 251.784 122.848C251.784 122.336 251.858 121.781 252.008 121.184C252.189 120.523 252.429 120.011 252.728 119.648C253.037 119.285 253.448 118.997 253.96 118.784C254.429 118.581 254.904 118.48 255.384 118.48C256.29 118.48 257.021 118.725 257.576 119.216C258.226 119.76 258.584 120.555 258.648 121.6H257.144C256.994 120.512 256.408 119.968 255.384 119.968C254.722 119.968 254.205 120.251 253.832 120.816C253.512 121.317 253.352 121.963 253.352 122.752C253.352 123.563 253.512 124.224 253.832 124.736C254.205 125.301 254.728 125.584 255.4 125.584C256.456 125.584 257.064 124.976 257.224 123.76H258.76ZM266.408 121.856C266.344 121.312 266.157 120.869 265.848 120.528C265.506 120.155 265.09 119.968 264.6 119.968C264.098 119.968 263.677 120.155 263.336 120.528C263.016 120.869 262.808 121.312 262.712 121.856H266.408ZM268.024 123.264H262.68C262.722 123.915 262.909 124.453 263.24 124.88C263.602 125.328 264.072 125.552 264.648 125.552C265.693 125.552 266.29 125.061 266.44 124.08H267.976C267.826 125.061 267.432 125.813 266.792 126.336C266.184 126.816 265.448 127.056 264.584 127.056C264.104 127.056 263.64 126.955 263.192 126.752C262.68 126.539 262.28 126.256 261.992 125.904C261.714 125.552 261.49 125.056 261.32 124.416C261.181 123.872 261.112 123.339 261.112 122.816C261.112 121.611 261.373 120.619 261.896 119.84C262.514 118.933 263.421 118.48 264.616 118.48C265.736 118.48 266.61 118.923 267.24 119.808C267.762 120.555 268.024 121.499 268.024 122.64V123.264ZM277.976 120.208H274.888V126.832H273.208V120.208H270.136V118.688H277.976V120.208ZM287.507 126.832H285.939V121.824L282.243 125.92V126.832H280.675V118.688H282.243V123.664L285.939 119.584V118.688H287.507V126.832ZM298.038 120.208H294.95V126.832H293.27V120.208H290.198V118.688H298.038V120.208ZM304.61 123.888C304.61 123.461 304.455 123.12 304.146 122.864C303.847 122.629 303.463 122.512 302.994 122.512H302.29V125.312H302.994C303.452 125.312 303.836 125.189 304.146 124.944C304.455 124.688 304.61 124.336 304.61 123.888ZM306.146 123.904C306.146 124.789 305.842 125.504 305.234 126.048C304.668 126.571 303.964 126.832 303.122 126.832H300.77V118.688H302.29V120.992H303.122C303.954 120.992 304.658 121.248 305.234 121.76C305.842 122.325 306.146 123.04 306.146 123.904ZM319.985 126.832H318.449V123.36H314.945V126.832H313.409V118.688H314.945V121.872H318.449V118.688H319.985V126.832ZM330.507 126.832C330.251 126.853 330.043 126.869 329.883 126.88C329.723 126.901 329.606 126.912 329.531 126.912C328.891 126.912 328.491 126.613 328.331 126.016C327.489 126.709 326.63 127.056 325.755 127.056C324.966 127.056 324.321 126.859 323.819 126.464C323.254 126.016 322.971 125.397 322.971 124.608C322.971 123.637 323.393 122.923 324.235 122.464C324.865 122.123 325.707 121.925 326.763 121.872C326.998 121.872 327.334 121.824 327.771 121.728C327.985 121.6 328.091 121.44 328.091 121.248C328.091 120.373 327.601 119.936 326.619 119.936C325.467 119.936 324.886 120.448 324.875 121.472H323.323C323.334 120.416 323.697 119.632 324.411 119.12C324.966 118.704 325.702 118.496 326.619 118.496C327.483 118.496 328.182 118.688 328.715 119.072C329.334 119.52 329.643 120.203 329.643 121.12V125.152C329.643 125.355 329.707 125.488 329.835 125.552C329.91 125.584 330.134 125.6 330.507 125.6V126.832ZM328.091 123.008C327.622 123.072 326.881 123.184 325.867 123.344C324.982 123.525 324.539 123.925 324.539 124.544C324.539 124.853 324.662 125.104 324.907 125.296C325.153 125.488 325.473 125.584 325.867 125.584C326.507 125.584 327.035 125.408 327.451 125.056C327.878 124.704 328.091 124.229 328.091 123.632V123.008ZM342.843 126.816H333.003V118.688H334.651V125.36H337.115V118.688H338.779V125.36H341.195V118.688H342.843V126.816ZM351.048 121.856C350.984 121.312 350.798 120.869 350.488 120.528C350.147 120.155 349.731 119.968 349.24 119.968C348.739 119.968 348.318 120.155 347.976 120.528C347.656 120.869 347.448 121.312 347.352 121.856H351.048ZM352.664 123.264H347.32C347.363 123.915 347.55 124.453 347.88 124.88C348.243 125.328 348.712 125.552 349.288 125.552C350.334 125.552 350.931 125.061 351.08 124.08H352.616C352.467 125.061 352.072 125.813 351.432 126.336C350.824 126.816 350.088 127.056 349.224 127.056C348.744 127.056 348.28 126.955 347.832 126.752C347.32 126.539 346.92 126.256 346.632 125.904C346.355 125.552 346.131 125.056 345.96 124.416C345.822 123.872 345.752 123.339 345.752 122.816C345.752 121.611 346.014 120.619 346.536 119.84C347.155 118.933 348.062 118.48 349.256 118.48C350.376 118.48 351.251 118.923 351.88 119.808C352.403 120.555 352.664 121.499 352.664 122.64V123.264ZM366.909 126.832H365.373V120.192H361.869V126.832H360.317V118.688H366.909V126.832ZM375.909 122.864C375.909 122.085 375.727 121.429 375.365 120.896C374.959 120.299 374.442 120 373.813 120C373.162 120 372.639 120.293 372.245 120.88C371.893 121.413 371.717 122.075 371.717 122.864C371.717 123.632 371.898 124.283 372.261 124.816C372.655 125.403 373.173 125.696 373.813 125.696C374.442 125.696 374.959 125.397 375.365 124.8C375.727 124.267 375.909 123.621 375.909 122.864ZM377.493 122.864C377.493 123.333 377.413 123.84 377.253 124.384C377.093 124.992 376.879 125.472 376.613 125.824C376.463 126.027 376.287 126.213 376.085 126.384C375.882 126.555 375.663 126.704 375.429 126.832C375.194 126.96 374.949 127.056 374.693 127.12C374.447 127.195 374.202 127.232 373.957 127.232C373.103 127.232 372.383 126.923 371.797 126.304V129.04H370.229V118.672H371.797V119.408C372.383 118.789 373.103 118.48 373.957 118.48C374.447 118.48 374.938 118.613 375.429 118.88C375.919 119.136 376.314 119.467 376.613 119.872C376.879 120.224 377.093 120.704 377.253 121.312C377.413 121.856 377.493 122.373 377.493 122.864ZM385.845 122.752C385.845 122.005 385.658 121.365 385.285 120.832C384.879 120.256 384.351 119.968 383.701 119.968C383.039 119.968 382.511 120.256 382.117 120.832C381.743 121.365 381.557 122.005 381.557 122.752C381.557 123.509 381.749 124.149 382.133 124.672C382.527 125.248 383.05 125.536 383.701 125.536C384.341 125.536 384.863 125.248 385.269 124.672C385.653 124.149 385.845 123.509 385.845 122.752ZM387.429 122.768C387.429 123.909 387.103 124.885 386.453 125.696C385.727 126.592 384.81 127.04 383.701 127.04C382.559 127.04 381.637 126.597 380.933 125.712C380.282 124.901 379.957 123.92 379.957 122.768C379.957 121.627 380.277 120.645 380.917 119.824C381.621 118.928 382.549 118.48 383.701 118.48C384.842 118.48 385.765 118.933 386.469 119.84C387.109 120.661 387.429 121.637 387.429 122.768ZM397.445 126.832H395.877V121.824L392.181 125.92V126.832H390.613V118.688H392.181V123.664L395.877 119.584V118.688H397.445V126.832ZM407.128 124.384C407.128 125.248 406.728 125.925 405.928 126.416C405.277 126.811 404.547 127.008 403.736 127.008C402.883 127.008 402.141 126.805 401.512 126.4C400.744 125.909 400.36 125.221 400.36 124.336V124.128H401.944C401.944 125.131 402.531 125.632 403.704 125.632C404.173 125.632 404.595 125.515 404.968 125.28C405.363 125.024 405.56 124.715 405.56 124.352C405.56 123.84 405.229 123.504 404.568 123.344C404.28 123.269 403.757 123.232 403 123.232V121.92H403.352C403.917 121.92 404.376 121.84 404.728 121.68C405.123 121.509 405.32 121.253 405.32 120.912C405.32 120.603 405.165 120.352 404.856 120.16C404.579 119.989 404.221 119.904 403.784 119.904C402.739 119.904 402.195 120.416 402.152 121.44H400.664C400.696 120.427 401.037 119.664 401.688 119.152C402.221 118.725 402.925 118.512 403.8 118.512C404.568 118.512 405.235 118.683 405.8 119.024C406.483 119.451 406.824 120.08 406.824 120.912C406.824 121.552 406.52 122.069 405.912 122.464C406.723 122.827 407.128 123.467 407.128 124.384ZM415.488 124.288C415.488 123.968 415.338 123.712 415.04 123.52C414.741 123.317 414.394 123.216 414 123.216H411.712V125.312H414C414.426 125.312 414.778 125.221 415.056 125.04C415.344 124.859 415.488 124.608 415.488 124.288ZM415.04 120.944C415.04 120.453 414.693 120.208 414 120.208H411.712V121.776H414C414.288 121.776 414.533 121.696 414.736 121.536C414.938 121.376 415.04 121.179 415.04 120.944ZM417.12 124.4C417.12 125.221 416.757 125.851 416.032 126.288C415.477 126.651 414.8 126.832 414 126.832H410.096V118.688H414C414.629 118.688 415.205 118.859 415.728 119.2C416.346 119.595 416.656 120.139 416.656 120.832C416.656 121.536 416.32 122.053 415.648 122.384C416.042 122.555 416.378 122.805 416.656 123.136C416.965 123.531 417.12 123.952 417.12 124.4ZM425.157 122.752C425.157 122.005 424.971 121.365 424.597 120.832C424.192 120.256 423.664 119.968 423.013 119.968C422.352 119.968 421.824 120.256 421.429 120.832C421.056 121.365 420.869 122.005 420.869 122.752C420.869 123.509 421.061 124.149 421.445 124.672C421.84 125.248 422.363 125.536 423.013 125.536C423.653 125.536 424.176 125.248 424.581 124.672C424.965 124.149 425.157 123.509 425.157 122.752ZM426.741 122.768C426.741 123.909 426.416 124.885 425.765 125.696C425.04 126.592 424.123 127.04 423.013 127.04C421.872 127.04 420.949 126.597 420.245 125.712C419.595 124.901 419.269 123.92 419.269 122.768C419.269 121.627 419.589 120.645 420.229 119.824C420.933 118.928 421.861 118.48 423.013 118.48C424.155 118.48 425.077 118.933 425.781 119.84C426.421 120.661 426.741 121.637 426.741 122.768ZM434.949 125.44V120.272H432.661C432.64 120.688 432.592 121.115 432.517 121.552C432.453 121.989 432.363 122.448 432.245 122.928C432.107 123.44 431.952 123.904 431.781 124.32C431.611 124.736 431.424 125.109 431.221 125.44H434.949ZM438.149 128.896H436.997C436.539 127.573 435.952 126.912 435.237 126.912H430.837C430.421 126.912 430.133 127.104 429.973 127.488C429.856 127.744 429.776 128.213 429.733 128.896H428.389L428.501 126.432C429.419 125.611 430.085 124.533 430.501 123.2C430.885 122.005 431.077 120.501 431.077 118.688H436.565V125.568C436.565 125.739 436.683 125.888 436.917 126.016C437.163 126.155 437.499 126.224 437.925 126.224L438.149 128.896ZM446.65 123.76C446.394 125.979 445.248 127.088 443.21 127.088C442.752 127.088 442.288 126.987 441.818 126.784C441.306 126.571 440.901 126.288 440.602 125.936C440.304 125.573 440.069 125.072 439.898 124.432C439.749 123.867 439.674 123.339 439.674 122.848C439.674 122.336 439.749 121.781 439.898 121.184C440.08 120.523 440.32 120.011 440.618 119.648C440.928 119.285 441.338 118.997 441.85 118.784C442.32 118.581 442.794 118.48 443.274 118.48C444.181 118.48 444.912 118.725 445.466 119.216C446.117 119.76 446.474 120.555 446.538 121.6H445.034C444.885 120.512 444.298 119.968 443.274 119.968C442.613 119.968 442.096 120.251 441.722 120.816C441.402 121.317 441.242 121.963 441.242 122.752C441.242 123.563 441.402 124.224 441.722 124.736C442.096 125.301 442.618 125.584 443.29 125.584C444.346 125.584 444.954 124.976 445.114 123.76H446.65ZM456.538 120.208H453.45V126.832H451.77V120.208H448.698V118.688H456.538V120.208ZM464.566 124.288C464.566 123.968 464.416 123.712 464.118 123.52C463.819 123.317 463.472 123.216 463.078 123.216H460.79V125.312H463.078C463.504 125.312 463.856 125.221 464.134 125.04C464.422 124.859 464.566 124.608 464.566 124.288ZM464.118 120.944C464.118 120.453 463.771 120.208 463.078 120.208H460.79V121.776H463.078C463.366 121.776 463.611 121.696 463.814 121.536C464.016 121.376 464.118 121.179 464.118 120.944ZM466.198 124.4C466.198 125.221 465.835 125.851 465.11 126.288C464.555 126.651 463.878 126.832 463.078 126.832H459.174V118.688H463.078C463.707 118.688 464.283 118.859 464.806 119.2C465.424 119.595 465.734 120.139 465.734 120.832C465.734 121.536 465.398 122.053 464.726 122.384C465.12 122.555 465.456 122.805 465.734 123.136C466.043 123.531 466.198 123.952 466.198 124.4ZM474.235 122.752C474.235 122.005 474.049 121.365 473.675 120.832C473.27 120.256 472.742 119.968 472.091 119.968C471.43 119.968 470.902 120.256 470.507 120.832C470.134 121.365 469.947 122.005 469.947 122.752C469.947 123.509 470.139 124.149 470.523 124.672C470.918 125.248 471.441 125.536 472.091 125.536C472.731 125.536 473.254 125.248 473.659 124.672C474.043 124.149 474.235 123.509 474.235 122.752ZM475.819 122.768C475.819 123.909 475.494 124.885 474.843 125.696C474.118 126.592 473.201 127.04 472.091 127.04C470.95 127.04 470.027 126.597 469.323 125.712C468.673 124.901 468.347 123.92 468.347 122.768C468.347 121.627 468.667 120.645 469.307 119.824C470.011 118.928 470.939 118.48 472.091 118.48C473.233 118.48 474.155 118.933 474.859 119.84C475.499 120.661 475.819 121.637 475.819 122.768ZM137.467 143.832H135.899V139L134.027 143.832H132.811L130.939 139V143.832H129.371V135.688H131.227L133.419 141.208L135.579 135.688H137.467V143.832ZM145.806 138.856C145.742 138.312 145.556 137.869 145.246 137.528C144.905 137.155 144.489 136.968 143.998 136.968C143.497 136.968 143.076 137.155 142.734 137.528C142.414 137.869 142.206 138.312 142.11 138.856H145.806ZM147.422 140.264H142.078C142.121 140.915 142.308 141.453 142.638 141.88C143.001 142.328 143.47 142.552 144.046 142.552C145.092 142.552 145.689 142.061 145.838 141.08H147.374C147.225 142.061 146.83 142.813 146.19 143.336C145.582 143.816 144.846 144.056 143.982 144.056C143.502 144.056 143.038 143.955 142.59 143.752C142.078 143.539 141.678 143.256 141.39 142.904C141.113 142.552 140.889 142.056 140.718 141.416C140.58 140.872 140.51 140.339 140.51 139.816C140.51 138.611 140.772 137.619 141.294 136.84C141.913 135.933 142.82 135.48 144.014 135.48C145.134 135.48 146.009 135.923 146.638 136.808C147.161 137.555 147.422 138.499 147.422 139.64V140.264ZM155.39 140.2C155.39 139.581 155.209 139.059 154.846 138.632C154.494 138.195 154.041 137.976 153.486 137.976C152.932 137.976 152.468 138.195 152.094 138.632C151.732 139.059 151.55 139.581 151.55 140.2C151.55 140.819 151.726 141.341 152.078 141.768C152.441 142.184 152.905 142.392 153.47 142.392C154.014 142.392 154.468 142.179 154.83 141.752C155.204 141.315 155.39 140.797 155.39 140.2ZM157.646 133.528C157.145 134.221 156.681 134.712 156.254 135C155.945 135.213 155.529 135.405 155.006 135.576L153.678 136.008C153.092 136.211 152.617 136.552 152.254 137.032C152.724 136.68 153.172 136.509 153.598 136.52C154.676 136.573 155.529 136.968 156.158 137.704C156.745 138.387 157.038 139.219 157.038 140.2C157.038 141.256 156.702 142.152 156.03 142.888C155.337 143.624 154.484 143.992 153.47 143.992C153.012 143.992 152.537 143.885 152.046 143.672C151.545 143.437 151.14 143.133 150.83 142.76C150.212 141.981 149.902 140.84 149.902 139.336C149.902 137.928 150.404 136.701 151.406 135.656C151.758 135.272 152.297 134.957 153.022 134.712C153.566 134.531 153.988 134.387 154.286 134.28C154.585 134.173 154.761 134.104 154.814 134.072C155.476 133.741 155.993 133.261 156.366 132.632L157.646 133.528ZM164.478 138.856C164.414 138.312 164.227 137.869 163.918 137.528C163.577 137.155 163.161 136.968 162.67 136.968C162.169 136.968 161.747 137.155 161.406 137.528C161.086 137.869 160.878 138.312 160.782 138.856H164.478ZM166.094 140.264H160.75C160.793 140.915 160.979 141.453 161.31 141.88C161.673 142.328 162.142 142.552 162.718 142.552C163.763 142.552 164.361 142.061 164.51 141.08H166.046C165.897 142.061 165.502 142.813 164.862 143.336C164.254 143.816 163.518 144.056 162.654 144.056C162.174 144.056 161.71 143.955 161.262 143.752C160.75 143.539 160.35 143.256 160.062 142.904C159.785 142.552 159.561 142.056 159.39 141.416C159.251 140.872 159.182 140.339 159.182 139.816C159.182 138.611 159.443 137.619 159.966 136.84C160.585 135.933 161.491 135.48 162.686 135.48C163.806 135.48 164.681 135.923 165.31 136.808C165.833 137.555 166.094 138.499 166.094 139.64V140.264ZM176.11 143.832H174.494V137.256H171.726V140.376C171.726 141.411 171.422 142.253 170.814 142.904C170.153 143.597 169.268 143.965 168.158 144.008L167.582 142.472C168.542 142.44 169.22 142.243 169.614 141.88C169.977 141.517 170.158 140.936 170.158 140.136V135.688H176.11V143.832ZM186.312 143.832H184.744V138.824L181.048 142.92V143.832H179.48V135.688H181.048V140.664L184.744 136.584V135.688H186.312V143.832ZM191.963 142.712L190.571 146.04H189.179L190.027 142.712H191.963ZM205.211 143.832H203.691V141.272C203.147 141.784 202.486 142.04 201.707 142.04C200.993 142.04 200.401 141.875 199.931 141.544C199.398 141.16 199.083 140.611 198.987 139.896C198.977 139.811 198.966 139.715 198.955 139.608C198.955 139.501 198.955 139.389 198.955 139.272V135.688H200.507V138.712C200.507 139.416 200.587 139.901 200.747 140.168C200.939 140.477 201.313 140.632 201.867 140.632C202.39 140.632 202.817 140.451 203.147 140.088C203.51 139.715 203.691 139.213 203.691 138.584V135.688H205.211V143.832ZM215.499 137.208H212.411V143.832H210.731V137.208H207.659V135.688H215.499V137.208ZM223.431 139.752C223.431 139.005 223.244 138.365 222.871 137.832C222.465 137.256 221.937 136.968 221.287 136.968C220.625 136.968 220.097 137.256 219.703 137.832C219.329 138.365 219.143 139.005 219.143 139.752C219.143 140.509 219.335 141.149 219.719 141.672C220.113 142.248 220.636 142.536 221.287 142.536C221.927 142.536 222.449 142.248 222.855 141.672C223.239 141.149 223.431 140.509 223.431 139.752ZM225.015 139.768C225.015 140.909 224.689 141.885 224.039 142.696C223.313 143.592 222.396 144.04 221.287 144.04C220.145 144.04 219.223 143.597 218.519 142.712C217.868 141.901 217.543 140.92 217.543 139.768C217.543 138.627 217.863 137.645 218.503 136.824C219.207 135.928 220.135 135.48 221.287 135.48C222.428 135.48 223.351 135.933 224.055 136.84C224.695 137.661 225.015 138.637 225.015 139.768ZM233.047 140.2C233.047 139.581 232.865 139.059 232.503 138.632C232.151 138.195 231.697 137.976 231.143 137.976C230.588 137.976 230.124 138.195 229.751 138.632C229.388 139.059 229.207 139.581 229.207 140.2C229.207 140.819 229.383 141.341 229.735 141.768C230.097 142.184 230.561 142.392 231.127 142.392C231.671 142.392 232.124 142.179 232.487 141.752C232.86 141.315 233.047 140.797 233.047 140.2ZM235.303 133.528C234.801 134.221 234.337 134.712 233.911 135C233.601 135.213 233.185 135.405 232.663 135.576L231.335 136.008C230.748 136.211 230.273 136.552 229.911 137.032C230.38 136.68 230.828 136.509 231.255 136.52C232.332 136.573 233.185 136.968 233.815 137.704C234.401 138.387 234.695 139.219 234.695 140.2C234.695 141.256 234.359 142.152 233.687 142.888C232.993 143.624 232.14 143.992 231.127 143.992C230.668 143.992 230.193 143.885 229.703 143.672C229.201 143.437 228.796 143.133 228.487 142.76C227.868 141.981 227.559 140.84 227.559 139.336C227.559 137.928 228.06 136.701 229.063 135.656C229.415 135.272 229.953 134.957 230.679 134.712C231.223 134.531 231.644 134.387 231.943 134.28C232.241 134.173 232.417 134.104 232.471 134.072C233.132 133.741 233.649 133.261 234.023 132.632L235.303 133.528ZM241.478 141.048C241.478 140.664 241.329 140.355 241.03 140.12C240.742 139.885 240.369 139.768 239.91 139.768H239.174V142.328H239.91C240.369 142.328 240.742 142.211 241.03 141.976C241.329 141.731 241.478 141.421 241.478 141.048ZM243.014 141.048C243.014 141.901 242.71 142.584 242.102 143.096C241.537 143.576 240.86 143.816 240.07 143.816H237.574V135.688H239.174V138.296H240.07C240.86 138.296 241.537 138.531 242.102 139C242.71 139.533 243.014 140.216 243.014 141.048ZM246.374 143.816H244.742V135.688H246.374V143.816ZM260.432 135.688L257.072 144.28C256.624 145.443 255.866 146.024 254.799 146.024C254.704 146.024 254.576 146.013 254.416 145.992C254.256 145.971 254.064 145.939 253.84 145.896V144.36C253.85 144.36 254.005 144.387 254.304 144.44C254.485 144.483 254.645 144.504 254.784 144.504C255.082 144.504 255.338 144.328 255.552 143.976C255.626 143.869 255.754 143.555 255.936 143.032L253.088 135.688H254.752L256.768 140.92L258.768 135.688H260.432ZM267.344 140.2C267.344 139.581 267.162 139.059 266.8 138.632C266.448 138.195 265.994 137.976 265.44 137.976C264.885 137.976 264.421 138.195 264.048 138.632C263.685 139.059 263.504 139.581 263.504 140.2C263.504 140.819 263.68 141.341 264.032 141.768C264.394 142.184 264.858 142.392 265.424 142.392C265.968 142.392 266.421 142.179 266.784 141.752C267.157 141.315 267.344 140.797 267.344 140.2ZM269.6 133.528C269.098 134.221 268.634 134.712 268.208 135C267.898 135.213 267.482 135.405 266.96 135.576L265.632 136.008C265.045 136.211 264.57 136.552 264.208 137.032C264.677 136.68 265.125 136.509 265.552 136.52C266.629 136.573 267.482 136.968 268.112 137.704C268.698 138.387 268.992 139.219 268.992 140.2C268.992 141.256 268.656 142.152 267.984 142.888C267.29 143.624 266.437 143.992 265.424 143.992C264.965 143.992 264.49 143.885 264 143.672C263.498 143.437 263.093 143.133 262.784 142.76C262.165 141.981 261.856 140.84 261.856 139.336C261.856 137.928 262.357 136.701 263.36 135.656C263.712 135.272 264.25 134.957 264.976 134.712C265.52 134.531 265.941 134.387 266.24 134.28C266.538 134.173 266.714 134.104 266.768 134.072C267.429 133.741 267.946 133.261 268.32 132.632L269.6 133.528ZM276.431 138.856C276.367 138.312 276.181 137.869 275.871 137.528C275.53 137.155 275.114 136.968 274.623 136.968C274.122 136.968 273.701 137.155 273.359 137.528C273.039 137.869 272.831 138.312 272.735 138.856H276.431ZM278.047 140.264H272.703C272.746 140.915 272.933 141.453 273.263 141.88C273.626 142.328 274.095 142.552 274.671 142.552C275.717 142.552 276.314 142.061 276.463 141.08H277.999C277.85 142.061 277.455 142.813 276.815 143.336C276.207 143.816 275.471 144.056 274.607 144.056C274.127 144.056 273.663 143.955 273.215 143.752C272.703 143.539 272.303 143.256 272.015 142.904C271.738 142.552 271.514 142.056 271.343 141.416C271.205 140.872 271.135 140.339 271.135 139.816C271.135 138.611 271.397 137.619 271.919 136.84C272.538 135.933 273.445 135.48 274.639 135.48C275.759 135.48 276.634 135.923 277.263 136.808C277.786 137.555 278.047 138.499 278.047 139.64V140.264ZM286.191 142.44V137.272H283.903C283.882 137.688 283.834 138.115 283.759 138.552C283.695 138.989 283.605 139.448 283.487 139.928C283.349 140.44 283.194 140.904 283.023 141.32C282.853 141.736 282.666 142.109 282.463 142.44H286.191ZM289.391 145.896H288.239C287.781 144.573 287.194 143.912 286.479 143.912H282.079C281.663 143.912 281.375 144.104 281.215 144.488C281.098 144.744 281.018 145.213 280.975 145.896H279.631L279.743 143.432C280.661 142.611 281.327 141.533 281.743 140.2C282.127 139.005 282.319 137.501 282.319 135.688H287.807V142.568C287.807 142.739 287.925 142.888 288.159 143.016C288.405 143.155 288.741 143.224 289.167 143.224L289.391 145.896ZM298.453 143.832H296.885V138.824L293.189 142.92V143.832H291.621V135.688H293.189V140.664L296.885 136.584V135.688H298.453V143.832ZM308.984 137.208H305.896V143.832H304.216V137.208H301.144V135.688H308.984V137.208ZM315.555 140.888C315.555 140.461 315.4 140.12 315.091 139.864C314.792 139.629 314.408 139.512 313.939 139.512H313.235V142.312H313.939C314.398 142.312 314.782 142.189 315.091 141.944C315.4 141.688 315.555 141.336 315.555 140.888ZM317.091 140.904C317.091 141.789 316.787 142.504 316.179 143.048C315.614 143.571 314.91 143.832 314.067 143.832H311.715V135.688H313.235V137.992H314.067C314.899 137.992 315.603 138.248 316.179 138.76C316.787 139.325 317.091 140.04 317.091 140.904ZM326.158 140.76C325.902 142.979 324.755 144.088 322.718 144.088C322.259 144.088 321.795 143.987 321.326 143.784C320.814 143.571 320.409 143.288 320.11 142.936C319.811 142.573 319.577 142.072 319.406 141.432C319.257 140.867 319.182 140.339 319.182 139.848C319.182 139.336 319.257 138.781 319.406 138.184C319.587 137.523 319.827 137.011 320.126 136.648C320.435 136.285 320.846 135.997 321.358 135.784C321.827 135.581 322.302 135.48 322.782 135.48C323.689 135.48 324.419 135.725 324.974 136.216C325.625 136.76 325.982 137.555 326.046 138.6H324.542C324.393 137.512 323.806 136.968 322.782 136.968C322.121 136.968 321.603 137.251 321.23 137.816C320.91 138.317 320.75 138.963 320.75 139.752C320.75 140.563 320.91 141.224 321.23 141.736C321.603 142.301 322.126 142.584 322.798 142.584C323.854 142.584 324.462 141.976 324.622 140.76H326.158ZM333.454 139.288V137.192H332.062C331.006 137.192 330.478 137.517 330.478 138.168C330.478 138.915 331.006 139.288 332.062 139.288H333.454ZM335.022 143.832H333.454V140.792H332.382L329.95 143.832H327.95L330.558 140.584C329.47 140.221 328.926 139.4 328.926 138.12C328.926 136.499 330.121 135.688 332.51 135.688H335.022V143.832ZM348.324 141.288C348.324 140.968 348.174 140.712 347.876 140.52C347.577 140.317 347.23 140.216 346.836 140.216H344.548V142.312H346.836C347.262 142.312 347.614 142.221 347.892 142.04C348.18 141.859 348.324 141.608 348.324 141.288ZM347.876 137.944C347.876 137.453 347.529 137.208 346.836 137.208H344.548V138.776H346.836C347.124 138.776 347.369 138.696 347.572 138.536C347.774 138.376 347.876 138.179 347.876 137.944ZM349.956 141.4C349.956 142.221 349.593 142.851 348.868 143.288C348.313 143.651 347.636 143.832 346.836 143.832H342.932V135.688H346.836C347.465 135.688 348.041 135.859 348.564 136.2C349.182 136.595 349.492 137.139 349.492 137.832C349.492 138.536 349.156 139.053 348.484 139.384C348.878 139.555 349.214 139.805 349.492 140.136C349.801 140.531 349.956 140.952 349.956 141.4ZM363.422 135.688L360.11 139.128L363.39 143.832H361.566L359.038 140.216L358.398 140.824V143.832H356.846V135.688H358.398V138.792L361.406 135.688H363.422ZM373.093 143.832C372.837 143.853 372.629 143.869 372.469 143.88C372.309 143.901 372.192 143.912 372.117 143.912C371.477 143.912 371.077 143.613 370.917 143.016C370.074 143.709 369.216 144.056 368.341 144.056C367.552 144.056 366.906 143.859 366.405 143.464C365.84 143.016 365.557 142.397 365.557 141.608C365.557 140.637 365.978 139.923 366.821 139.464C367.45 139.123 368.293 138.925 369.349 138.872C369.584 138.872 369.92 138.824 370.357 138.728C370.57 138.6 370.677 138.44 370.677 138.248C370.677 137.373 370.186 136.936 369.205 136.936C368.053 136.936 367.472 137.448 367.461 138.472H365.909C365.92 137.416 366.282 136.632 366.997 136.12C367.552 135.704 368.288 135.496 369.205 135.496C370.069 135.496 370.768 135.688 371.301 136.072C371.92 136.52 372.229 137.203 372.229 138.12V142.152C372.229 142.355 372.293 142.488 372.421 142.552C372.496 142.584 372.72 142.6 373.093 142.6V143.832ZM370.677 140.008C370.208 140.072 369.466 140.184 368.453 140.344C367.568 140.525 367.125 140.925 367.125 141.544C367.125 141.853 367.248 142.104 367.493 142.296C367.738 142.488 368.058 142.584 368.453 142.584C369.093 142.584 369.621 142.408 370.037 142.056C370.464 141.704 370.677 141.229 370.677 140.632V140.008ZM381.461 143.832H379.941V141.272C379.397 141.784 378.736 142.04 377.957 142.04C377.243 142.04 376.651 141.875 376.181 141.544C375.648 141.16 375.333 140.611 375.237 139.896C375.227 139.811 375.216 139.715 375.205 139.608C375.205 139.501 375.205 139.389 375.205 139.272V135.688H376.757V138.712C376.757 139.416 376.837 139.901 376.997 140.168C377.189 140.477 377.563 140.632 378.117 140.632C378.64 140.632 379.067 140.451 379.397 140.088C379.76 139.715 379.941 139.213 379.941 138.584V135.688H381.461V143.832ZM389.509 138.856C389.445 138.312 389.259 137.869 388.949 137.528C388.608 137.155 388.192 136.968 387.701 136.968C387.2 136.968 386.779 137.155 386.437 137.528C386.117 137.869 385.909 138.312 385.813 138.856H389.509ZM391.125 140.264H385.781C385.824 140.915 386.011 141.453 386.341 141.88C386.704 142.328 387.173 142.552 387.749 142.552C388.795 142.552 389.392 142.061 389.541 141.08H391.077C390.928 142.061 390.533 142.813 389.893 143.336C389.285 143.816 388.549 144.056 387.685 144.056C387.205 144.056 386.741 143.955 386.293 143.752C385.781 143.539 385.381 143.256 385.093 142.904C384.816 142.552 384.592 142.056 384.421 141.416C384.283 140.872 384.213 140.339 384.213 139.816C384.213 138.611 384.475 137.619 384.997 136.84C385.616 135.933 386.523 135.48 387.717 135.48C388.837 135.48 389.712 135.923 390.341 136.808C390.864 137.555 391.125 138.499 391.125 139.64V140.264ZM400.517 140.76C400.262 142.979 399.115 144.088 397.078 144.088C396.619 144.088 396.155 143.987 395.686 143.784C395.174 143.571 394.768 143.288 394.47 142.936C394.171 142.573 393.936 142.072 393.766 141.432C393.616 140.867 393.542 140.339 393.542 139.848C393.542 139.336 393.616 138.781 393.766 138.184C393.947 137.523 394.187 137.011 394.486 136.648C394.795 136.285 395.206 135.997 395.718 135.784C396.187 135.581 396.662 135.48 397.141 135.48C398.048 135.48 398.779 135.725 399.334 136.216C399.984 136.76 400.342 137.555 400.406 138.6H398.902C398.752 137.512 398.166 136.968 397.141 136.968C396.48 136.968 395.963 137.251 395.59 137.816C395.27 138.317 395.11 138.963 395.11 139.752C395.11 140.563 395.27 141.224 395.59 141.736C395.963 142.301 396.486 142.584 397.158 142.584C398.214 142.584 398.822 141.976 398.982 140.76H400.517ZM410.406 137.208H407.318V143.832H405.638V137.208H402.566V135.688H410.406V137.208ZM418.433 141.288C418.433 140.968 418.284 140.712 417.985 140.52C417.686 140.317 417.34 140.216 416.945 140.216H414.657V142.312H416.945C417.372 142.312 417.724 142.221 418.001 142.04C418.289 141.859 418.433 141.608 418.433 141.288ZM417.985 137.944C417.985 137.453 417.638 137.208 416.945 137.208H414.657V138.776H416.945C417.233 138.776 417.478 138.696 417.681 138.536C417.884 138.376 417.985 138.179 417.985 137.944ZM420.065 141.4C420.065 142.221 419.702 142.851 418.977 143.288C418.422 143.651 417.745 143.832 416.945 143.832H413.041V135.688H416.945C417.574 135.688 418.15 135.859 418.673 136.2C419.292 136.595 419.601 137.139 419.601 137.832C419.601 138.536 419.265 139.053 418.593 139.384C418.988 139.555 419.324 139.805 419.601 140.136C419.91 140.531 420.065 140.952 420.065 141.4ZM427.463 138.856C427.399 138.312 427.212 137.869 426.903 137.528C426.561 137.155 426.145 136.968 425.655 136.968C425.153 136.968 424.732 137.155 424.391 137.528C424.071 137.869 423.863 138.312 423.767 138.856H427.463ZM429.079 140.264H423.735C423.777 140.915 423.964 141.453 424.295 141.88C424.657 142.328 425.127 142.552 425.703 142.552C426.748 142.552 427.345 142.061 427.495 141.08H429.031C428.881 142.061 428.487 142.813 427.847 143.336C427.239 143.816 426.503 144.056 425.639 144.056C425.159 144.056 424.695 143.955 424.247 143.752C423.735 143.539 423.335 143.256 423.047 142.904C422.769 142.552 422.545 142.056 422.375 141.416C422.236 140.872 422.167 140.339 422.167 139.816C422.167 138.611 422.428 137.619 422.951 136.84C423.569 135.933 424.476 135.48 425.671 135.48C426.791 135.48 427.665 135.923 428.295 136.808C428.817 137.555 429.079 138.499 429.079 139.64V140.264ZM443.243 143.832H441.707V140.36H438.203V143.832H436.667V135.688H438.203V138.872H441.707V135.688H443.243V143.832ZM453.765 143.832C453.509 143.853 453.301 143.869 453.141 143.88C452.981 143.901 452.864 143.912 452.789 143.912C452.149 143.912 451.749 143.613 451.589 143.016C450.746 143.709 449.888 144.056 449.013 144.056C448.224 144.056 447.578 143.859 447.077 143.464C446.512 143.016 446.229 142.397 446.229 141.608C446.229 140.637 446.65 139.923 447.493 139.464C448.122 139.123 448.965 138.925 450.021 138.872C450.256 138.872 450.592 138.824 451.029 138.728C451.242 138.6 451.349 138.44 451.349 138.248C451.349 137.373 450.858 136.936 449.877 136.936C448.725 136.936 448.144 137.448 448.133 138.472H446.581C446.592 137.416 446.954 136.632 447.669 136.12C448.224 135.704 448.96 135.496 449.877 135.496C450.741 135.496 451.44 135.688 451.973 136.072C452.592 136.52 452.901 137.203 452.901 138.12V142.152C452.901 142.355 452.965 142.488 453.093 142.552C453.168 142.584 453.392 142.6 453.765 142.6V143.832ZM451.349 140.008C450.88 140.072 450.138 140.184 449.125 140.344C448.24 140.525 447.797 140.925 447.797 141.544C447.797 141.853 447.92 142.104 448.165 142.296C448.41 142.488 448.73 142.584 449.125 142.584C449.765 142.584 450.293 142.408 450.709 142.056C451.136 141.704 451.349 141.229 451.349 140.632V140.008ZM466.101 143.816H456.261V135.688H457.909V142.36H460.373V135.688H462.037V142.36H464.453V135.688H466.101V143.816ZM476.546 143.832H474.978V138.824L471.282 142.92V143.832H469.714V135.688H471.282V140.664L474.978 136.584V135.688H476.546V143.832ZM486.198 143.832H484.278L482.438 140.984L480.549 143.832H478.694L481.494 139.672L478.87 135.688H480.789L482.454 138.344L484.134 135.688H486.006L483.398 139.672L486.198 143.832ZM292.275 152.688L288.915 161.28C288.467 162.443 287.71 163.024 286.643 163.024C286.547 163.024 286.419 163.013 286.259 162.992C286.099 162.971 285.907 162.939 285.683 162.896V161.36C285.694 161.36 285.849 161.387 286.147 161.44C286.329 161.483 286.489 161.504 286.627 161.504C286.926 161.504 287.182 161.328 287.395 160.976C287.47 160.869 287.598 160.555 287.779 160.032L284.931 152.688H286.595L288.611 157.92L290.611 152.688H292.275ZM300.611 157.76C300.355 159.979 299.209 161.088 297.171 161.088C296.713 161.088 296.249 160.987 295.779 160.784C295.267 160.571 294.862 160.288 294.563 159.936C294.265 159.573 294.03 159.072 293.859 158.432C293.71 157.867 293.635 157.339 293.635 156.848C293.635 156.336 293.71 155.781 293.859 155.184C294.041 154.523 294.281 154.011 294.579 153.648C294.889 153.285 295.299 152.997 295.811 152.784C296.281 152.581 296.755 152.48 297.235 152.48C298.142 152.48 298.873 152.725 299.427 153.216C300.078 153.76 300.435 154.555 300.499 155.6H298.995C298.846 154.512 298.259 153.968 297.235 153.968C296.574 153.968 296.057 154.251 295.683 154.816C295.363 155.317 295.203 155.963 295.203 156.752C295.203 157.563 295.363 158.224 295.683 158.736C296.057 159.301 296.579 159.584 297.251 159.584C298.307 159.584 298.915 158.976 299.075 157.76H300.611ZM310.563 160.832H308.947V154.256H306.179V157.376C306.179 158.411 305.875 159.253 305.267 159.904C304.606 160.597 303.721 160.965 302.611 161.008L302.035 159.472C302.995 159.44 303.673 159.243 304.067 158.88C304.43 158.517 304.611 157.936 304.611 157.136V152.688H310.563V160.832ZM319.869 152.688L316.509 161.28C316.061 162.443 315.304 163.024 314.237 163.024C314.141 163.024 314.013 163.013 313.853 162.992C313.693 162.971 313.501 162.939 313.277 162.896V161.36C313.288 161.36 313.442 161.387 313.741 161.44C313.922 161.483 314.082 161.504 314.221 161.504C314.52 161.504 314.776 161.328 314.989 160.976C315.064 160.869 315.192 160.555 315.373 160.032L312.525 152.688H314.189L316.205 157.92L318.205 152.688H319.869ZM327.853 154.192H323.565V160.832H321.917V152.688H327.853V154.192Z" fill="white" fill-opacity="0.86"/>
</svg>
