<svg width="155" height="19" viewBox="0 0 155 19" fill="none" xmlns="http://www.w3.org/2000/svg">
<g clip-path="url(#clip0_32_2)">
<path d="M0.817293 10.9803C1.42686 10.4905 1.98601 10.2523 2.52675 10.2523C3.30897 10.2523 3.87217 10.7499 4.38208 11.2597C4.44072 11.3183 4.51172 11.3457 4.60549 11.3457C5.03517 11.3457 5.79108 10.8076 6.85221 9.74638C8.10057 8.49793 8.57256 7.70389 8.25519 7.38639C7.39482 6.52632 7.12623 5.66411 8.44351 4.02587C8.91508 3.43894 9.37646 3.15369 9.854 3.15369C10.498 3.15369 10.9876 3.66849 11.4195 4.12272C11.4942 4.20124 11.5648 4.27542 11.6339 4.34458C12.1221 4.83273 12.1219 5.8975 11.6332 7.19297C11.0971 8.61437 10.0385 10.1606 8.65242 11.5469C7.58051 12.6187 6.41422 13.4849 5.27954 14.0665C4.28891 14.5743 3.32801 14.8463 2.57386 14.8463C2.57377 14.8463 2.57369 14.8463 2.57356 14.8463C2.10162 14.8463 1.71825 14.7434 1.46507 14.534C0.950775 14.1088 -0.00648594 13.3212 -9.63211e-05 12.3857C0.00341225 11.8839 0.278354 11.4136 0.817293 10.9803Z" fill="white"/>
</g>
<path d="M18.5625 13.0455V5.36364H20.0909V13.0455H18.5625ZM15.4886 9.96591V8.44318H23.1705V9.96591H15.4886ZM25.777 15L30.8565 4.95455V4.86932H24.9815V3.36364H32.6747V4.92045L27.6122 15H25.777ZM43.2997 3.36364V15H41.5384V5.125H41.4702L38.6861 6.94318V5.26136L41.5895 3.36364H43.2997ZM46.4474 15V13.7273L50.3849 9.64773C50.8054 9.20455 51.152 8.81629 51.4247 8.48295C51.7012 8.14583 51.9077 7.82576 52.044 7.52273C52.1804 7.2197 52.2486 6.89773 52.2486 6.55682C52.2486 6.17045 52.1577 5.83712 51.9759 5.55682C51.794 5.27273 51.5459 5.05492 51.2315 4.90341C50.9171 4.74811 50.563 4.67045 50.169 4.67045C49.7524 4.67045 49.3887 4.75568 49.0781 4.92614C48.7675 5.09659 48.5289 5.33712 48.3622 5.64773C48.1955 5.95833 48.1122 6.32197 48.1122 6.73864H46.4361C46.4361 6.0303 46.599 5.41098 46.9247 4.88068C47.2505 4.35038 47.6974 3.93939 48.2656 3.64773C48.8338 3.35227 49.4796 3.20455 50.2031 3.20455C50.9342 3.20455 51.5781 3.35038 52.1349 3.64205C52.6955 3.92992 53.133 4.32386 53.4474 4.82386C53.7618 5.32008 53.919 5.88068 53.919 6.50568C53.919 6.9375 53.8376 7.35985 53.6747 7.77273C53.5156 8.18561 53.2372 8.64583 52.8395 9.15341C52.4418 9.6572 51.8887 10.2689 51.1804 10.9886L48.8679 13.4091V13.4943H54.1065V15H46.4474ZM60.3111 15.1591C59.5308 15.1591 58.8338 15.0246 58.2202 14.7557C57.6103 14.4867 57.1274 14.1136 56.7713 13.6364C56.419 13.1553 56.2296 12.5985 56.2031 11.9659H57.9872C58.0099 12.3106 58.1255 12.6098 58.3338 12.8636C58.5459 13.1136 58.8224 13.3068 59.1634 13.4432C59.5043 13.5795 59.883 13.6477 60.2997 13.6477C60.758 13.6477 61.1634 13.5682 61.5156 13.4091C61.8717 13.25 62.1501 13.0284 62.3509 12.7443C62.5516 12.4564 62.652 12.125 62.652 11.75C62.652 11.3598 62.5516 11.017 62.3509 10.7216C62.1539 10.4223 61.8641 10.1875 61.4815 10.017C61.1027 9.84659 60.6444 9.76136 60.1065 9.76136H59.1236V8.32955H60.1065C60.5384 8.32955 60.9171 8.25189 61.2429 8.09659C61.5724 7.94129 61.83 7.72538 62.0156 7.44886C62.2012 7.16856 62.294 6.84091 62.294 6.46591C62.294 6.10606 62.2126 5.79356 62.0497 5.52841C61.8906 5.25947 61.6634 5.04924 61.3679 4.89773C61.0762 4.74621 60.7315 4.67045 60.3338 4.67045C59.955 4.67045 59.6009 4.74053 59.2713 4.88068C58.9455 5.01705 58.6804 5.21402 58.4759 5.47159C58.2713 5.72538 58.1615 6.0303 58.1463 6.38636H56.4474C56.4664 5.75758 56.652 5.20455 57.0043 4.72727C57.3603 4.25 57.83 3.87689 58.4134 3.60795C58.9967 3.33901 59.6444 3.20455 60.3565 3.20455C61.1027 3.20455 61.7467 3.35038 62.2884 3.64205C62.8338 3.92992 63.2543 4.31439 63.5497 4.79545C63.849 5.27651 63.9967 5.80303 63.9929 6.375C63.9967 7.02652 63.8149 7.57955 63.4474 8.03409C63.0838 8.48864 62.599 8.79356 61.9929 8.94886V9.03977C62.7656 9.1572 63.3641 9.46402 63.7884 9.96023C64.2164 10.4564 64.4285 11.072 64.4247 11.8068C64.4285 12.447 64.2505 13.0208 63.8906 13.5284C63.5346 14.036 63.0478 14.4356 62.4304 14.7273C61.813 15.0152 61.1065 15.1591 60.3111 15.1591ZM70.5625 12.7273V11.3068L75.5909 3.36364H76.7102V5.45455H76L72.4034 11.1477V11.2386H79.2955V12.7273H70.5625ZM76.0795 15V12.2955L76.0909 11.6477V3.36364H77.7557V15H76.0795ZM85.1165 15.1591C84.4044 15.1591 83.7642 15.0227 83.196 14.75C82.6316 14.4735 82.1809 14.0947 81.8438 13.6136C81.5066 13.1326 81.3267 12.5833 81.304 11.9659H83.0085C83.0502 12.4659 83.2718 12.8769 83.6733 13.1989C84.0748 13.5208 84.5559 13.6818 85.1165 13.6818C85.5634 13.6818 85.9593 13.5795 86.304 13.375C86.6525 13.1667 86.9252 12.8807 87.1222 12.517C87.3229 12.1534 87.4233 11.7386 87.4233 11.2727C87.4233 10.7992 87.321 10.3769 87.1165 10.0057C86.9119 9.63447 86.6297 9.3428 86.2699 9.13068C85.9138 8.91856 85.5047 8.81061 85.0426 8.80682C84.6903 8.80682 84.3362 8.86742 83.9801 8.98864C83.6241 9.10985 83.3362 9.26894 83.1165 9.46591L81.5085 9.22727L82.1619 3.36364H88.5597V4.86932H83.6222L83.2528 8.125H83.321C83.5483 7.9053 83.8494 7.72159 84.2244 7.57386C84.6032 7.42614 85.0085 7.35227 85.4403 7.35227C86.1487 7.35227 86.7794 7.52083 87.3324 7.85795C87.8892 8.19508 88.3267 8.6553 88.6449 9.23864C88.9669 9.81818 89.1259 10.4848 89.1222 11.2386C89.1259 11.9924 88.9555 12.6648 88.6108 13.2557C88.2699 13.8466 87.7964 14.3125 87.1903 14.6534C86.5881 14.9905 85.8968 15.1591 85.1165 15.1591ZM95.2599 15.1591C94.741 15.1515 94.2296 15.0568 93.7259 14.875C93.2259 14.6932 92.7713 14.3902 92.3622 13.9659C91.9531 13.5417 91.6255 12.9716 91.3793 12.2557C91.1368 11.5398 91.0156 10.6458 91.0156 9.57386C91.0156 8.55871 91.116 7.6572 91.3168 6.86932C91.5213 6.08144 91.8149 5.41667 92.1974 4.875C92.58 4.32955 93.0421 3.91477 93.5838 3.63068C94.1255 3.34659 94.7334 3.20455 95.4077 3.20455C96.1009 3.20455 96.7164 3.34091 97.2543 3.61364C97.7921 3.88636 98.2277 4.26326 98.5611 4.74432C98.8982 5.22538 99.1122 5.77273 99.2031 6.38636H97.4702C97.3527 5.90152 97.1198 5.50568 96.7713 5.19886C96.4228 4.89205 95.9683 4.73864 95.4077 4.73864C94.5554 4.73864 93.8906 5.10985 93.4134 5.85227C92.9399 6.5947 92.7012 7.62689 92.6974 8.94886H92.7827C92.9834 8.61932 93.2296 8.33901 93.5213 8.10795C93.8168 7.87311 94.1463 7.69318 94.5099 7.56818C94.8774 7.43939 95.2637 7.375 95.669 7.375C96.3433 7.375 96.9531 7.53977 97.4986 7.86932C98.0478 8.19508 98.4853 8.64583 98.8111 9.22159C99.1368 9.79735 99.2997 10.4564 99.2997 11.1989C99.2997 11.9413 99.1312 12.6136 98.794 13.2159C98.4607 13.8182 97.991 14.2955 97.3849 14.6477C96.7789 14.9962 96.0705 15.1667 95.2599 15.1591ZM95.2543 13.6818C95.7012 13.6818 96.1009 13.572 96.4531 13.3523C96.8054 13.1326 97.0838 12.8371 97.2884 12.4659C97.4929 12.0947 97.5952 11.6799 97.5952 11.2216C97.5952 10.7746 97.4948 10.3674 97.294 10C97.0971 9.63258 96.8243 9.34091 96.4759 9.125C96.1312 8.90909 95.7372 8.80114 95.294 8.80114C94.9569 8.80114 94.6444 8.86553 94.3565 8.99432C94.0724 9.12311 93.8224 9.30114 93.6065 9.52841C93.3906 9.75568 93.2202 10.017 93.0952 10.3125C92.974 10.6042 92.9134 10.9129 92.9134 11.2386C92.9134 11.6742 93.0137 12.0777 93.2145 12.4489C93.419 12.8201 93.6974 13.1193 94.0497 13.3466C94.4058 13.5701 94.8073 13.6818 95.2543 13.6818ZM106.534 8.44318V9.92045H101.375V8.44318H106.534ZM108.777 15L113.857 4.95455V4.86932H107.982V3.36364H115.675V4.92045L110.612 15H108.777ZM121.348 15.1591C120.534 15.1591 119.814 15.0189 119.189 14.7386C118.568 14.4583 118.081 14.072 117.729 13.5795C117.376 13.0871 117.202 12.5265 117.206 11.8977C117.202 11.4053 117.303 10.9527 117.507 10.5398C117.715 10.1231 117.998 9.77652 118.354 9.5C118.71 9.2197 119.107 9.04167 119.547 8.96591V8.89773C118.967 8.75758 118.503 8.44697 118.155 7.96591C117.806 7.48485 117.634 6.93182 117.638 6.30682C117.634 5.71212 117.791 5.18182 118.109 4.71591C118.431 4.24621 118.873 3.87689 119.433 3.60795C119.994 3.33901 120.632 3.20455 121.348 3.20455C122.056 3.20455 122.689 3.34091 123.246 3.61364C123.806 3.88258 124.248 4.25189 124.57 4.72159C124.892 5.1875 125.054 5.71591 125.058 6.30682C125.054 6.93182 124.876 7.48485 124.524 7.96591C124.172 8.44697 123.714 8.75758 123.149 8.89773V8.96591C123.585 9.04167 123.977 9.2197 124.325 9.5C124.678 9.77652 124.958 10.1231 125.166 10.5398C125.378 10.9527 125.486 11.4053 125.49 11.8977C125.486 12.5265 125.308 13.0871 124.956 13.5795C124.604 14.072 124.115 14.4583 123.49 14.7386C122.869 15.0189 122.155 15.1591 121.348 15.1591ZM121.348 13.7216C121.829 13.7216 122.246 13.642 122.598 13.483C122.95 13.3201 123.223 13.0947 123.416 12.8068C123.609 12.5152 123.708 12.1742 123.712 11.7841C123.708 11.3788 123.602 11.0208 123.393 10.7102C123.189 10.3996 122.911 10.1553 122.558 9.97727C122.206 9.79924 121.803 9.71023 121.348 9.71023C120.89 9.71023 120.482 9.79924 120.126 9.97727C119.77 10.1553 119.49 10.3996 119.286 10.7102C119.081 11.0208 118.981 11.3788 118.984 11.7841C118.981 12.1742 119.073 12.5152 119.263 12.8068C119.456 13.0947 119.731 13.3201 120.087 13.483C120.443 13.642 120.863 13.7216 121.348 13.7216ZM121.348 8.30682C121.734 8.30682 122.077 8.22917 122.376 8.07386C122.676 7.91856 122.911 7.70265 123.081 7.42614C123.255 7.14962 123.344 6.82576 123.348 6.45455C123.344 6.09091 123.257 5.77273 123.087 5.5C122.92 5.22727 122.687 5.01705 122.388 4.86932C122.089 4.7178 121.742 4.64205 121.348 4.64205C120.946 4.64205 120.594 4.7178 120.291 4.86932C119.992 5.01705 119.759 5.22727 119.592 5.5C119.426 5.77273 119.344 6.09091 119.348 6.45455C119.344 6.82576 119.428 7.14962 119.598 7.42614C119.768 7.70265 120.003 7.91856 120.303 8.07386C120.606 8.22917 120.954 8.30682 121.348 8.30682ZM132.69 8.44318V9.92045H127.531V8.44318H132.69ZM138.801 3.20455C139.32 3.20833 139.831 3.30303 140.335 3.48864C140.839 3.67424 141.294 3.97727 141.699 4.39773C142.108 4.81818 142.434 5.38636 142.676 6.10227C142.922 6.81439 143.047 7.70076 143.051 8.76136C143.051 9.7803 142.949 10.6875 142.744 11.483C142.54 12.2746 142.246 12.9432 141.864 13.4886C141.485 14.0341 141.025 14.4489 140.483 14.733C139.941 15.017 139.331 15.1591 138.653 15.1591C137.96 15.1591 137.345 15.0227 136.807 14.75C136.269 14.4773 135.831 14.1004 135.494 13.6193C135.157 13.1345 134.947 12.5777 134.864 11.9489H136.597C136.71 12.4489 136.941 12.8542 137.29 13.1648C137.642 13.4716 138.097 13.625 138.653 13.625C139.506 13.625 140.17 13.2538 140.648 12.5114C141.125 11.7652 141.366 10.7235 141.369 9.38636H141.278C141.081 9.71212 140.835 9.99242 140.54 10.2273C140.248 10.4621 139.92 10.6439 139.557 10.7727C139.193 10.9015 138.805 10.9659 138.392 10.9659C137.722 10.9659 137.112 10.8011 136.562 10.4716C136.013 10.142 135.576 9.68939 135.25 9.11364C134.924 8.53788 134.761 7.88068 134.761 7.14205C134.761 6.4072 134.928 5.74053 135.261 5.14205C135.598 4.54356 136.068 4.07008 136.67 3.72159C137.277 3.36932 137.987 3.19697 138.801 3.20455ZM138.807 4.68182C138.364 4.68182 137.964 4.79167 137.608 5.01136C137.256 5.22727 136.977 5.52083 136.773 5.89205C136.568 6.25947 136.466 6.66856 136.466 7.11932C136.466 7.57008 136.564 7.97917 136.761 8.34659C136.962 8.71023 137.235 9 137.58 9.21591C137.928 9.42803 138.326 9.53409 138.773 9.53409C139.106 9.53409 139.417 9.4697 139.705 9.34091C139.992 9.21212 140.244 9.03409 140.46 8.80682C140.676 8.57576 140.845 8.31439 140.966 8.02273C141.087 7.73106 141.148 7.42424 141.148 7.10227C141.148 6.67424 141.045 6.27652 140.841 5.90909C140.64 5.54167 140.364 5.24621 140.011 5.02273C139.659 4.79545 139.258 4.68182 138.807 4.68182ZM149.155 15.1932C148.257 15.1894 147.49 14.9527 146.854 14.483C146.217 14.0133 145.731 13.3295 145.393 12.4318C145.056 11.5341 144.888 10.4527 144.888 9.1875C144.888 7.92614 145.056 6.84848 145.393 5.95455C145.734 5.06061 146.223 4.37879 146.859 3.90909C147.5 3.43939 148.265 3.20455 149.155 3.20455C150.045 3.20455 150.808 3.44129 151.445 3.91477C152.081 4.38447 152.568 5.06629 152.905 5.96023C153.246 6.85038 153.416 7.92614 153.416 9.1875C153.416 10.4564 153.248 11.5398 152.911 12.4375C152.573 13.3314 152.087 14.0152 151.45 14.4886C150.814 14.9583 150.049 15.1932 149.155 15.1932ZM149.155 13.6761C149.943 13.6761 150.558 13.2917 151.001 12.5227C151.448 11.7538 151.672 10.642 151.672 9.1875C151.672 8.22159 151.57 7.4053 151.365 6.73864C151.164 6.06818 150.875 5.56061 150.496 5.21591C150.121 4.86742 149.674 4.69318 149.155 4.69318C148.371 4.69318 147.755 5.07954 147.308 5.85227C146.861 6.625 146.636 7.73674 146.632 9.1875C146.632 10.1572 146.732 10.9773 146.933 11.6477C147.138 12.3144 147.428 12.8201 147.803 13.1648C148.178 13.5057 148.628 13.6761 149.155 13.6761Z" fill="white"/>
<defs>
<clipPath id="clip0_32_2">
<rect width="12" height="12" fill="white" transform="matrix(-1 0 0 1 12 3)"/>
</clipPath>
</defs>
</svg>
