<svg width="279" height="135" viewBox="0 0 279 135" fill="none" xmlns="http://www.w3.org/2000/svg">
<mask id="path-1-inside-1_55_2" fill="white">
<rect width="279" height="135" rx="1"/>
</mask>
<rect width="279" height="135" rx="1" fill="#271100" fill-opacity="0.9" stroke="white" stroke-width="6" mask="url(#path-1-inside-1_55_2)"/>
<path d="M62.293 74.248H59.797V66.904H52.045V74.248H49.573V58.096H52.045V64.528H59.797V58.096H62.293V74.248ZM75.445 67.336L73.165 61.672L70.981 67.336H75.445ZM80.821 74.248H78.109L76.357 69.64H70.093L68.293 74.248H65.581L71.989 58.096H74.389L80.821 74.248ZM101.557 74.248H83.9168V58.096H86.5328V71.848H91.4528V58.096H94.0208V71.848H98.9648V58.096H101.557V74.248ZM119.144 74.248H116.648V63.352L109.64 72.904V74.248H107.144V58.096H109.64V68.944L116.648 59.392V58.096H119.144V74.248ZM140.463 62.872C140.463 61.288 139.415 60.496 137.319 60.496H133.983V65.368H136.695C139.207 65.368 140.463 64.536 140.463 62.872ZM142.935 62.896C142.935 66.128 140.951 67.744 136.983 67.744H133.983V74.248H131.511V58.096H137.607C139.191 58.096 140.431 58.448 141.327 59.152C142.399 59.968 142.935 61.216 142.935 62.896ZM155.39 67.336L153.11 61.672L150.926 67.336H155.39ZM160.766 74.248H158.054L156.302 69.64H150.038L148.238 74.248H145.526L151.934 58.096H154.334L160.766 74.248ZM173.702 69.352C173.702 67.784 172.638 67 170.51 67H166.358V71.848H170.51C172.638 71.848 173.702 71.016 173.702 69.352ZM176.198 69.352C176.198 71.048 175.622 72.312 174.47 73.144C173.494 73.88 172.206 74.248 170.606 74.248H163.886V58.096H175.454V60.496H166.358V64.576H170.606C172.11 64.576 173.374 64.944 174.398 65.68C175.598 66.528 176.198 67.752 176.198 69.352ZM192.566 66.184C192.566 64.408 192.126 62.96 191.246 61.84C190.302 60.608 189.006 59.992 187.358 59.992C185.71 59.992 184.414 60.608 183.47 61.84C182.574 62.976 182.126 64.424 182.126 66.184C182.126 67.944 182.574 69.392 183.47 70.528C184.398 71.728 185.694 72.328 187.358 72.328C189.006 72.328 190.302 71.728 191.246 70.528C192.126 69.408 192.566 67.96 192.566 66.184ZM195.038 66.184C195.038 68.52 194.366 70.48 193.022 72.064C191.582 73.776 189.694 74.632 187.358 74.632C184.99 74.632 183.102 73.784 181.694 72.088C180.382 70.52 179.726 68.552 179.726 66.184C179.726 63.816 180.374 61.84 181.67 60.256C183.094 58.544 184.99 57.688 187.358 57.688C189.694 57.688 191.582 58.552 193.022 60.28C194.366 61.896 195.038 63.864 195.038 66.184ZM209.966 60.448H205.166V74.248H202.646V60.448H197.87V58.096H209.966V60.448ZM222.542 69.304C222.542 68.472 222.214 67.848 221.558 67.432C220.998 67.064 220.222 66.88 219.23 66.88H215.894V71.872H219.23C221.438 71.872 222.542 71.016 222.542 69.304ZM225.134 69.28C225.134 70.976 224.526 72.264 223.31 73.144C222.286 73.88 220.942 74.248 219.278 74.248H213.422V58.096H215.942V64.48H219.422C220.926 64.48 222.214 64.856 223.286 65.608C224.518 66.472 225.134 67.696 225.134 69.28ZM228.758 74.248H226.214V58.096H228.758V74.248Z" fill="white"/>
</svg>
